<svg xmlns="http://www.w3.org/2000/svg" xmlns:xlink="http://www.w3.org/1999/xlink" width="1080" height="1080" style="width:100%;height:100%;transform:translate3d(0,0,0);content-visibility:visible"><defs><mask id="cn" mask-type="alpha"><use xlink:href="#a"/></mask><mask id="cl" mask-type="alpha"><g filter="url(#b)"><use xlink:href="#c"/></g></mask><mask id="ck" mask-type="alpha"><use xlink:href="#d"/></mask><mask id="cj" mask-type="alpha"><use xlink:href="#e"/></mask><mask id="ch" mask-type="alpha"><g filter="url(#f)"><use xlink:href="#g"/></g></mask><mask id="cf" mask-type="alpha"><use xlink:href="#h"/></mask><mask id="cd" mask-type="alpha"><g filter="url(#i)"><use xlink:href="#j"/></g></mask><mask id="cc" mask-type="alpha"><use xlink:href="#k"/></mask><mask id="cb" mask-type="alpha"><use xlink:href="#l"/></mask><mask id="bZ" mask-type="alpha"><g filter="url(#m)"><use xlink:href="#n"/></g></mask><mask id="bX" mask-type="alpha"><use xlink:href="#o"/></mask><mask id="bV" mask-type="alpha"><g filter="url(#p)"><use xlink:href="#q"/></g></mask><mask id="bU" mask-type="alpha"><use xlink:href="#r"/></mask><mask id="bT" mask-type="alpha"><use xlink:href="#s"/></mask><mask id="bR" mask-type="alpha"><g filter="url(#t)"><use xlink:href="#u"/></g></mask><mask id="bH" mask-type="alpha"><use xlink:href="#v"/></mask><mask id="bG" mask-type="alpha"><use xlink:href="#w"/></mask><mask id="bE" mask-type="alpha"><use xlink:href="#x"/></mask><mask id="bD" mask-type="alpha"><use xlink:href="#y"/></mask><mask id="bB" mask-type="alpha"><use xlink:href="#z"/></mask><mask id="bA" mask-type="alpha"><use xlink:href="#A"/></mask><mask id="by" mask-type="alpha"><use xlink:href="#B"/></mask><mask id="bx" mask-type="alpha"><use xlink:href="#C"/></mask><mask id="bu" mask-type="alpha"><use xlink:href="#D"/></mask><mask id="bv" mask-type="alpha"><use xlink:href="#E"/></mask><mask id="br" mask-type="alpha"><use xlink:href="#F"/></mask><mask id="bs" mask-type="alpha"><use xlink:href="#G"/></mask><mask id="bo" mask-type="alpha"><use xlink:href="#H"/></mask><mask id="bp" mask-type="alpha"><use xlink:href="#I"/></mask><mask id="bl" mask-type="alpha"><use xlink:href="#J"/></mask><mask id="bm" mask-type="alpha"><use xlink:href="#K"/></mask><mask id="bh" mask-type="alpha"><use xlink:href="#L"/></mask><mask id="bd" mask-type="alpha"><use xlink:href="#M"/></mask><mask id="aZ" mask-type="alpha"><use xlink:href="#N"/></mask><mask id="aX" mask-type="alpha"><use xlink:href="#O"/></mask><mask id="aW" mask-type="alpha"><use xlink:href="#P"/></mask><mask id="aV" mask-type="alpha"><use xlink:href="#Q"/></mask><mask id="aT" mask-type="alpha"><use xlink:href="#R"/></mask><mask id="aS" mask-type="alpha"><use xlink:href="#S"/></mask><mask id="aR" mask-type="alpha"><use xlink:href="#T"/></mask><mask id="aP" mask-type="alpha"><use xlink:href="#U"/></mask><mask id="aO" mask-type="alpha"><use xlink:href="#V"/></mask><mask id="aN" mask-type="alpha"><use xlink:href="#W"/></mask><mask id="aL" mask-type="alpha"><use xlink:href="#X"/></mask><mask id="aK" mask-type="alpha"><use xlink:href="#Y"/></mask><mask id="aJ" mask-type="alpha"><use xlink:href="#Z"/></mask><mask id="aG" mask-type="alpha"><use xlink:href="#aa"/></mask><mask id="aF" mask-type="alpha"><use xlink:href="#ab"/></mask><mask id="aE" mask-type="alpha"><use xlink:href="#ac"/></mask><mask id="aC" mask-type="alpha"><use xlink:href="#ad"/></mask><mask id="az" mask-type="alpha"><use xlink:href="#ae"/></mask><mask id="ay" mask-type="alpha"><use xlink:href="#af"/></mask><mask id="ax" mask-type="alpha"><use xlink:href="#ag"/></mask><mask id="av" mask-type="alpha"><use xlink:href="#ah"/></mask><mask id="as" mask-type="alpha"><use xlink:href="#ai"/></mask><mask id="ar" mask-type="alpha"><use xlink:href="#aj"/></mask><mask id="aq" mask-type="alpha"><use xlink:href="#ak"/></mask><mask id="ao" mask-type="alpha"><use xlink:href="#al"/></mask><clipPath id="am"><path d="M0 0h1080v1080H0z"/></clipPath><clipPath id="cg"><path d="M0 0h1920v1079H0z"/></clipPath><clipPath id="cm"><path d="M0 0h1920v1079H0z"/></clipPath><clipPath id="ci"><path d="M0 0h1920v1079H0z"/></clipPath><clipPath id="bY"><path d="M0 0h1920v1079H0z"/></clipPath><clipPath id="ce"><path d="M0 0h1920v1079H0z"/></clipPath><clipPath id="ca"><path d="M0 0h1920v1079H0z"/></clipPath><clipPath id="bQ"><path d="M0 0h1920v1079H0z"/></clipPath><clipPath id="bW"><path d="M0 0h1920v1079H0z"/></clipPath><clipPath id="bS"><path d="M0 0h1920v1079H0z"/></clipPath><clipPath id="bP"><path d="M0 0h1920v1079H0z"/></clipPath><clipPath id="bO"><path d="M0 0h1920v1079H0z"/></clipPath><clipPath id="bN"><path d="M0 0h1920v1079H0z"/></clipPath><clipPath id="bM"><path d="M0 0h1920v1079H0z"/></clipPath><clipPath id="bL"><path d="M0 0h1920v1079H0z"/></clipPath><clipPath id="bK"><path d="M0 0h1920v1079H0z"/></clipPath><clipPath id="bJ"><path d="M0 0h1920v1079H0z"/></clipPath><clipPath id="bI"><path d="M0 0h1920v1079H0z"/></clipPath><clipPath id="bF"><path d="M0 0h1920v1079H0z"/></clipPath><clipPath id="bC"><path d="M0 0h1920v1079H0z"/></clipPath><clipPath id="bz"><path d="M0 0h1920v1079H0z"/></clipPath><clipPath id="bw"><path d="M0 0h1920v1079H0z"/></clipPath><clipPath id="bt"><path d="M0 0h1920v1079H0z"/></clipPath><clipPath id="bq"><path d="M0 0h1920v1079H0z"/></clipPath><clipPath id="bn"><path d="M0 0h1920v1079H0z"/></clipPath><clipPath id="bk"><path d="M0 0h1920v1079H0z"/></clipPath><clipPath id="bg"><path d="M0 0h1920v1079H0z"/></clipPath><clipPath id="bi"><path d="M0 0h1920v1079H0z"/></clipPath><clipPath id="bc"><path d="M0 0h1920v1079H0z"/></clipPath><clipPath id="be"><path d="M0 0h1920v1079H0z"/></clipPath><clipPath id="aY"><path d="M0 0h1920v1079H0z"/></clipPath><clipPath id="ba"><path d="M0 0h1920v1079H0z"/></clipPath><clipPath id="aU"><path d="M0 0h1920v1079H0z"/></clipPath><clipPath id="aQ"><path d="M0 0h1920v1079H0z"/></clipPath><clipPath id="aM"><path d="M0 0h1920v1079H0z"/></clipPath><clipPath id="aI"><path d="M0 0h1920v1079H0z"/></clipPath><clipPath id="aB"><path d="M0 0h1920v1079H0z"/></clipPath><clipPath id="aH"><path d="M0 0h1920v1079H0z"/></clipPath><clipPath id="aD"><path d="M0 0h1920v1079H0z"/></clipPath><clipPath id="au"><path d="M0 0h1920v1079H0z"/></clipPath><clipPath id="aA"><path d="M0 0h1920v1079H0z"/></clipPath><clipPath id="aw"><path d="M0 0h1920v1079H0z"/></clipPath><clipPath id="an"><path d="M0 0h1920v1079H0z"/></clipPath><clipPath id="at"><path d="M0 0h1920v1079H0z"/></clipPath><clipPath id="ap"><path d="M0 0h1920v1079H0z"/></clipPath><path fill="#DB8D74" d="M521.5 303c-16.5 11-42 12.5-66 13.5s-53.834 22.53-51 52c2.5 26 27.5 43 54.5 43.5 30.012.556 61-2.5 100.5-24s36.5-55.5 23.5-77-45-19-61.5-8z" transform="rotate(-6 6207.043 -8631.536)" style="display:block" id="e"/><path fill="#DB8D74" d="M521.5 303c-16.5 11-42 12.5-66 13.5s-53.834 22.53-51 52c2.5 26 27.5 43 54.5 43.5 30.012.556 61-2.5 100.5-24s36.5-55.5 23.5-77-45-19-61.5-8z" transform="rotate(-6 6207.043 -8631.536)" style="display:block" id="l"/><path fill="#DB8D74" d="M482.763 275.603c-62.54 10.163-70.236 76.625-62.591 127.106 8.645 49.929 23.159 76.255 59.745 71.089 30.143-4.48 46.95-27.825 42.718-65.137-4.113-34.11 2.888-55.598 6.279-76.482 5.387-32.209-15.527-60.714-46.15-56.576z" transform="rotate(35.667 107.154 2195.246)" style="display:block" id="o"/><path fill="#DB8D74" d="M521.5 303c-16.5 11-42 12.5-66 13.5s-53.834 22.53-51 52c2.5 26 27.5 43 54.5 43.5 30.012.556 61-2.5 100.5-24s36.5-55.5 23.5-77-45-19-61.5-8z" transform="translate(975 551.5)" style="display:block" id="s"/><path fill="#FFCBA3" d="M208.585-408.855c-7.835-3.645-36.835-2.645-50.532 21.238-12.377 21.58-5.057 49.093 16.487 61.532 0 0 2.21 1.585 4.192 2.604C165-376.5 201.25-403.25 213.777-407.001c-1.277-.999-5.192-1.854-5.192-1.854z" transform="rotate(.02 -2326156.838 4082455.061)" style="display:block" id="v"/><path fill="#B23232" d="m181.611-391.64 1.47 3.198c1.386 3.013.04 6.561-3.004 7.925-3.045 1.363-6.635.025-8.02-2.989l-1.47-3.198c-1.386-3.014-.041-6.561 3.004-7.925 3.044-1.363 6.635-.026 8.02 2.988z" transform="rotate(.02 -2326156.838 4082455.061)" style="display:block" id="w"/><path fill="#FFCBA3" d="M208.585-408.855c-7.835-3.645-36.835-2.645-50.532 21.238-12.377 21.58-5.057 49.093 16.487 61.532 0 0 2.21 1.585 4.192 2.604C165-376.5 201.25-403.25 213.777-407.001c-1.277-.999-5.192-1.854-5.192-1.854z" transform="rotate(1.568 -20927.52 37851.114)" style="display:block" id="x"/><path fill="#B23232" d="m184.23-391.34 1.119 3.378c1.054 3.184-.808 6.524-4.159 7.46-3.35.936-6.92-.888-7.975-4.072l-1.118-3.378c-1.054-3.185.808-6.524 4.158-7.46 3.35-.936 6.921.887 7.975 4.071z" transform="rotate(1.568 -20927.52 37851.114)" style="display:block" id="y"/><path fill="#FFCBA3" d="M208.585-408.855c-7.835-3.645-36.835-2.645-50.532 21.238-12.377 21.58-5.057 49.093 16.487 61.532 0 0 2.21 1.585 4.192 2.604C165-376.5 201.25-403.25 213.777-407.001c-1.277-.999-5.192-1.854-5.192-1.854z" transform="rotate(1.075 -30686.51 55081.527)" style="display:block" id="z"/><path fill="#B23232" d="m181.35-391.67 1.504 3.18c1.419 2.996.126 6.565-2.888 7.971-3.015 1.406-6.607.117-8.026-2.88l-1.505-3.18c-1.418-2.997-.125-6.565 2.89-7.971 3.013-1.407 6.606-.117 8.024 2.88z" transform="rotate(1.075 -30686.51 55081.527)" style="display:block" id="A"/><path fill="#FFCBA3" d="M208.585-408.855c-7.835-3.645-36.835-2.645-50.532 21.238-12.377 21.58-5.057 49.093 16.487 61.532 0 0 2.21 1.585 4.192 2.604C165-376.5 201.25-403.25 213.777-407.001c-1.277-.999-5.192-1.854-5.192-1.854z" transform="rotate(1.568 -20927.273 37851.03)" style="display:block" id="B"/><path fill="#B23232" d="m184.225-391.341 1.12 3.378c1.054 3.183-.807 6.524-4.156 7.46-3.35.938-6.921-.885-7.976-4.069l-1.12-3.378c-1.053-3.184.808-6.524 4.157-7.46 3.35-.938 6.921.884 7.975 4.069z" transform="rotate(1.568 -20927.273 37851.03)" style="display:block" id="C"/><path fill="#58CC02" d="M318.202-45.464c15.252 94.999-31.572 144.035-95.655 159.537-84.448 20.428-134.794-43.146-151.05-96.71C16-165.5 158.631-177.933 166.59-174.39a21.642 21.642 0 0 0 13.898 1.277c13.72-3.334 29.364-13.462 52.062-24.71 28.634-14.19 72.547 1.407 71.323 40.679 0 0 5.505 56.717 14.329 111.68zm-15 4c15.252 94.999-16.572 140.035-80.655 155.537-84.448 20.428-144.155-35.09-168.05-85.71C36.399-9.976 31.209-79.308 31.209-79.308c-2.443-42.408 8.57-88.445 47.15-106.222 17.568-8.095 35.66-11.367 49.816-6.28 21.939 7.884 30.456 13.877 38.415 17.42 4.363 1.942 127.788 77.963 136.612 132.926z" transform="rotate(-2.646 13776.4 -22136.3)" style="display:block" id="E"/><path fill="#58CC02" d="M318.202-45.464c15.252 94.999-31.572 144.035-95.655 159.537-84.448 20.428-134.794-43.146-151.05-96.71C16-165.5 158.631-177.933 166.59-174.39a21.642 21.642 0 0 0 13.898 1.277c13.72-3.334 29.364-13.462 52.062-24.71 28.634-14.19 72.547 1.407 71.323 40.679 0 0 5.505 56.717 14.329 111.68zm-15 4c15.252 94.999-16.572 140.035-80.655 155.537-84.448 20.428-144.155-35.09-168.05-85.71C36.399-9.976 31.209-79.308 31.209-79.308c-2.443-42.408 8.57-88.445 47.15-106.222 17.568-8.095 35.66-11.367 49.816-6.28 21.939 7.884 30.456 13.877 38.415 17.42 4.363 1.942 127.788 77.963 136.612 132.926z" transform="rotate(-2.989 12395.394 -19598.074)" style="display:block" id="G"/><path fill="#58CC02" d="M318.202-45.464c15.252 94.999-31.572 144.035-95.655 159.537-84.448 20.428-134.794-43.146-151.05-96.71C16-165.5 158.631-177.933 166.59-174.39a21.642 21.642 0 0 0 13.898 1.277c13.72-3.334 29.364-13.462 52.062-24.71 28.634-14.19 72.547 1.407 71.323 40.679 0 0 5.505 56.717 14.329 111.68zm-15 4c15.252 94.999-16.572 140.035-80.655 155.537-84.448 20.428-144.155-35.09-168.05-85.71C36.399-9.976 31.209-79.308 31.209-79.308c-2.443-42.408 8.57-88.445 47.15-106.222 17.568-8.095 35.66-11.367 49.816-6.28 21.939 7.884 30.456 13.877 38.415 17.42 4.363 1.942 127.788 77.963 136.612 132.926z" transform="rotate(-.04 814990.772 -1422886.614)" style="display:block" id="I"/><path fill="#58CC02" d="M318.202-45.464c15.252 94.999-31.572 144.035-95.655 159.537-84.448 20.428-134.794-43.146-151.05-96.71C16-165.5 158.631-177.933 166.59-174.39a21.642 21.642 0 0 0 13.898 1.277c13.72-3.334 29.364-13.462 52.062-24.71 28.634-14.19 72.547 1.407 71.323 40.679 0 0 5.505 56.717 14.329 111.68zm-15 4c15.252 94.999-16.572 140.035-80.655 155.537-84.448 20.428-144.155-35.09-168.05-85.71C36.399-9.976 31.209-79.308 31.209-79.308c-2.443-42.408 8.57-88.445 47.15-106.222 17.568-8.095 35.66-11.367 49.816-6.28 21.939 7.884 30.456 13.877 38.415 17.42 4.363 1.942 127.788 77.963 136.612 132.926z" transform="rotate(-2.985 12394.635 -19619.16)" style="display:block" id="K"/><path fill="#FFC7B8" d="M552.811-154.957c-14.873-8.982-34.962-11.237-52.179-1.891l-28.256 15.339a51.11 51.11 0 0 0-25.616 34.316l-7.98 37.63C434.57-49.714 440-30 458.986-17.428 477.972-4.856 510.5 12 528.501 43.852c6.897 12.204 42.974 11.603 54.934 7.15l38.691-9.376A38.335 38.335 0 0 0 651.93 8.839l6.319-51.72c-.568-6.318-6.973-19.296-11.519-26.102C621-107.5 590-132.5 552.811-154.957z" transform="rotate(-6.966 5759.877 -7826.362)" style="display:block" id="L"/><path fill="#FFC7B8" d="M552.811-154.957c-14.873-8.982-34.962-11.237-52.179-1.891l-28.256 15.339a51.11 51.11 0 0 0-25.616 34.316l-7.98 37.63C434.57-49.714 440-30 458.986-17.428 477.972-4.856 510.5 12 528.501 43.852c6.897 12.204 42.974 11.603 54.934 7.15l38.691-9.376A38.335 38.335 0 0 0 651.93 8.839l6.319-51.72c-.568-6.318-6.973-19.296-11.519-26.102C621-107.5 590-132.5 552.811-154.957z" transform="rotate(-1.729 19943.376 -32410.325)" style="display:block" id="M"/><path fill="#FFC7B8" d="M552.811-154.957c-14.873-8.982-34.962-11.237-52.179-1.891l-28.256 15.339a51.11 51.11 0 0 0-25.616 34.316l-7.98 37.63C434.57-49.714 440-30 458.986-17.428 477.972-4.856 510.5 12 528.501 43.852c6.897 12.204 42.974 11.603 54.934 7.15l38.691-9.376A38.335 38.335 0 0 0 651.93 8.839l6.319-51.72c-.568-6.318-6.973-19.296-11.519-26.102C621-107.5 590-132.5 552.811-154.957z" transform="rotate(-6.966 5759.878 -7826.362)" style="display:block" id="N"/><path fill="#CC348D" d="M745.232-224.137c-.304-28.44 22.505-51.741 50.945-52.045 28.44-.304 51.741 22.506 52.045 50.946.304 28.44-22.505 51.74-50.945 52.044-28.44.304-51.741-22.505-52.045-50.945z" transform="rotate(-3.225 11773.017 -18195.726)" style="display:block" id="O"/><path fill="#0084C2" d="M732.862-124.382c4.759-25.473 29.266-42.264 54.739-37.505s42.265 29.265 37.506 54.738-29.266 42.265-54.739 37.506-42.265-29.266-37.506-54.739z" transform="rotate(3.225 -9135.546 18467.86)" style="display:block" id="P"/><path fill="#AFD5E0" d="M750.527-172.52c-2.856 6.832 153.036 310.917-59.97 264.614s1.1-278.504 4.916-287.632c3.816-9.128 19.234-11.375 34.437-5.019 15.203 6.356 24.433 18.909 20.617 28.037z" transform="rotate(-6.449 6505.285 -9054.674)" style="display:block" id="Q"/><path fill="#CC348D" d="M745.232-224.137c-.304-28.44 22.505-51.741 50.945-52.045 28.44-.304 51.741 22.506 52.045 50.946.304 28.44-22.505 51.74-50.945 52.044-28.44.304-51.741-22.505-52.045-50.945z" transform="rotate(-5.989 6934.078 -9712.103)" style="display:block" id="R"/><path fill="#0084C2" d="M732.862-124.382c4.759-25.473 29.266-42.264 54.739-37.505s42.265 29.265 37.506 54.738-29.266 42.265-54.739 37.506-42.265-29.266-37.506-54.739z" transform="rotate(5.989 -4300.438 9982.162)" style="display:block" id="S"/><path fill="#AFD5E0" d="M750.527-172.52c-2.856 6.832 153.036 310.917-59.97 264.614s1.1-278.504 4.916-287.632c3.816-9.128 19.234-11.375 34.437-5.019 15.203 6.356 24.433 18.909 20.617 28.037z" transform="rotate(-11.978 4080.432 -4797.177)" style="display:block" id="T"/><path fill="#CC348D" d="M745.232-224.137c-.304-28.44 22.505-51.741 50.945-52.045 28.44-.304 51.741 22.506 52.045 50.946.304 28.44-22.505 51.74-50.945 52.044-28.44.304-51.741-22.505-52.045-50.945z" transform="rotate(-.044 776472.435 -1359459.36)" style="display:block" id="U"/><path fill="#0084C2" d="M732.862-124.382c4.759-25.473 29.266-42.264 54.739-37.505s42.265 29.265 37.506 54.738-29.266 42.265-54.739 37.506-42.265-29.266-37.506-54.739z" transform="rotate(.044 -773799.82 1359751.414)" style="display:block" id="V"/><path fill="#AFD5E0" d="M750.527-172.52c-2.856 6.832 153.036 310.917-59.97 264.614s1.1-278.504 4.916-287.632c3.816-9.128 19.234-11.375 34.437-5.019 15.203 6.356 24.433 18.909 20.617 28.037z" transform="rotate(-.088 388630.82 -679499.988)" style="display:block" id="W"/><path fill="#CC348D" d="M745.232-224.137c-.304-28.44 22.505-51.741 50.945-52.045 28.44-.304 51.741 22.506 52.045 50.946.304 28.44-22.505 51.74-50.945 52.044-28.44.304-51.741-22.505-52.045-50.945z" transform="rotate(-5.989 6934.078 -9712.103)" style="display:block" id="X"/><path fill="#0084C2" d="M732.862-124.382c4.759-25.473 29.266-42.264 54.739-37.505s42.265 29.265 37.506 54.738-29.266 42.265-54.739 37.506-42.265-29.266-37.506-54.739z" transform="rotate(5.989 -4300.438 9982.162)" style="display:block" id="Y"/><path fill="#AFD5E0" d="M750.527-172.52c-2.856 6.832 153.036 310.917-59.97 264.614s1.1-278.504 4.916-287.632c3.816-9.128 19.234-11.375 34.437-5.019 15.203 6.356 24.433 18.909 20.617 28.037z" transform="rotate(-11.976 4080.956 -4798.09)" style="display:block" id="Z"/><path fill="#FFF" d="M638.033-169.849c-41.207 112.587-110.385 302.331-170.99 469.348-11.827 32.594-21.429 51.144-71.04 55.59-84.82 7.601-163.41 13.29-252.041 16.588-15.917.592-33.228-11.412-36.908-42.619-14.53-123.235-31.678-302.891-47.058-481.524-2.828-32.845 23.041-69.646 70.892-70.091 112.027-1.042 349.193-14.511 455.264-10.36 34.205 1.339 62.292 34.624 51.881 63.068z" transform="rotate(-145 914.887 215.665) scale(.5)" style="display:block" id="aa"/><path fill="#FFF" d="M615.125 597.383S518.546 449.096 506.719 481.69c-11.827 32.594-61.105-131.047-110.716-126.601-84.82 7.601-163.41 13.29-252.041 16.588-15.917.592-33.228-11.412-36.908-42.619-14.53-123.235-31.678-302.891-47.058-481.524-2.828-32.845 23.041-69.646 70.892-70.091 112.027-1.042 349.193-14.511 455.264-10.36 34.205 1.339 62.292 34.624 51.881 63.068C596.826-57.262 923.151 9.427 923.151 9.427s83.359 177.85 82.666 179.759c-.334.919-390.692 408.197-390.692 408.197z" transform="rotate(-145 914.887 215.665) scale(.5)" style="display:block" id="ad"/><path fill="#FFF" d="M412.599 78.212c-6.132 3.04-7.257 9.111-7.45 10.036l-2.078 9.955c-.804 3.852 1.678 7.626 5.543 8.43l7.348 1.528c7.924 1.648 15.683-3.417 17.331-11.313.495-2.371 3.308-16.424 3.308-16.424s-16.193-6.083-24.002-2.212zm-14.702-3.734c3.902 5.915 3.593 9.268 3.279 11.761-.411 3.262-1.961 10.655-1.961 10.655-.863 4.124-4.939 6.767-9.102 5.904l-7.271-1.508c-8.179-1.696-13.434-9.638-11.738-17.74.661-3.158 3.897-16.189 3.897-16.189s19.186 1.492 22.896 7.117z" transform="rotate(-.773 44097.058 -72757.563)" style="display:block" id="ab"/><path fill="#FFF" d="M412.599 78.212c-6.132 3.04-7.257 9.111-7.45 10.036l-2.078 9.955c-.804 3.852 1.678 7.626 5.543 8.43l7.348 1.528c7.924 1.648 15.683-3.417 17.331-11.313.495-2.371 3.308-16.424 3.308-16.424s-16.193-6.083-24.002-2.212zm-14.702-3.734c3.902 5.915 3.593 9.268 3.279 11.761-.411 3.262-1.961 10.655-1.961 10.655-.863 4.124-4.939 6.767-9.102 5.904l-7.271-1.508c-8.179-1.696-13.434-9.638-11.738-17.74.661-3.158 3.897-16.189 3.897-16.189s19.186 1.492 22.896 7.117z" transform="rotate(-.773 44097.058 -72757.563)" style="display:block" id="ac"/><path fill="#FFF" d="M638.033-169.849c-41.207 112.587-110.385 302.331-170.99 469.348-11.827 32.594-21.429 51.144-71.04 55.59-84.82 7.601-163.41 13.29-252.041 16.588-15.917.592-33.228-11.412-36.908-42.619-14.53-123.235-31.678-302.891-47.058-481.524-2.828-32.845 23.041-69.646 70.892-70.091 112.027-1.042 349.193-14.511 455.264-10.36 34.205 1.339 62.292 34.624 51.881 63.068z" transform="rotate(-145 914.887 215.665) scale(.5)" style="display:block" id="ae"/><path fill="#FFF" d="M615.125 597.383S518.546 449.096 506.719 481.69c-11.827 32.594-61.105-131.047-110.716-126.601-84.82 7.601-163.41 13.29-252.041 16.588-15.917.592-33.228-11.412-36.908-42.619-14.53-123.235-31.678-302.891-47.058-481.524-2.828-32.845 23.041-69.646 70.892-70.091 112.027-1.042 349.193-14.511 455.264-10.36 34.205 1.339 62.292 34.624 51.881 63.068C596.826-57.262 923.151 9.427 923.151 9.427s83.359 177.85 82.666 179.759c-.334.919-390.692 408.197-390.692 408.197z" transform="rotate(-145 914.887 215.665) scale(.5)" style="display:block" id="ah"/><path fill="#FFF" d="M412.599 78.212c-6.132 3.04-7.257 9.111-7.45 10.036l-2.078 9.955c-.804 3.852 1.678 7.626 5.543 8.43l7.348 1.528c7.924 1.648 15.683-3.417 17.331-11.313.495-2.371 3.308-16.424 3.308-16.424s-16.193-6.083-24.002-2.212zm-14.702-3.734c3.902 5.915 3.593 9.268 3.279 11.761-.411 3.262-1.961 10.655-1.961 10.655-.863 4.124-4.939 6.767-9.102 5.904l-7.271-1.508c-8.179-1.696-13.434-9.638-11.738-17.74.661-3.158 3.897-16.189 3.897-16.189s19.186 1.492 22.896 7.117z" transform="translate(993.446 582.49)" style="display:block" id="af"/><path fill="#FFF" d="M412.599 78.212c-6.132 3.04-7.257 9.111-7.45 10.036l-2.078 9.955c-.804 3.852 1.678 7.626 5.543 8.43l7.348 1.528c7.924 1.648 15.683-3.417 17.331-11.313.495-2.371 3.308-16.424 3.308-16.424s-16.193-6.083-24.002-2.212zm-14.702-3.734c3.902 5.915 3.593 9.268 3.279 11.761-.411 3.262-1.961 10.655-1.961 10.655-.863 4.124-4.939 6.767-9.102 5.904l-7.271-1.508c-8.179-1.696-13.434-9.638-11.738-17.74.661-3.158 3.897-16.189 3.897-16.189s19.186 1.492 22.896 7.117z" transform="translate(993.446 582.49)" style="display:block" id="ag"/><path fill="#FFF" d="M638.033-169.849c-41.207 112.587-110.385 302.331-170.99 469.348-11.827 32.594-21.429 51.144-71.04 55.59-84.82 7.601-163.41 13.29-252.041 16.588-15.917.592-33.228-11.412-36.908-42.619-14.53-123.235-31.678-302.891-47.058-481.524-2.828-32.845 23.041-69.646 70.892-70.091 112.027-1.042 349.193-14.511 455.264-10.36 34.205 1.339 62.292 34.624 51.881 63.068z" transform="rotate(-145 914.887 215.665) scale(.5)" style="display:block" id="ai"/><path fill="#FFF" d="M615.125 597.383S518.546 449.096 506.719 481.69c-11.827 32.594-61.105-131.047-110.716-126.601-84.82 7.601-163.41 13.29-252.041 16.588-15.917.592-33.228-11.412-36.908-42.619-14.53-123.235-31.678-302.891-47.058-481.524-2.828-32.845 23.041-69.646 70.892-70.091 112.027-1.042 349.193-14.511 455.264-10.36 34.205 1.339 62.292 34.624 51.881 63.068C596.826-57.262 923.151 9.427 923.151 9.427s83.359 177.85 82.666 179.759c-.334.919-390.692 408.197-390.692 408.197z" transform="rotate(-145 914.887 215.665) scale(.5)" style="display:block" id="al"/><path fill="#FFF" d="M412.599 78.212c-6.132 3.04-7.257 9.111-7.45 10.036l-2.078 9.955c-.804 3.852 1.678 7.626 5.543 8.43l7.348 1.528c7.924 1.648 15.683-3.417 17.331-11.313.495-2.371 3.308-16.424 3.308-16.424s-16.193-6.083-24.002-2.212zm-14.702-3.734c3.902 5.915 3.593 9.268 3.279 11.761-.411 3.262-1.961 10.655-1.961 10.655-.863 4.124-4.939 6.767-9.102 5.904l-7.271-1.508c-8.179-1.696-13.434-9.638-11.738-17.74.661-3.158 3.897-16.189 3.897-16.189s19.186 1.492 22.896 7.117z" transform="rotate(-5 7434.471 -10806.925)" style="display:block" id="aj"/><path fill="#FFF" d="M412.599 78.212c-6.132 3.04-7.257 9.111-7.45 10.036l-2.078 9.955c-.804 3.852 1.678 7.626 5.543 8.43l7.348 1.528c7.924 1.648 15.683-3.417 17.331-11.313.495-2.371 3.308-16.424 3.308-16.424s-16.193-6.083-24.002-2.212zm-14.702-3.734c3.902 5.915 3.593 9.268 3.279 11.761-.411 3.262-1.961 10.655-1.961 10.655-.863 4.124-4.939 6.767-9.102 5.904l-7.271-1.508c-8.179-1.696-13.434-9.638-11.738-17.74.661-3.158 3.897-16.189 3.897-16.189s19.186 1.492 22.896 7.117z" transform="rotate(-5 7434.471 -10806.925)" style="display:block" id="ak"/><filter id="b" filterUnits="objectBoundingBox" x="0%" y="0%" width="100%" height="100%"><feComponentTransfer in="SourceGraphic"><feFuncA type="table" tableValues="1.0 0.0"/></feComponentTransfer></filter><filter id="f" filterUnits="objectBoundingBox" x="0%" y="0%" width="100%" height="100%"><feComponentTransfer in="SourceGraphic"><feFuncA type="table" tableValues="1.0 0.0"/></feComponentTransfer></filter><filter id="i" filterUnits="objectBoundingBox" x="0%" y="0%" width="100%" height="100%"><feComponentTransfer in="SourceGraphic"><feFuncA type="table" tableValues="1.0 0.0"/></feComponentTransfer></filter><filter id="m" filterUnits="objectBoundingBox" x="0%" y="0%" width="100%" height="100%"><feComponentTransfer in="SourceGraphic"><feFuncA type="table" tableValues="1.0 0.0"/></feComponentTransfer></filter><filter id="p" filterUnits="objectBoundingBox" x="0%" y="0%" width="100%" height="100%"><feComponentTransfer in="SourceGraphic"><feFuncA type="table" tableValues="1.0 0.0"/></feComponentTransfer></filter><filter id="t" filterUnits="objectBoundingBox" x="0%" y="0%" width="100%" height="100%"><feComponentTransfer in="SourceGraphic"><feFuncA type="table" tableValues="1.0 0.0"/></feComponentTransfer></filter><g style="display:block" id="g"><path fill="#FFF" d="M638.033-169.849c-41.207 112.587 498.002-704.754 437.397-537.737-11.827 32.594-744.654 15.526-794.265 19.972-84.82 7.601-1090.514 743.028-1179.146 746.325-15.917.593 94.439 209.272 90.759 178.065-14.53-123.236 483.127-306.895 467.747-485.528-1.182-13.726 402.119 68.144 410.47 55.978 11.633-16.946 32.039-29.524 59.893-29.783 112.027-1.042 349.193-14.511 455.264-10.36 34.205 1.339 62.291 34.624 51.881 63.068z" transform="rotate(-145 914.887 215.665) scale(.5)"/><path fill-opacity="0" stroke="#9DEEC7" stroke-width="6.5" d="M1230.584 803.67C1279.75 769.375 824.5 949.5 897.22 898.474c14.192-9.958 309.445 207.2 331.04 219.606 36.92 21.212 659.74 8.42 696.987 32.488 6.69 4.322 21.337-112.796 13.894-98.96-29.391 54.642-285.89-12.858-330.821 64.717-3.453 5.96-145.156-143.233-152.065-140.645-9.625 3.604-21.59 2.904-33.072-4.979-46.183-31.7-147.183-94.2-189.437-126.32-13.625-10.359-15.583-32.046-3.162-40.71z"/></g><g style="display:block" id="d"><path fill="#DB8D74" d="M521.5 303c-16.5 11-42 12.5-66 13.5s-53.834 22.53-51 52c2.5 26 27.5 43 54.5 43.5 30.012.556 61-2.5 100.5-24s36.5-55.5 23.5-77-45-19-61.5-8z" transform="rotate(-6 6207.043 -8631.536)"/><path fill-opacity="0" stroke="#3D3D3D" stroke-width="2" d="M1486.56 848.357c-15.26 12.664-40.464 16.822-64.228 20.325-23.764 3.503-51.184 28.034-45.285 57.046 5.204 25.596 31.844 39.89 58.748 37.565 29.906-2.584 60.405-8.863 97.441-34.374 37.036-25.51 30.499-59.011 15.323-79.034-15.177-20.024-46.74-14.193-62-1.528z"/></g><g style="display:block" id="n"><path fill="#FFF" d="M638.033-169.849c-41.207 112.587 498.002-704.754 437.397-537.737-11.827 32.594-744.654 15.526-794.265 19.972-84.82 7.601-1090.514 743.028-1179.146 746.325-15.917.593 94.439 209.272 90.759 178.065-14.53-123.236 483.127-306.895 467.747-485.528-1.182-13.726 402.119 68.144 410.47 55.978 11.633-16.946 32.039-29.524 59.893-29.783 112.027-1.042 349.193-14.511 455.264-10.36 34.205 1.339 62.291 34.624 51.881 63.068z" transform="rotate(-145 914.887 215.665) scale(.5)"/><path fill-opacity="0" stroke="#9DEEC7" stroke-width="6.5" d="M1230.584 803.67C1279.75 769.375 824.5 949.5 897.22 898.474c14.192-9.958 309.445 207.2 331.04 219.606 36.92 21.212 659.74 8.42 696.987 32.488 6.69 4.322 21.337-112.796 13.894-98.96-29.391 54.642-285.89-12.858-330.821 64.717-3.453 5.96-145.156-143.233-152.065-140.645-9.625 3.604-21.59 2.904-33.072-4.979-46.183-31.7-147.183-94.2-189.437-126.32-13.625-10.359-15.583-32.046-3.162-40.71z"/></g><g style="display:block" id="k"><path fill="#DB8D74" d="M521.5 303c-16.5 11-42 12.5-66 13.5s-53.834 22.53-51 52c2.5 26 27.5 43 54.5 43.5 30.012.556 61-2.5 100.5-24s36.5-55.5 23.5-77-45-19-61.5-8z" transform="rotate(-6 6207.043 -8631.536)"/><path fill-opacity="0" stroke="#3D3D3D" stroke-width="2" d="M1486.56 848.357c-15.26 12.664-40.464 16.822-64.228 20.325-23.764 3.503-51.184 28.034-45.285 57.046 5.204 25.596 31.844 39.89 58.748 37.565 29.906-2.584 60.405-8.863 97.441-34.374 37.036-25.51 30.499-59.011 15.323-79.034-15.177-20.024-46.74-14.193-62-1.528z"/></g><g style="display:block" id="u"><path fill="#FFF" d="M638.033-169.849c-41.207 112.587 498.002-704.754 437.397-537.737-11.827 32.594-744.654 15.526-794.265 19.972-84.82 7.601-1090.514 743.028-1179.146 746.325-15.917.593 94.439 209.272 90.759 178.065-14.53-123.236 483.127-306.895 467.747-485.528-1.182-13.726 402.119 68.144 410.47 55.978 11.633-16.946 32.039-29.524 59.893-29.783 112.027-1.042 349.193-14.511 455.264-10.36 34.205 1.339 62.291 34.624 51.881 63.068z" transform="rotate(-145 914.887 215.665) scale(.5)"/><path fill-opacity="0" stroke="#9DEEC7" stroke-width="6.5" d="M1230.584 803.67C1279.75 769.375 824.5 949.5 897.22 898.474c14.192-9.958 309.445 207.2 331.04 219.606 36.92 21.212 659.74 8.42 696.987 32.488 6.69 4.322 21.337-112.796 13.894-98.96-29.391 54.642-285.89-12.858-330.821 64.717-3.453 5.96-145.156-143.233-152.065-140.645-9.625 3.604-21.59 2.904-33.072-4.979-46.183-31.7-147.183-94.2-189.437-126.32-13.625-10.359-15.583-32.046-3.162-40.71z"/></g><g style="display:block" id="r"><path fill="#DB8D74" d="M521.5 303c-16.5 11-42 12.5-66 13.5s-53.834 22.53-51 52c2.5 26 27.5 43 54.5 43.5 30.012.556 61-2.5 100.5-24s36.5-55.5 23.5-77-45-19-61.5-8z" transform="translate(975 551.5)"/><path fill-opacity="0" stroke="#3D3D3D" stroke-width="2" d="M1496.5 854.5c-16.5 11-42 12.5-66 13.5s-53.834 22.53-51 52c2.5 26 27.5 43 54.5 43.5 30.012.556 61-2.5 100.5-24s36.5-55.5 23.5-77-45-19-61.5-8z"/></g><linearGradient id="bj" spreadMethod="pad" gradientUnits="userSpaceOnUse" x1="475" y1="-110.003" x2="566.067" y2="-38.825"><stop offset="0%" stop-color="#FFA75F"/><stop offset="50%" stop-color="#FFB78B"/><stop offset="100%" stop-color="#FFC7B8"/></linearGradient><linearGradient id="bf" spreadMethod="pad" gradientUnits="userSpaceOnUse" x1="475" y1="-110.003" x2="566.067" y2="-38.825"><stop offset="0%" stop-color="#FFA75F"/><stop offset="50%" stop-color="#FFB78B"/><stop offset="100%" stop-color="#FFC7B8"/></linearGradient><linearGradient id="bb" spreadMethod="pad" gradientUnits="userSpaceOnUse" x1="475" y1="-110.003" x2="566.067" y2="-38.825"><stop offset="0%" stop-color="#FFA75F"/><stop offset="50%" stop-color="#FFB78B"/><stop offset="100%" stop-color="#FFC7B8"/></linearGradient></defs><g clip-path="url(#am)"><g clip-path="url(#au)" style="display:block" transform="matrix(-1 0 0 1 1916 -23.5)"><g style="display:block"><path fill="#58CC02" d="M1230.485 803.743c49.265-34.368 132.015-92.243 204.643-143.202 2.002-1.405 3.906-2.71 5.76-3.878 4.8-3.029 9.266-5.15 14.243-5.77 6.718-.835 14.365 1.067 25.027 7.176 36.967 21.181 70.905 41.494 108.168 65.572 4.658 3.01 6.174 7.172 6.757 10.689.983 5.927-.897 11.436-3.946 17.277-3.012 5.768-6.232 11.558-9.996 18.377C1550.5 825.5 1502 911.25 1472.57 961.824c-4.698 8.072-10.57 15.176-16.747 21.73-4.887 5.184-14.269 14.656-20.551 18.658-11.597 7.387-24.773 4.218-34.089-2.01C1359.001 972 1261.5 906.5 1219.247 875.38c-8.648-6.368-11.976-19.711-10.496-25.73 2.25-9.15 4.91-17.376 8.08-24.263 3.17-6.887 7.327-17.231 13.654-21.644z"/><path stroke="#58CC02" stroke-width="6.5" d="M1230.485 803.743c49.265-34.368 132.015-92.243 204.643-143.202 2.002-1.405 3.906-2.71 5.76-3.878 4.8-3.029 9.266-5.15 14.243-5.77 6.718-.835 14.365 1.067 25.027 7.176 36.967 21.181 70.905 41.494 108.168 65.572 4.658 3.01 6.174 7.172 6.757 10.689.983 5.927-.897 11.436-3.946 17.277-3.012 5.768-6.232 11.558-9.996 18.377C1550.5 825.5 1502 911.25 1472.57 961.824c-4.698 8.072-10.57 15.176-16.747 21.73-4.887 5.184-14.269 14.656-20.551 18.658-11.597 7.387-24.773 4.218-34.089-2.01C1359.001 972 1261.5 906.5 1219.247 875.38c-8.648-6.368-11.976-19.711-10.496-25.73 2.25-9.15 4.91-17.376 8.08-24.263 3.17-6.887 7.327-17.231 13.654-21.644z" fill="none"/><path fill="#FFF" d="M1230.584 803.67c49.166-34.295 131.916-92.17 204.637-143.195 14.192-9.958 23.444-14.802 45.039-2.395 36.92 21.212 70.74 41.42 107.987 65.488 6.69 4.322 10.337 14.203 2.894 28.04-29.391 54.642-73.89 133.142-118.821 210.717-8.262 14.263-29.411 21.917-49.137 8.376-46.183-31.7-147.183-94.2-189.437-126.32-13.625-10.359-15.583-32.046-3.162-40.71z"/><path stroke="#9DEEC7" stroke-width="6.5" d="M1230.584 803.67c49.166-34.295 131.916-92.17 204.637-143.195 14.192-9.958 23.444-14.802 45.039-2.395 36.92 21.212 70.74 41.42 107.987 65.488 6.69 4.322 10.337 14.203 2.894 28.04-29.391 54.642-73.89 133.142-118.821 210.717-8.262 14.263-29.411 21.917-49.137 8.376-46.183-31.7-147.183-94.2-189.437-126.32-13.625-10.359-15.583-32.046-3.162-40.71z" fill="none"/></g><g mask="url(#av)" style="display:block"><g clip-path="url(#aw)"><path fill="#A175F9" d="M313.521 147.266a4.996 4.996 0 0 1-2.476-6.589l35.505-79.229c12.52-26.807 39.038-43.041 67.437-37.268 27.928 5.677 46.166 30.165 46.598 59.638l2.639 84.3a5.001 5.001 0 0 1-4.581 5.139c-10.243.872-36.172 2.236-68.29-2.346-33.359-4.759-65.34-18.373-76.832-23.645z" transform="rotate(-2 17467.06 -27716.914)" style="display:block"/><g style="display:block"><path fill="#A570FF" d="M1338.56 765.362c3.198-6.777 13.658-9.569 20.434-6.37 6.777 3.198 12.601 14.32 9.402 21.097 0 0-7.154 18.487-13.46 29.564-5.548 9.741-13.563 20.817-13.563 20.817-6.31 7.193-11.287 9.677-18.064 6.478-6.776-3.199-9.678-11.286-6.478-18.064 0 0 6.428-13.255 10.75-23.898 4.32-10.643 10.979-29.624 10.979-29.624z"/><path fill="#593F86" d="M1338.56 765.362s8.94-30.22 12.04-56.55l36.238 6.945c-1.242 25.693-17.723 62.777-17.723 62.777-3.064 1.446-13.544 3.84-20.4.603-6.296-2.971-9.374-10.707-10.155-13.775z"/><path fill="#FFC6B7" d="M1388.285 763.901c-1.1 5.437-6.4 8.952-11.836 7.85-5.436-1.1-8.951-6.399-7.85-11.835 1.1-5.436 6.4-8.95 11.836-7.85 5.436 1.101 8.951 6.4 7.85 11.835z"/><path fill="#593F86" d="m1371.338 706.12-52.203 20.217c-12.317 4.77-10.883 22.639 2.036 25.384l78.033 16.582c12.958 2.754 21.522-13.076 12.128-22.416l-39.994-39.768z"/><path fill="#FFC6B7" d="M1364.087 736.69c-6.095-5.788-8.692-9.736-13.36-10.68-4.581-.928-9.055 1.43-11.01 5.447 5 1.083 17.181 3.689 24.37 5.233z"/></g><path fill="#FFC6B7" d="m450.219 91.603 4.291.88c6.08 1.246 9.998 7.024 8.752 12.907-1.246 5.883-7.186 9.642-13.266 8.396l-4.291-.879c-6.08-1.246-9.999-7.024-8.752-12.907 1.247-5.883 7.186-9.643 13.266-8.397zm-33.5-59.289c24.256 5.058 40.846 27.56 38.541 52.277l-5.116 39.92c-2.524 13.181-12.859 21.445-25.152 20.885-12.066-.55-19.554-1.305-35.019-2.624-15.465-1.319-26.56-9.131-26.56-9.131-12.999-2.711-21.339-15.466-18.628-28.489a24.11 24.11 0 0 1 .936-3.302l13.566-37.444c8.519-23.515 32.991-37.189 57.432-32.092z" transform="rotate(2 -15619.475 28436.48)" style="display:block"/><path fill="#FFF" d="M412.599 78.212c-6.132 3.04-7.257 9.111-7.45 10.036l-2.078 9.955c-.804 3.852 1.678 7.626 5.543 8.43l7.348 1.528c7.924 1.648 15.683-3.417 17.331-11.313.495-2.371 3.308-16.424 3.308-16.424s-16.193-6.083-24.002-2.212zm-14.702-3.734c3.902 5.915 3.593 9.268 3.279 11.761-.411 3.262-1.961 10.655-1.961 10.655-.863 4.124-4.939 6.767-9.102 5.904l-7.271-1.508c-8.179-1.696-13.434-9.638-11.738-17.74.661-3.158 3.897-16.189 3.897-16.189s19.186 1.492 22.896 7.117z" transform="translate(993.446 582.49)" style="display:block"/><g mask="url(#ax)" style="display:block"><path fill="#3D3D3D" d="M1427.571 674.395c-.835 3.771-4.193 5.962-7.704 5.218-3.51-.744-5.708-4.292-5.012-7.91.696-3.62 1.9-9.772 1.9-9.772l12.948 2.075s-1.297 6.618-2.132 10.39zm-33.024-5.888c-.743 4.28-4.193 5.962-7.704 5.218-3.51-.744-5.649-4.519-5.012-7.91.653-3.477.66-2.688.66-2.688l12.504 2.142s.295-1.042-.448 3.238z"/></g><g mask="url(#ay)" style="display:block"><path fill="#A570FF" d="m1433.962 660.105-2.554 16.345-70.392-12.937 3.703-17.553 69.243 14.145z"/></g><path fill="#FFC6B7" d="M392.238 134.582a27.84 27.84 0 0 1 .557-7.168c3.172-15.155 18.137-24.871 33.426-21.7 4.08.846 7.06 2.538 9.233 4.487 5.034 4.515-43.121 26.188-43.216 24.381z" transform="translate(993.446 582.49)" style="display:block"/><path fill="#EE9583" d="M404.942 119.172c5.947-7.414 11.462-9.776 16.117-6.04.85.682.993 1.938.319 2.804a1.942 1.942 0 0 1-2.757.333c-2.469-1.981-5.872-.523-10.64 5.42a1.942 1.942 0 0 1-2.762.291 2.018 2.018 0 0 1-.277-2.808zm-7.456-4.456c3.258.67 6.439-1.349 7.106-4.511.667-3.162-3.654-11.853-3.654-11.853l-.905.784c-2.011 1.78-6.716 6.163-7.239 8.641-.667 3.162 1.434 6.268 4.692 6.939z" transform="rotate(2 -15784.73 28850.68)" style="display:block"/><path fill="#A570FF" d="M317.487 151.331c14.939-40.032 33.041-127.467 89.887-122.518.776.068 3.902.908 4.362 1.656 6.887 11.194-19.389 95.858-23.92 117.252-.547 2.583-2.975 3.862-5.614 3.912-18.096.341-50.479.01-64.715-.302zM428.486 34.052c17.261 6.726 29.208 23.333 28.949 47.181l-24.047-5.143c-19.329-4.022-23.631-20.569-23.492-40.632l-7.272-6.423c8.329-.365 18.488 2.143 25.862 5.017z" transform="rotate(2 -15619.475 28436.48)" style="display:block"/></g></g><g mask="url(#az)" style="display:block"><g clip-path="url(#aA)"><path fill="#E6A000" d="M0-59.292c32.723 0 59.292 26.569 59.292 59.292S32.723 59.292 0 59.292-59.292 32.723-59.292 0-32.723-59.292 0-59.292z" transform="matrix(.38973 .12663 -.0618 .19021 1493.225 685.26)" style="display:block"/><g style="display:block"><path fill="#FFC700" d="M1479.054 669.314c9.753-2.106 24.531 2.008 33.007 9.188 8.475 7.18 7.44 14.708-2.315 16.814-9.753 2.106-24.531-2.007-33.007-9.188-8.475-7.18-7.439-14.708 2.315-16.814z"/><path fill="#FFE700" d="M1506.04 676.633a28.068 28.068 0 0 1 3.133 2.286c1.821 1.542 3.122 3.104 3.912 4.604.165.313-.197.356-.652.456-4.6 1.008-22.786 4.933-25.267 5.457-.34.072-.928.213-1.803-.188-2.292-1.052-4.25-2.435-5.976-3.898a19.501 19.501 0 0 1-2.538-2.554c-.142-.175-.415-.45.61-.672 4.43-.957 20.728-4.438 26.91-5.773.817-.177 1.297.045 1.672.282zm-24.7-5.462c5.383-1.163 12.583-.078 18.92 2.509.45.184 1.581.769.25 1.082-1.333.313-21.493 4.574-23.888 5.091-1.403.303-1.725-.438-1.795-.671-1.11-3.721 1.123-6.847 6.512-8.011z"/></g><path fill="#E6A000" d="M0-59.292c32.723 0 59.292 26.569 59.292 59.292S32.723 59.292 0 59.292-59.292 32.723-59.292 0-32.723-59.292 0-59.292z" transform="matrix(.4813 .24524 -.13166 .2584 1514.025 734.632)" style="display:block"/><g style="display:block"><path fill="#FFC700" d="M1499.117 709.767c13.434-1.32 31.865 7.007 41.167 18.597 9.302 11.59 5.953 22.057-7.48 23.377-13.434 1.32-31.865-7.007-41.167-18.597-9.302-11.59-5.953-22.057 7.48-23.377z"/><path fill="#FFE700" d="M1532.827 724.7a34.675 34.675 0 0 1 3.535 3.763c1.998 2.49 3.304 4.919 3.953 7.173.136.47-.354.47-.98.534-6.34.643-31.386 3.102-34.8 3.422-.468.043-1.283.143-2.332-.573-2.75-1.876-4.97-4.164-6.865-6.525-1.101-1.373-1.992-2.727-2.679-4.043-.142-.271-.43-.707.982-.846 6.102-.6 28.537-2.752 37.053-3.588 1.125-.111 1.7.283 2.133.682zm-31.18-11.92c7.415-.728 16.636 2.03 24.322 6.762.546.337 1.887 1.356.046 1.572-1.841.217-29.584 2.815-32.882 3.14-1.932.19-2.162-.914-2.193-1.255-.487-5.449 3.284-9.489 10.706-10.218z"/></g><path fill="#E6A000" d="M0-59.292c32.723 0 59.292 26.569 59.292 59.292S32.723 59.292 0 59.292-59.292 32.723-59.292 0-32.723-59.292 0-59.292z" transform="matrix(.6486 .38971 -.22476 .37406 1500.135 794.898)" style="display:block"/><g style="display:block"><path fill="#FFC700" d="M1482.475 757.503c19.29-1.18 44.282 12.171 55.821 29.82 11.54 17.65 5.256 32.914-14.034 34.095-19.29 1.18-44.282-12.171-55.821-29.82-11.54-17.65-5.256-32.914 14.034-34.095z"/><path fill="#FFE700" d="M1528.227 781.484a46.427 46.427 0 0 1 4.478 5.761c2.48 3.791 3.983 7.453 4.578 10.82.125.703-.572.674-1.472.732-9.107.587-45.072 2.785-49.973 3.061-.67.038-1.843.139-3.23-.98-3.636-2.926-6.46-6.434-8.81-10.029-1.367-2.09-2.437-4.14-3.222-6.123-.162-.409-.509-1.069 1.52-1.193 8.761-.536 40.97-2.43 53.198-3.18 1.616-.098 2.376.517 2.933 1.131zm-42.595-19.386c10.65-.651 23.358 3.948 33.597 11.378.727.528 2.484 2.11-.165 2.324-2.648.214-42.467 2.464-47.203 2.754-2.775.17-2.942-1.473-2.935-1.979.099-8.074 6.049-13.825 16.706-14.477z"/></g><path fill="#E6A000" d="M0-59.292c32.723 0 59.292 26.569 59.292 59.292S32.723 59.292 0 59.292-59.292 32.723-59.292 0-32.723-59.292 0-59.292z" transform="matrix(.68536 .4799 -.32116 .45866 1420.606 831.336)" style="display:block"/><g style="display:block"><path fill="#FFC700" d="M1406.454 784.874c22.482-1.404 49.164 15.042 59.597 36.735 10.432 21.692.663 40.415-21.819 41.82-22.482 1.404-49.164-15.043-59.597-36.735-10.432-21.692-.663-40.416 21.819-41.82z"/><path fill="#FFE700" d="M1455.376 814.418a47.284 47.284 0 0 1 4.228 7.082c2.24 4.66 3.377 9.157 3.511 13.292.028.863-.772.826-1.822.895-10.618.7-52.534 3.315-58.242 3.643-.78.044-2.152.165-3.572-1.21-3.72-3.602-6.406-7.914-8.531-12.332-1.236-2.57-2.135-5.088-2.716-7.525-.12-.502-.412-1.313 1.952-1.46 10.21-.638 47.738-2.89 61.989-3.78 1.883-.118 2.66.639 3.203 1.395zm-46.03-23.896c12.412-.776 26.34 4.9 36.949 14.044.754.65 2.524 2.596-.572 2.852-3.095.257-49.473 2.927-54.992 3.272-3.235.202-3.157-1.815-3.067-2.436 1.442-9.91 9.261-16.956 21.683-17.732z"/></g><path fill="#E6A000" d="M0-59.292c32.723 0 59.292 26.569 59.292 59.292S32.723 59.292 0 59.292-59.292 32.723-59.292 0-32.723-59.292 0-59.292z" transform="matrix(.81915 .57358 -.43018 .61436 1303.57 843.462)" style="display:block"/><g style="display:block"><path fill="#FFC700" d="M1289.189 784.783c28.033-3.338 60.076 16.103 71.57 43.422 11.493 27.32-1.915 52.173-29.948 55.511-28.033 3.339-60.076-16.102-71.57-43.422-11.493-27.32 1.915-52.173 29.948-55.511z"/><path fill="#FFE700" d="M1347.981 819.638a53.725 53.725 0 0 1 4.773 8.863c2.47 5.869 3.577 11.603 3.463 16.936-.023 1.113-1.016 1.12-2.325 1.28-13.243 1.624-65.508 7.844-72.623 8.654-.973.11-2.685.36-4.357-1.32-4.378-4.402-7.424-9.79-9.765-15.355-1.362-3.236-2.308-6.43-2.865-9.538-.115-.64-.423-1.669 2.524-2.02 12.733-1.516 59.52-6.969 77.29-9.085 2.347-.28 3.261.645 3.885 1.585zm-55.58-27.754c15.475-1.843 32.399 4.545 44.963 15.641.892.788 2.96 3.183-.904 3.724-3.864.542-61.677 7.135-68.56 7.954-4.032.48-3.8-2.13-3.645-2.939 2.463-12.903 12.658-22.536 28.146-24.38z"/></g></g></g><path stroke="#9DEEC7" stroke-width="13" d="M396.003 355.089c-84.82 7.601-163.41 13.29-252.041 16.588-15.917.592-33.228-11.412-36.908-42.619-14.53-123.235-31.678-302.891-47.058-481.524-2.828-32.845 23.041-69.646 70.892-70.091 112.027-1.042 349.193-14.511 455.264-10.36" fill="none" transform="rotate(-145 914.887 215.665) scale(.5)" style="display:block"/></g><g clip-path="url(#aM)" style="display:block" transform="matrix(-1 0 0 1 1976 -43.5)"><g style="display:block"><path stroke-linecap="round" stroke-miterlimit="10" stroke="#CC348D" stroke-width="23" d="M1751.89 383.898c-.024-15.162 31.07-13.008 47.359 5.714" fill="none"/><path fill="#C6775C" d="M1767.052 383.875c.013 8.374-6.766 15.172-15.14 15.185-8.374.012-15.172-6.765-15.185-15.14-.012-8.373 6.765-15.173 15.14-15.185 8.373-.013 15.172 6.766 15.185 15.14z"/><path fill="#5EC6FF" d="M1784.24 416.632c-3.802 9.134-19.217 11.405-34.43 5.072-15.212-6.333-24.461-18.872-20.659-28.006 3.802-9.134 20.62-24.104 39.143-16.393 18.657 7.766 19.748 30.194 15.946 39.327z"/><path fill="#0084C2" d="M1784.24 416.632c-3.802 9.134-19.217 11.405-34.43 5.072-15.212-6.333-24.461-18.872-20.659-28.006 3.802-9.134 19.217-11.404 34.43-5.071 15.212 6.333 24.461 18.872 20.659 28.005z"/><path fill="#FFCC76" d="M1763.58 388.627c-8.63-3.593-17.321-4.414-23.924-2.787-.404 5.73-3.19 12.072-3.881 13.58-.051.115-.112.223-.16.34-2.483 6.055.367 12.974 6.412 15.477 4.379 1.814 9.214.797 12.503-2.194a13.219 13.219 0 0 0 5.905 4.816c6.783 2.809 14.559-.412 17.368-7.195 1.365-3.295 2.826-5.71 4.276-7.56-3.58-5.637-10.134-10.995-18.499-14.477z"/></g><g mask="url(#aN)" style="display:block"><path stroke-linecap="round" stroke-miterlimit="10" stroke="#FFCC76" stroke-width="4.148" d="M1812.325 312.82c-15.438 4.698-37.87 25.571-29.232 31.159 8.638 5.587 21.297-23.467 44.684-14.615m-19.706 6.884c-12.056 5.036-21.483 18.276-34.872 37.439m36.256-31.428c-5.575 4.587-8.476 6.903-15.503 15.835-7.027 8.931-15.614 17.412-20.266 29.315" fill="none"/></g><path fill="#0084C2" d="M732.862-124.382c4.759-25.473 29.266-42.264 54.739-37.505s42.265 29.265 37.506 54.738-29.266 42.265-54.739 37.506-42.265-29.266-37.506-54.739z" transform="rotate(.044 -773799.82 1359751.414)" style="display:block"/><g mask="url(#aO)" style="display:block"><path fill="#006AAD" d="M1858.89 507.224c-17.238-.116-34.418-1.32-50.909-16.557l-6.913.996c19.872 19.583 40.706 20.956 52.203 20.463a47.202 47.202 0 0 0 5.618-4.902z"/><path fill="#C6775C" d="M1790.76 420.604c3.17-16.317 18.917-27.013 35.253-23.948 16.41 3.08 27.22 18.879 24.14 35.29l-6.719 35.812c-.765 4.075-3.367 7.575-7.07 9.44-15.25 7.681-27.249 13.097-31.781 15.104a3.209 3.209 0 0 1-3.535-.606c-8.853-8.499-14.526-18.594-17.12-23.855-1.144-2.318-1.386-4.946-.893-7.484l7.724-39.753z"/><path stroke-linecap="round" stroke="#FFF" stroke-width="20.813" d="m1793.106 462.387 1.931-8.599m21.347 13.493 1.173-6.26" fill="none"/><path stroke-linecap="round" stroke="#3D3D3D" stroke-width="9.4" d="M1814.528 464.786s-.91 2.574-.912 5.106m-19.562-10.734s-.256 3.311-1.46 5.674" fill="none"/><path fill="#FFF" d="M1788.87 462.988c1.78.737 2.826 3.278 1.96 5.026-3.56 7.564-9.72-7.064-1.96-5.026zm19.993 6.126c2.083.425 3.57 2.3 2.922 4.535-2.285 4.87-6.633-3.646-2.922-4.535z"/><path fill="#C6775C" d="M1795.55 451.21a6.295 6.295 0 1 1 12.334 2.509 6.295 6.295 0 0 1-12.334-2.51z"/></g><path stroke-linecap="round" stroke="#3D3D3D" stroke-width="46.998" d="M806.508-160.321c-17.756 5.031-37.78.251-40.643-7.859" fill="none" transform="translate(1033.96 589.47)" style="display:block"/><path fill="#FFF" d="m756.151-159.828.792-1.802a5.805 5.805 0 0 1 10.63 4.672l-.792 1.802a5.805 5.805 0 0 1-10.63-4.672z" transform="translate(1034.084 589.596)" style="display:block"/><path fill="#CC348D" d="M745.232-224.137c-.304-28.44 22.505-51.741 50.945-52.045 28.44-.304 51.741 22.506 52.045 50.946.304 28.44-22.505 51.74-50.945 52.044-28.44.304-51.741-22.505-52.045-50.945z" transform="rotate(-.044 776472.435 -1359459.36)" style="display:block"/><path stroke-linecap="round" stroke-linejoin="round" stroke="#CC348D" stroke-width="23" d="M825.772-199.387s8.413 6.579 6.797 11.61c-3.893 12.125-34.673 15.5-34.673 15.5" fill="none" transform="rotate(-.044 776472.435 -1359459.36)" style="display:block"/><g mask="url(#aP)" style="display:block"><path fill="#0084C2" d="M1766.1 348.523c3.553-24.694 20.132-45.86 61.953-46.21 41.822-.35 80.236 16.43 71.837 41.34-6.54 19.397-28.426 37.148-74.848 33.295-44.283-3.677-59.317-25.82-58.942-28.425z"/><path stroke="#00448E" stroke-width="11" d="M1766.1 348.523c3.553-24.694 20.132-45.86 61.953-46.21 41.822-.35 80.236 16.43 71.837 41.34-6.54 19.397-28.426 37.148-74.848 33.295-44.283-3.677-59.317-25.82-58.942-28.425z" fill="none"/></g><g style="display:block"><path stroke-linecap="round" stroke-linejoin="round" stroke="#0084C2" stroke-width="20" d="M1826.394 326.013s-30.905-19.426-39.16-30.135c5-11.119 22.377-26.21 32.131-35.883" fill="none"/><path stroke-linecap="round" stroke-linejoin="round" stroke="#CC348D" stroke-width="14" d="M1840.942 254.195c-.72-5.96-3.55-13.26-6.603-17.032" fill="none"/></g><g style="display:block"><path stroke-linecap="round" stroke-linejoin="round" stroke="#0084C2" stroke-width="20" d="M1826.643 325.996s-55.762-1.152-99.758-18.563" fill="none"/><path stroke-linecap="round" stroke-linejoin="round" stroke="#CC348D" stroke-width="14" d="M1708.538 291.906c-2.16 2.659-7.3 10.183-9.984 16.052" fill="none"/></g><g style="display:block"><path stroke-linecap="round" stroke-linejoin="round" stroke="#DAAF83" stroke-width="5" d="m1861.403 434.557-57.703-15.951m51.097 25.226-51.226-24.768" fill="none"/><path stroke-linecap="round" stroke-linejoin="round" stroke="#C6775C" stroke-width="9" d="m1829.906 425.944-10.942 4.421" fill="none"/><path fill="#C6775C" d="m1830.568 430.588 5.49-2.301a8.535 8.535 0 0 0 4.572-11.17l-2.036-4.857a8.534 8.534 0 0 0-11.17-4.572l-5.49 2.301a8.534 8.534 0 0 0-4.572 11.17l2.036 4.856a8.536 8.536 0 0 0 11.17 4.573z"/></g></g><g clip-path="url(#bc)" style="display:block" transform="matrix(-1 0 0 1 1916 -23.5)"><g style="display:block"><path stroke-linecap="round" stroke-linejoin="round" stroke="#FFC6B7" stroke-width="12" d="M1460.457 585.196c-.575-4.275-7.678-8.719-13.119-11.397m-8.356 7.114c6.856 1.856 15.013 4.6 19.008 8.256m-20.476 5.46c10.497-1.66 17.06 1.1 21.12 3.45m-5.455 13.135s5.71-7.888 13.87-12.942" fill="none"/><path stroke-linecap="round" stroke-linejoin="round" stroke="#FFC6B7" stroke-width="36" d="M1488.944 585.51c-10.322.884-15.155 1.49-23.972 3.45" fill="none"/><path stroke-linecap="round" stroke-linejoin="round" stroke="#33E3FF" stroke-width="36" d="M1507.088 584.585c-8.968-.461-20.327.924-29.26 2.253" fill="none"/></g><path fill="#33E3FF" d="M630.809-115.651c9.092-28.892-30.958-60.405-60.562-45.482-18.687 7.056-41.695 24.152-41.695 24.152-12.783 8.685 83.531 96.458 89.07 70.99 0 0 6.588-33.994 13.187-49.66z" transform="rotate(1.145 -27462.153 49421.442)" style="display:block"/><path stroke-linecap="round" stroke="#393939" stroke-width="27" d="m683.25 34.5 4.25 3.5" fill="none" transform="rotate(-13.223 3475.493 -3895.574)" style="display:block"/><path stroke-linecap="round" stroke-linejoin="round" stroke="#393939" stroke-width="23" d="m613.75 94-8.25 3.75" fill="none" transform="rotate(-9.497 4345.19 -5509.052)" style="display:block"/><path fill="#FFC7B8" d="M552.811-154.957c-14.873-8.982-34.962-11.237-52.179-1.891l-28.256 15.339a51.11 51.11 0 0 0-25.616 34.316l-7.98 37.63C434.57-49.714 440-30 458.986-17.428 477.972-4.856 510.5 12 528.501 43.852c6.897 12.204 42.974 11.603 54.934 7.15l38.691-9.376A38.335 38.335 0 0 0 651.93 8.839l6.319-51.72c-.568-6.318-6.973-19.296-11.519-26.102C621-107.5 590-132.5 552.811-154.957z" transform="rotate(-1.729 19943.376 -32410.325)" style="display:block"/><path fill="#EE9583" d="M523.147-6.062c2.236 3.145 5.699 3.51 8.324 1.644 2.625-1.866 3.418-5.255 1.182-8.401-2.236-3.145-9.483-4.798-10.202-4.287-.718.51-1.54 7.899.696 11.044z" transform="rotate(-1.729 19927.674 -32405.413)" style="display:block"/><g style="display:block"><path fill="#FFF" d="M1490.19 542.204c-7.51-5.246-19.757-4.679-26.008 1.207-5.162 4.86-4.385 11.718 1.819 16.052l9.297 6.495c7.51 5.247 19.757 4.678 26.007-1.207 5.163-4.86 4.387-11.718-1.817-16.052l-9.298-6.495zm32.246-20.966c-7.481-5.227-18.816-4.026-25.088 2.656-6.053 6.45-5.124 15.618 2.097 20.662l8.505 5.941c7.481 5.227 18.818 4.025 25.09-2.656 6.054-6.45 5.123-15.618-2.099-20.662l-8.505-5.941z"/><path fill="#FFC7B8" d="M1536.836 531.71c-5.63 4.052-12.603 16.5-14.798 25.676l17.593-12.663c1.414-6.026 2.834-17.064-2.795-13.013z"/><path fill="#EE9583" d="M1531.58 550.186a2.223 2.223 0 0 0-1.98 2.44c.234 2.251.07 4.431-.713 6.457-.776 2.003-2.215 3.993-4.747 5.806a2.219 2.219 0 0 0-.512 3.097 2.22 2.22 0 0 0 3.098.514c3.178-2.276 5.187-4.939 6.302-7.813 1.105-2.851 1.274-5.776.99-8.52a2.221 2.221 0 0 0-2.437-1.98z"/><path fill="#4B4B4B" d="M1507.376 532.872a4.246 4.246 0 0 0 1.826 3.344c1.91 1.335 4.515.904 5.818-.96a4.07 4.07 0 0 0 .341-.588l4.71 3.142c3.374 2.251 3.856 6.466 1.078 9.427-2.79 2.972-7.815 3.551-11.205 1.288l-5.728-3.82c-3.375-2.252-3.857-6.467-1.08-9.426 1.132-1.207 2.631-2.019 4.24-2.407zm-16.645 14.514c.163.097.322.202.477.31l4.924 3.438c3.634 2.539 4.13 6.546 1.167 9.426-2.579 2.505-7.745 2.773-10.909.565l-7.073-4.942c-3.017-2.106-3.43-5.431-.97-7.822 1.096-1.064 2.586-1.786 4.218-2.153a4.503 4.503 0 0 0 1.865 2.827c1.967 1.374 4.59 1.015 5.858-.8a3.75 3.75 0 0 0 .443-.849z"/></g><g mask="url(#bd)" style="display:block"><g clip-path="url(#be)" transform="rotate(4.333 1584.736 613.337) scale(1.00759)"><g style="display:block"><path fill="#FFC7B8" d="M1531.072 472.95c5.547 1.538 10.722-2.436 11.558-8.872.835-6.437-2.985-12.9-8.532-14.438-5.547-1.538-10.722 2.436-11.557 8.872-.836 6.437 2.985 12.9 8.531 14.438z"/><path fill="#0084C2" d="M1476.51 610.578s56.633 59.035 75.738 52.288l84.852-53.299c15.31-5.119 16.846-112.947 8.034-122.726l-46.156-33.193-.192-.139-6.05-4.349-7.1 111.687-109.126 49.731z"/><path fill="#33E3FF" d="M1599.227 458.011c-6.193-5.901-32.26-23.432-32.26-23.432a89.37 89.37 0 0 1 2.122 5.235c15.96 43.123 4.178 106.142 2.463 109.162-15.069 26.531-97.039 53.239-102.455 51.97l17.197 15.416c27.382 2.193 90.182-24.41 102.765-40.754 10.975-14.252 13.347-94.227 10.168-117.597z"/></g><path fill="url(#bf)" d="M542.287-73.808a20.443 20.443 0 0 0-21.744-1.686l-66.346 34.981c-4.69 2.473-5.503 8.833-1.52 12.333 4.619 4.057 18.803 15.086 20.93 16.441 2.539 1.618 3.641 4.492 3.329 7.164L455.999 7.558C439.513-4.27 412.084-46.23 416.293-66.078c0 0 3.246-69.461 16.083-76.429 0 0 91.517-46.369 107.436-34.95l29.674 16.915 1.147.654-.456 92.437a8.424 8.424 0 0 1-7.201 8.168c-.631.092-20.689-14.525-20.689-14.525z" transform="rotate(-6.1 6395.181 -8836.617)" style="display:block"/></g></g><path fill="#FF9500" d="M470.866-93.457c12.962-.062 20.431-10.864 20.372-24.146-.06-13.282-7.627-24.012-20.59-23.95-12.962.061-21.627 10.869-21.567 24.15.06 13.283 8.822 24.008 21.785 23.946zm-3.898 35.929c14.626-.98 25.626-14.226 24.569-29.585-1.057-15.36-13.77-27.017-28.396-26.037-14.625.981-25.625 14.226-24.568 29.585 1.057 15.36 13.77 27.017 28.395 26.037z" transform="rotate(25.076 -341.135 2403.841)" style="display:block"/><path fill="#33E3FF" d="M637.81-65.136C633.75-56 626.831-54.6 622.786-55.983c-5.465-1.15-9.63-7.729-9.02-16.257 1.234-17.26 7.984-33.01 13.266-43.535 4.773-9.512 15.718-11.975 22.54-8.794 6.779 3.161 12.82 11.1 7.698 20.625-6.02 11.194-15.4 29.672-19.46 38.808z" transform="rotate(1.145 -27704.802 49500.355)" style="display:block"/><g style="display:block"><path fill="#FFC6B7" d="M1646.188 456.92c-4.978-8.484-14.92-12.03-24.707-6.666-8.626 4.728-12.402 14.763-6.958 23.68 4.968 8.135 14.963 11.662 24.577 6.404 9.848-5.377 12.065-14.933 7.088-23.418z"/><path stroke-linecap="round" stroke="#EE9583" stroke-width="3.796" d="M1629.05 460.709c3.193 1.836 6.033 5.87 5.658 8.412" fill="none"/><path stroke-linecap="round" stroke-linejoin="round" stroke="#FFC6B7" stroke-width="12" d="M1622.899 454.71c.31-4.198-.834-8.208.133-12.07m19.637-3.002c-5.828 1.37-11.467 8.292-11.56 11.889m22.203-4.012c-4.115 1.333-14.097 5.537-14.54 11.534m17.206 1.815c-4.383-1.312-10.651 2.128-12.908 6.778" fill="none"/></g></g><g clip-path="url(#bn)" style="display:block" transform="matrix(-1 0 0 1 1976 -43.5)"><path fill="#58CC02" d="M303.202-41.464c15.252 94.999-16.572 140.035-80.655 155.537-84.448 20.428-144.155-35.09-168.05-85.71C36.399-9.976 31.202-78.991 31.202-79.406c-2.419-42.423 8.604-88.44 47.184-106.193 17.568-8.083 35.66-11.33 49.808-6.234 21.927 7.898 30.444 13.881 38.401 17.43 4.362 1.944 127.783 77.976 136.607 132.939zm15-4c15.252 94.999-31.572 144.035-95.655 159.537-84.448 20.428-134.794-43.146-151.05-96.71C16-165.5 158.638-177.952 166.595-174.404a21.641 21.641 0 0 0 13.897 1.286c13.722-3.325 29.376-13.45 52.085-24.67 28.654-14.157 72.523 1.452 71.329 40.723 0 0 5.472 56.638 14.296 111.601z" transform="rotate(-.04 814990.772 -1422886.614)" style="display:block"/><path fill="#58CC02" d="M194.4-10.921c41.197 33.255 100.112 36.257 145.734 6.363 45.621-29.893 66.603-85.246 52.867-136.495-2.857-10.667-15.283-15.388-24.539-9.323L195.78-37.227c-9.256 6.065-9.954 19.384-1.38 26.306z" transform="rotate(4.009 -7651.216 15035.961)" style="display:block"/><path fill="#58CC02" d="M198.976.515c-26.37 45.909-80.206 70.027-133.554 58.669C12.074 47.826-27.518 3.817-33.258-48.93c-1.195-10.977 8.679-19.874 19.504-17.569L188.17-23.511C198.993-21.206 204.464-9.04 198.976.515z" transform="rotate(-4.092 8889.15 -14180.982)" style="display:block"/><path stroke-linecap="round" stroke-linejoin="round" stroke="#F49000" stroke-width="35" d="M256.25 102.5 260 74.75" fill="none" transform="rotate(.566 -58975.581 104936.79)" style="display:block"/><path stroke-linecap="round" stroke-linejoin="round" stroke="#F49000" stroke-width="35" d="m138 147-27-7.75" fill="none" transform="rotate(1.175 -28143.361 50867.927)" style="display:block"/><g mask="url(#bp)" style="display:block"><path fill="#89E219" d="M1233.676 613.219c-.59 8.47-6.888 15.885-15.712 18.228-8.823 2.342-17.976-.97-22.698-8.031-.983-1.47-.155-3.465 1.635-3.94l33.406-8.847c1.79-.476 3.491.826 3.369 2.59zm-57.995 14.217c-2.272 8.182-9.926 14.186-19.04 14.714-9.113.528-17.42-4.549-20.633-12.413-.67-1.637.54-3.426 2.39-3.533l34.496-2.001c1.85-.107 3.26 1.53 2.787 3.233zm34.758 18.94c-1.477 8.36-8.522 15.066-17.542 16.467-9.022 1.398-17.776-2.857-21.73-10.374-.822-1.563.211-3.46 2.041-3.743l34.137-5.306c1.83-.284 3.401 1.217 3.094 2.956zm23.012-68.33c-22.28 1.286-42.233-10.85-51.967-29.407-8.18.442-14.11.753-17.78.954-6.52.361-11.86.663-16.01.904-5.635 19.49-18.442 33.297-35.901 34.608-20.57 1.544-41.119-22.369-43.523-52.54-1.815-22.78-2.068-34.029-.44-46.28 1.746-13.146 6.654-22.61 14.123-29.452.437-11.91 9.318-21.886 13.708-22.136 2.47-.14 2.497.612 2.3 13.952 4.336-17.82 12.98-23.501 16.97-26.69 5.001-3.99 11-6.07 11.47 2.15.24 3.91 3.917 47.394 28.705 48.237 2.34.079 3.84.079 6.79-.222 15.378-1.568 44.437-34.116 55.75-47.508 7.037-8.331 11.568-6.782 13.328-4.143 4.012 5.99 5.473 12.274 4.595 18.664l9.447-11.952c1.86-2.34 5.46-2.211 7.12.268 4.321 6.45 6.123 14.089 5.395 21.579 14.812 9.106 25.076 25.074 26.16 43.753l1.566 27.09c1.758 30.37-21.436 56.414-51.806 58.171z"/></g><g style="display:block"><path fill="#F49000" d="M1188.378 547.122c-.614-10.604-9.707-18.701-20.31-18.088-10.007.578-17.89 8.745-18.116 18.766l-.677 30.217c-.27 11.936 9.704 21.563 21.622 20.873 11.274-.651 19.884-10.32 19.232-21.593l-1.751-30.175z"/><path fill="#B16900" d="M1181.567 549.113c.218-8.205-6.628-14.84-14.822-14.367-7.272.421-13.01 6.341-13.203 13.622l-.769 29.1c-.218 8.205 6.629 14.84 14.823 14.366 7.272-.42 13.01-6.34 13.203-13.622l.768-29.1z"/><path fill="#FFB8D1" d="M1181.254 561.256c-.168.006-.337.014-.505.024-12.632.731-22.28 11.563-21.55 24.195.092 1.583.343 3.119.735 4.594a13.93 13.93 0 0 0 7.667 1.765c7.272-.42 13.01-6.34 13.203-13.623l.45-16.955z"/><path fill="#FFC200" d="M1136.98 550.176c-.132.74.306 1.458 1.014 1.716l10.214 3.703 41.255-7c.924-.157 1.522-1.07 1.237-1.963-3.761-11.77-15.114-19.977-28.02-19.23-13.062.754-23.488 10.437-25.7 22.774z"/><path fill="#FFDE00" d="M1166.49 538.928c2.097.808 4.393-.312 5.154-2.397.762-2.085-.265-4.538-2.397-5.154-4.162-1.203-9.287-1.14-13.386.68-2.029.902-2.993 3.23-2.124 5.273.87 2.042 3.216 2.96 5.273 2.124 1.764-.716 5.383-1.333 7.48-.526z"/></g><g style="display:block"><path fill="#FFF" d="M1266.74 517.753c1.223 21.125-14.912 39.24-36.037 40.461-21.124 1.222-39.24-14.911-40.461-36.036l-1.245-21.516c-1.222-21.125 14.913-39.24 36.038-40.461 21.124-1.222 39.239 14.912 40.461 36.036l1.245 21.516zm-129.505 7.49c1.222 21.125-10.92 39.01-27.119 39.946-16.197.937-30.32-15.427-31.543-36.552l-1.245-21.516c-1.221-21.125 10.921-39.008 27.118-39.945 16.2-.937 30.322 15.428 31.544 36.552l1.245 21.515z"/><path fill="#4B4B4B" d="M1102.899 526.088c.642 9.9 7.514 17.508 15.334 17.007 7.83-.512 13.648-8.954 13.005-18.843l-1.244-19.12c-12.579 6.333-20.202-10.615-11.654-16.787-.66-.28-2.56-.42-3.68-.21-9.65 1.813-13.707 11.374-12.715 23.223.783 9.49.954 14.73.954 14.73zm94.828-6.222c.213 9.91 8.415 17.778 18.335 17.566 9.92-.212 17.788-8.424 17.575-18.334l-.414-19.15c-13.569 5.203-19.012-9.786-14.774-17.297-1.15-.21-2.34-.31-3.56-.279-1.91.04-3.75.381-5.47.971-9.86 3.963-12.127 14.923-12.015 21.753.122 6.83.323 14.77.323 14.77z"/><path fill="#8EDF00" d="M1104.668 459.826c-25.98 1.887-30.221 15.369-31.246 23.472-2.161 17.074 2.275-.99 2.275-.99 16.746-25.617 47.816-24.546 65.124 12.207 4.244-20.392-.37 1.172-2.594-13.463-2.224-14.636-15.047-22.57-33.559-21.226zm-19.798 107.67c6.1 2.945 8.35 7.194 22.922 10.039 14.571 2.845 10.93 2.9 13.18 3.252-3.75-2.102-29.753-10.096-36.102-13.292zm140.635-111.838c-30.95-.296-41.154 20.494-40.613 37.723.541 17.229.372 1.253.372 1.253 7.676-48.967 60.176-48.479 81.308-17.39-.126-8.048 2.769 21.61 1.163 6.824-1.605-14.786-20.177-28.2-42.23-28.41zm-4.902 115.129c-12.634-1.873-16.634-2.622 7.298 1.852 19.27 3.603 31.817-5.237 40.883-16.39-5.567 6.402-25.814 15.907-48.18 14.538z"/></g></g><g clip-path="url(#bz)" style="display:block" transform="matrix(-1 0 0 1 1976 -43.5)"><path fill="#FFCBA3" d="M203.257-329.364c6.799 0 12.311 5.572 12.311 12.444 0 6.873-5.512 12.445-12.311 12.445-6.8 0-12.312-5.572-12.312-12.445 0-6.872 5.513-12.444 12.312-12.444z" transform="rotate(1.075 -24836.212 53670.485)" style="display:block"/><path fill="#FFB100" d="M218.37-321.947c-8.572-3.196-13.831.737-16.027 5.526-2.196 4.789-1.228 12.445 6.816 15.786 8.045 3.34 25.571 13.206 36.592 21.273 4.229 3.096 12.06 2.96 16.207-3.435 4.148-6.396.182-13.264-3.779-16.576-8.008-6.694-31.238-19.378-39.81-22.574z" transform="rotate(1.075 -24836.464 53697.138)" style="display:block"/><path fill="#3D3D3D" d="M179.541-308.202c0 9.562-7.753 17.314-17.315 17.314-9.562 0-17.314-7.752-17.314-17.314 0-9.562 7.752-17.315 17.314-17.315 9.562 0 17.315 7.753 17.315 17.315zm-23.721-15.59c-13.511-11.937-14.787-32.57-2.85-46.08l22.652-26.694c11.937-13.512 32.567-14.788 46.079-2.85 14.326 12.657 14.76 34.86.939 48.067l-.997.597a94.763 94.763 0 0 0-10.584 11.98l-7.422 9.987c-11.403 15.344-33.491 17.65-47.817 4.993z" transform="rotate(1.075 -30686.759 55108.182)" style="display:block"/><path fill="#E89665" d="M170.119-403.653c2.087.944 3.005 3.418 2.051 5.527-.954 2.109-6.986 5.386-6.986 5.386s-1.522-6.695-.568-8.804c.954-2.108 3.417-3.052 5.503-2.109z" transform="rotate(-1.561 22235.599 -37992.182)" style="display:block"/><path fill="#FFCBA3" d="M219.585-404.105c-21.544-12.439-49.093-5.057-61.532 16.488-12.439 21.545-5.057 49.093 16.487 61.532l29.192 16.854 45.045-78.02-29.192-16.854z" transform="rotate(1.075 -30683.827 55075.931)" style="display:block"/><g style="display:block"><path fill="#FFB100" d="M1222.863 204.005c-20.653 27.082-22.627 90.829 45.883 115.065l36.28-56.825 34.75-61.284c-52.306-30.06-90.697-31.334-116.913 3.044z"/><path fill="#FFF" d="M1258.683 199.087c2.057 2.107 1.758 5.734-.668 8.102-2.426 2.367-6.059 2.578-8.115.471-2.057-2.107-1.758-5.733.668-8.101 2.425-2.368 6.058-2.58 8.115-.472zm-31.265-8.352c23.956 11.956 44.515-8.69 37.522-12.271-3.966.167-9.572 2.033-14.344 3.514-9.694-1.2-18.075 3.589-23.178 8.757zm-15.76 30.513c17.658 7.505 42.043-20.896 23.494-32.264-5.087 2.968-18.812 14.838-23.495 32.264z"/><path fill="#FF9500" d="M1287.51 249.988c-19.678 32.655-28.501 63.263-19.188 68.876 9.314 5.613 32.45-16.463 52.13-49.117 19.679-32.655 28.447-63.523 19.134-69.136-9.313-5.613-32.396 16.723-52.075 49.377zm-36.864-68.013c16.814 1.217 38.907 9.118 54.98 17.63a7.99 7.99 0 0 0 8.166-.423c2.91-1.931 6.935-4.58 11.392-6.137-30.285-15.051-54.73-18.817-74.538-11.07zm-35.429 35.9c-10.518 26.857-6.55 67.877 33.21 91.74-3.781-14.836 9.064-45.793 15.006-59.492 1.65-3.804.136-8.237-3.507-10.218-9.89-5.378-29.595-15.965-44.709-22.03z"/></g><path fill="#FFCBA3" d="M208.585-408.855c-7.835-3.645-36.835-2.645-50.532 21.238-12.377 21.58-5.057 49.093 16.487 61.532 0 0 2.21 1.585 4.192 2.604C165-376.5 201.25-403.25 213.777-407.001c-1.277-.999-5.192-1.854-5.192-1.854z" transform="rotate(1.075 -30686.51 55081.527)" style="display:block"/><g style="display:block"><path fill="#9F9F9F" d="M1189.095 209.161c-5.67 16.334-1.687 35.098 10.576 47.214 4.345-18.051.667-38.236-10.576-47.214z"/><path fill="#B23232" d="m1216.565 197.154 1.445 3.208c1.362 3.023.002 6.566-3.038 7.916-3.04 1.35-6.608-.007-7.97-3.03l-1.445-3.208c-1.362-3.023-.002-6.566 3.038-7.916 3.04-1.35 6.608.007 7.97 3.03z"/></g><g mask="url(#bA)" style="display:block"><path fill="#F14C4C" d="M1211.946 202.554a6.499 6.499 0 0 1 5.58 3.509 5.998 5.998 0 0 1-10.585-.634l-.224-.491a6.492 6.492 0 0 1 5.23-2.384z"/></g><g mask="url(#bB)" style="display:block"><path fill="#FFF" d="M1195.292 178.573c2.673-4.616 5.915-7.734 7.242-6.966.049.028 1.738 1.033 1.786 1.06 1.265.733.002 5.203-2.573 9.65-2.574 4.445-5.823 7.767-7.088 7.034l-1.804-1.03c-1.327-.768-.235-5.133 2.437-9.748zm-12.096 21.022c2.672-4.615 5.915-7.734 7.241-6.966l1.786 1.06c1.266.733.002 5.203-2.573 9.65-2.574 4.445-5.823 7.766-7.088 7.034l-1.803-1.03c-1.327-.769-.236-5.133 2.437-9.748z"/><path fill="#4B4B4B" d="M1184.994 197.611c1.28-2.21 2.833-3.705 3.469-3.336l1.257.65c.606.352 0 2.494-1.233 4.624-1.233 2.13-2.79 3.72-3.395 3.37-.024-.014-1.242-.624-1.266-.638 2.014-2.418 2.667-4.996 1.168-4.67zm9.436-16.46c1.28-2.21 2.834-3.704 3.47-3.336.023.014 1.233.638 1.256.652.606.35 0 2.493-1.233 4.622-1.233 2.13-2.79 3.722-3.396 3.37-.023-.013-1.241-.623-1.265-.637 2.014-2.418 2.667-4.997 1.168-4.67z"/><path stroke-linecap="round" stroke-linejoin="round" stroke="#E89665" stroke-width="3" d="m-50.353 5.574 8.892 4.251-8.985 3.287m74.943-6.57L17.39 8.811l8.055 3.69" fill="none" transform="matrix(.43577 -.7525 .21634 .12528 1197.116 180.73)"/></g><path fill="#FFCBA3" d="M200.043-327.86c6.947 0 12.578 5.691 12.578 12.713 0 7.021-5.631 12.713-12.578 12.713-6.946 0-12.577-5.692-12.577-12.713 0-7.022 5.631-12.714 12.577-12.714z" transform="rotate(1.075 -27957.266 51109.147)" style="display:block"/><path fill="#FFB100" d="M213.393-323.959c-9.263-1.35-13.477 3.79-14.61 9.056-1.132 5.265 1.222 12.638 9.989 14.246 8.767 1.607 29.134 7.542 41.667 12.806 4.845 2.023 12.469.16 15.076-7.037 2.606-7.197-2.831-13.016-7.457-15.357-9.352-4.732-35.403-12.364-44.665-13.714z" transform="rotate(1.075 -27984.417 51162.2)" style="display:block"/><path stroke-linecap="round" stroke-linejoin="round" stroke="#FF9500" stroke-width="12" d="M370.75-299.25s8.043 1.398 12 6.25" fill="none" transform="rotate(3.558 -7906.36 15412.813)" style="display:block"/><path stroke-linecap="round" stroke-linejoin="round" stroke="#FF9500" stroke-width="12" d="M349-258.75s6.754 6.057 8 12.25" fill="none" transform="rotate(-3.643 9294.346 -15093.112)" style="display:block"/><g style="display:block"><path stroke-linecap="round" stroke-linejoin="round" stroke="#00BDFF" stroke-width="7" d="m1168.216 160.363 6.665-3.039m-1.175 13.486 5.789-2.925m-6.787 9.497c9.903-3.584 14.521 8.54 20.966.45" fill="none"/><path fill="#00BDFF" d="M1119.873 188.491c-2.101.413-3.771-1.752-2.84-3.68l2.582-5.351 6.089 7.887-5.83 1.144zm-4.128-9.021c-1.735-1.256-1.292-3.954.753-4.588l5.674-1.76-1.615 9.832-4.812-3.484zm24.246 14.693c-9.84 2.032-19.465-4.298-21.497-14.138-2.032-9.841 4.298-19.466 14.139-21.498 0 0 11.637-2.313 19.962-5.824 8.325-3.51 19.916-.887 24.425 8.092 4.51 8.98.525 19.676-8.093 24.424-8.618 4.748-28.936 8.944-28.936 8.944z"/><path fill="#FFF" d="M1139.361 185.978a6.173 6.173 0 0 1-7.684-4.143l-2.112-7.056a6.173 6.173 0 0 1 11.827-3.54l2.112 7.055a6.173 6.173 0 0 1-4.143 7.684z"/><path fill="#FFA3A3" d="M1134.208 176.158c.556.28.762.97.451 1.508l-.85 1.476c-.475.823-1.704.68-1.976-.23l-.671-2.241c-.272-.91.675-1.705 1.524-1.278l1.522.765z"/><path fill="#00729A" d="M1129.922 181.425a2.274 2.274 0 1 0-4.425-1.05 2.274 2.274 0 0 0 4.425 1.05zm-1.097-3.822a2.273 2.273 0 1 0-4.425-1.048 2.273 2.273 0 1 0 4.425 1.048z"/></g></g><g clip-path="url(#bJ)" style="display:block" transform="matrix(-1 0 0 1 1916 -23.5)"><g style="display:block"><path fill="#4CC5FF" d="M1606.199 804.429c2.325-5.647 8.788-8.339 14.434-6.013l21.394 8.813c5.646 2.325 8.338 8.786 6.013 14.433l-2.244 5.445c-4.73 11.033-12.395 9.216-25.358 5.86-12.41-4.08-21.186-10.379-17.169-21.142l2.93-7.396z"/><path fill="#1CB0F6" d="M1623.218 817.218c-9.382-3.587-13.299-9.859-11.353-15.044 3.043-8.113 13.968-27.919 21.544-36.764 5.045-5.89 23.836-18.958 44.479-28.57 9.12-4.244 19.952-.294 24.2 8.825 4.245 9.12.293 19.954-8.825 24.2-11.199 5.217-29.081 16.98-32.48 19.634-2.353 3.363-11.124 15.438-14.89 25.522-2.428 6.506-14.203 5.436-22.675 2.197z"/><path stroke-linecap="round" stroke="#FF4B4B" stroke-width="12.767" d="M1596.464 846.963c11.618-.511 21.342-7.017 21.342-7.017" fill="none"/></g><g style="display:block"><path fill="#A46648" d="m1650.891 672.134 29.159 37.456c4.263 5.138 11.885 5.846 17.023 1.582 5.138-4.262 5.847-11.883 1.583-17.022l-32.81-33.532a9.437 9.437 0 1 0-14.955 11.516z"/><path stroke-linecap="round" stroke-linejoin="round" stroke="#A46648" stroke-width="7.575" d="m1641.898 662.139 9.993 3.976m-4.08-16.66 1.774 10.52m5.7-11.915-.45 12.468m7.71-7.958-2.718 7.278" fill="none"/></g><g style="display:block"><path fill="#3D3D3D" d="m1722.07 644.39 26.738-17.427c9.764-6.354 22.831-3.591 29.185 6.174l6.164 9.47c6.354 9.765 3.59 22.831-6.175 29.186l-8.47 5.512c-9.764 6.355-22.83 3.59-29.185-6.175l-18.256-26.74zm9.779-4.986-17.107 44.276-26.634-10.934c-9.694-4.25-14.108-15.556-9.858-25.25l4.123-9.403c4.25-9.694 15.553-14.106 25.248-9.856l24.228 11.167zm24.166 21.482c.582 10.57-51.494 13.434-52.076 2.865l-1.867-33.938c-.581-10.569 7.515-19.609 18.085-20.19l13.8-.76c10.57-.58 19.61 7.516 20.192 18.085l1.866 33.938z"/><path fill="#A46648" d="m1731.668 713.854-36.358-14.477c-8.128-3.236-12.616-11.98-10.506-20.472l5.898-23.738a14.638 14.638 0 0 1 11.274-10.52l28.07-5.577a19.867 19.867 0 0 1 18.09 5.613l10.597 14.023a26.795 26.795 0 0 1 3.44 26.26l-7.777 19.098c-3.571 8.982-13.748 13.365-22.728 9.79z"/><path fill="#FDB02A" d="m1760.778 688.39 1.395-3.424a26.795 26.795 0 0 0-3.44-26.26l-10.596-14.023a19.867 19.867 0 0 0-18.09-5.613l-14.574 2.896c11.259 3.41 32.676 13.406 45.305 46.424zm-45.305-46.424-13.497 2.68a14.638 14.638 0 0 0-11.274 10.52l-2.03 8.173c8.857-11.339 26.8-21.373 26.8-21.373zm.792-1.394c.19.706-.334 1.348-1.063 1.395-6.554.429-13.778-3.63-14.86-11.326-.102-.724.332-1.405 1.063-1.396 9.688.128 13.429 6.031 14.86 11.327zm-.68 1.344a1.102 1.102 0 0 1-1.396-1.063c-.03-4.194 1.023-12.204 11.327-14.86a1.106 1.106 0 0 1 1.396 1.063c.042 7.673-3.849 12.834-11.328 14.86z"/><path fill="#A46648" d="M1760.062 678.47a8.151 8.151 0 0 1-10.79 4.064 8.151 8.151 0 0 1-4.063-10.79 8.152 8.152 0 0 1 10.79-4.063 8.152 8.152 0 0 1 4.063 10.79z"/></g><g style="display:block"><path fill="#FFF" d="M1712.396 659.994c.49-3.922 4.157-7.098 8.048-6.97 3.893.126 6.428 3.507 5.563 7.416l-1.687 7.624c-.765 3.454-4.069 6.08-7.508 5.966-3.438-.114-6.338-1.75-5.907-5.214l1.491-8.822z"/><path fill="#A46648" d="M1709.801 672.122c1.77-2.53 11.906-5.434 16.033-4.412l-4.573 9.185c-6.274 1.05-11.46-4.773-11.46-4.773z"/><path stroke-linecap="round" stroke="#86401F" stroke-width="4" d="M1695.671 666.048c4.424-3.011 8.552.984 8.552.984" fill="none"/><path fill="#86401F" d="M1708.515 667.718c.1.018 1.824 3.494 1.582 4.811a2.425 2.425 0 0 1-4.77-.876c.242-1.317 3.089-3.953 3.188-3.935zm-.852 7.09-2.102.038a2.497 2.497 0 0 1-.092-4.992l2.102-.04a2.498 2.498 0 0 1 .092 4.993z"/><path fill="#A41414" d="M1722.764 678.856c-1.794 5.868-12.008 9.836-19.046 5.334-2.08-1.33-1.157-4.282 1.2-5.013 3.23-1.001 6.112-2.726 8.804-5.1 2.693-2.375 6.015-2.922 7.96-.405 1.02 1.318 1.73 3.065 1.082 5.184z"/><path stroke-linecap="round" stroke="#3D3D3D" stroke-width="6.095" d="m1720.416 659.7-.616 4.937" fill="none"/><path fill="#E64340" d="M1712.095 682.706c-1.283-2.4.415-5.812 3.793-7.618 2.217-1.186 4.604-1.386 6.347-.707.71 1.204 1.067 2.688.58 4.447-.999 3.615-4.65 5.41-6.288 6.046-1.962.035-3.654-.715-4.432-2.168z"/><path fill="#E7E7E7" d="M1717.809 675.99a5.596 5.596 0 0 1-9.366 1.763c1.892-.949 2.938-1.548 5.33-3.705 2.393-2.157 6.017-2.921 7.963-.404.269.349.513.727.715 1.133-.355.331-1.613 2.197-4.642 1.212z"/></g><path fill="#FDB02A" d="m749.545 173.4-6.236 3.947c-11.545 7.307-26.828 3.871-34.135-7.675l-3.946-6.236c-7.229-11.421-3.83-26.538 7.59-33.766 14.99-9.487 34.832-5.027 44.319 9.963 7.228 11.421 3.829 26.539-7.592 33.767zm-2.502-9.683-33.434-7.517 4.609-20.499c2.076-9.233 11.242-15.035 20.475-12.959 9.232 2.076 15.034 11.242 12.958 20.475l-4.608 20.5z" transform="rotate(.52 -61436.528 107721.085)" style="display:block"/><path fill="#1CB0F6" d="M740.472 155.971c10.32 11.635 9.254 29.433-2.381 39.753s-29.433 9.254-39.753-2.381-9.254-29.433 2.381-39.753 29.433-9.254 39.753 2.381z" transform="rotate(.52 -61491.573 107720.838)" style="display:block"/><g style="display:block"><path stroke-linecap="round" stroke-linejoin="round" stroke="#A46648" stroke-width="13" d="m1756.165 733.678 9.35-23.301m-.167 25.29 16.093-12.11" fill="none"/><path fill="#A46648" d="m1722.31 723.239 11.79 27.996 33.102-19.653s-30.536-18.003-31.702-18.377c-2.796-1.63-6.285-2.358-9.258-.781a8.586 8.586 0 0 0-3.932 10.815zm51.608 22.839.015-.41c.195-5.66-1.678-10.907-4.9-14.917-3.569-4.444-8.794-7.367-14.7-7.647-11.233-.534-20.375 8.698-20.783 20.575l-.015.41c-.408 11.877 8.062 22.094 19.297 22.625 11.236.531 20.675-8.707 21.086-20.636z"/><path stroke-linecap="round" stroke="#86401F" stroke-width="4" d="m1742.126 735.759 13.913-2.865c3.527-.726 7.11 1.532 8.003 5.043 0 0 0 0 0 0 .892 3.512-1.245 6.947-4.773 7.673l-13.912 2.865" fill="none"/></g><g style="display:block"><path fill="#1CB0F6" d="M1692.427 769.303c-8.946.212-17.23-5.648-19.719-14.664-.93-3.37-2.145-7.43-3.767-11.596-6.355 4.465-13.054 10.118-19.197 15.185-8.495 7.008-21.062 5.802-28.07-2.693-7.007-8.496-5.802-21.065 2.694-28.072.361-.297 9.193-7.357 18.627-14.375 18.654-13.878 27.325-18.623 37.082-16.772a20.711 20.711 0 0 1 12.758 7.96c10.36 13.432 15.456 29.09 18.393 39.731 2.937 10.637-3.307 21.64-13.944 24.577-1.62.446-3.25.681-4.857.72z"/><path stroke-linecap="round" stroke-linejoin="round" stroke="#0395DB" stroke-width="4" d="m1651.268 754.875 17.194-13.51s4.897 22.015 12.588 24.708" fill="none"/><path fill="#5EC6FF" d="M1637.827 770.041c-3.716 3.03-12.897-2.08-20.508-11.414-7.61-9.333-10.769-19.355-7.053-22.385.957-.781 12.183-9.776 14.517-11.59 3.758-2.92 12.903 2.47 20.238 11.265 7.334 8.794 10.743 18.982 7.016 22.364-3.726 3.382-13.711 11.354-14.21 11.76z"/><path stroke-linecap="round" stroke="#33B4F7" stroke-width="4.078" d="M1615.37 738.463c4.081 1.485 9.095 5.338 13.49 10.738 4.397 5.398 7.154 11.09 7.78 15.39" fill="none"/><path stroke-linecap="round" stroke="#FF4B4B" stroke-width="13.049" d="M1604.626 738.772c2.612 11.362 10.454 20.204 10.454 20.204" fill="none"/></g></g><g clip-path="url(#bN)" style="display:block" transform="matrix(-1 0 0 1 1916 -23.5)"><path fill="#FFB7E3" d="M467.017-248.933s-21.285-1.263-52.276-3.165c-15.682-.962-21.741 12.598-21.142 21.885.599 9.287 9.345 23.196 24.422 18.787 30.521-8.926 62.293-17.748 62.293-17.748l-13.297-19.759z" transform="rotate(.908 -34952.932 61554.076)" style="display:block"/><g style="display:block"><path fill="#FFB7E3" d="M1389.479 315.98c-30.976-2.339-43.125-3.542-58.175-4.166-15.05-.623-26.211 17.828-23.744 33.716 2.483 16 18.384 28.244 33.17 24.793 14.79-3.451 20.77-5.284 51.384-13.624 15.088-4.11 17.63-13.542 17.532-21.047-.098-7.504-4.457-18.486-20.167-19.672z"/><path fill="#FF9BDE" d="M1351.822 345.092c-2.075 13.04-12.797 22.16-23.946 20.37-11.148-1.791-18.503-13.813-16.428-26.854 2.076-13.041 12.797-22.161 23.946-20.37 11.148 1.79 18.503 13.813 16.428 26.854z"/></g><path stroke-linecap="round" stroke-linejoin="round" stroke="#FF7AD5" stroke-width="28.776" d="M333.179-229.75c4-8.5 10.36-20.402 16.526-28.725" fill="none" transform="rotate(-10.259 3977.051 -5373.495)" style="display:block"/><path stroke-linecap="round" stroke-linejoin="round" stroke="#FF86D0" stroke-width="15" d="M502.881-191.052c.376-4.651-.544-10.655-2.324-15.564" fill="none" transform="rotate(-29.528 2067.783 -1769.937)" style="display:block"/><path fill="#FFB7E3" d="M477.637-216.167c-7.613 5.833-.003.004-.006.006 0 0-18.631 14.661-50.031 23.985-8.308 2.467-15.805 6.766-15.948 15.431-.142 8.665 6.764 15.82 15.43 15.948 28.668.422 61.793-23.578 70.09-30.808 7.129-6.212 7.901-15.269 2.504-22.049-5.394-6.777-14.426-8.346-22.039-2.513z" transform="rotate(.991 -31940.988 56393.937)" style="display:block"/><path fill="#FFB7E3" d="M457.463-227.353c-11.621 5.879-32.272 15.702-43.279 41.145-11.007 25.443 20.779 26.539 27.111 14.999 7.705-14.041 24.272-24.118 27.134-26.05 17.148-11.237 6.297-41.165-10.961-30.097" transform="rotate(.908 -34952.932 61554.076)" style="display:block"/><path fill="#FFB3E6" d="M528.609-252.517c-1.324-2.088 4.65-9.711 4.65-9.711l14.956 10.268a12.758 12.758 0 0 0 7.223 2.241l22.195.002c4.776 0 7.827 5.094 5.572 9.305l-2.776 5.185a32.342 32.342 0 0 0-3.439 10.258c-.964 6.153-7.198 9.99-13.126 8.079l-5.291-1.706a42.078 42.078 0 0 1-26.151-24.402l-3.813-9.519z" transform="rotate(.835 -38081.22 66904.67)" style="display:block"/><g style="display:block"><path fill="#FFB7E3" d="M1469.062 302.017c17.812 13.968 20.926 39.73 6.958 57.542-6.764 8.626-19.707 15.336-32.804 12.413-14.035-3.132-23.186-15.38-29.247-25.355-3.62-5.955-6.036-11.244-7.3-17.956-1.264-6.712.347-14.305 4.853-19.684 14.535-17.352 39.73-20.928 57.54-6.96z"/><path fill="#FF86D0" d="M1484.433 339.407a41.1 41.1 0 0 0 .311-5.66l-6.937-15.627-19-21.98a40.495 40.495 0 0 0-3.838-1.299l-5.982-1.224-.068-.01c-8.115 7.41-9.52 21.116-2.336 31.565 8.452 12.295 21.833 19.056 37.85 14.235z"/><path fill="#FFB3E6" d="M1459.66 330.971a.666.666 0 0 1 .979-.026l2.74 2.805a.666.666 0 0 1 .023.907l-4.375 4.96a.666.666 0 0 1-.94.058l-2.914-2.572a.667.667 0 0 1-.06-.94l4.547-5.192zm-12.957-22.885c.358-.154.77.03.895.397l1.267 3.712a.666.666 0 0 1-.369.828l-6.082 2.597a.666.666 0 0 1-.874-.352l-1.526-3.576a.667.667 0 0 1 .35-.873l6.34-2.733z"/><path fill="#1CB0F6" d="M1457.339 288.382c27.407-2.13 40.268 20.934 33.194 40.412l-.906 2.49c-3.147 8.665-22.89 12.215-35.692-5.702-14.959-19.123-6.898-35.964 3.404-37.2z"/></g><path stroke-linecap="round" stroke-linejoin="round" stroke="#1CB0F6" stroke-width="21" d="M485.124-355.496s3.924 26.985 4.65 39.479c.737 12.67-.26 36.014-.26 36.014" fill="none" transform="rotate(.908 -34952.932 61554.076)" style="display:block"/><path stroke-linecap="round" stroke="#1CB0F6" stroke-width="21" d="M510.5-244.5s25.318 1.808 37.999 1.982c15.164.208 45.483-.837 45.483-.837" fill="none" transform="rotate(.908 -34952.932 61554.076)" style="display:block"/><path fill="#E18E70" d="M495.071-354.738c-6.063 6.951-16.614 7.671-23.566 1.608-6.952-6.064-7.672-16.615-1.609-23.566 6.064-6.952 16.615-7.673 23.567-1.609 6.952 6.064 7.671 16.615 1.608 23.567z" transform="rotate(.908 -34952.653 61565.997)" style="display:block"/><path fill="#E18E70" d="M592.492-232.902c-7.193-7.197-7.191-18.862.006-26.057 7.198-7.194 18.865-7.191 26.058.006 7.194 7.198 7.191 18.864-.007 26.058-7.198 7.194-18.862 7.19-26.057-.007z" transform="rotate(.908 -34963.977 61547.79)" style="display:block"/><path fill="#FFB3E6" d="M606.933-297.91c-9.289 35.122-45.292 56.063-80.414 46.774-35.122-9.29-56.063-45.292-46.774-80.414 9.289-35.122 45.292-56.063 80.414-46.774 35.122 9.289 56.063 45.292 46.774 80.414z" transform="rotate(.966 -32876.666 57730.75)" style="display:block"/><g style="display:block"><path fill="#E18E70" d="M1525.625 239.573c19.946 16.784 24.37 44.35 9.88 61.572-14.49 17.223-38.475 18.676-58.422 1.893-19.947-16.784-28.3-45.448-13.81-62.67 14.49-17.223 42.406-17.578 62.352-.795z"/><path fill="#A70000" d="M1477.777 297.603c-1.026 3.66 2.953 11.35 18.195 15.607 15.242 4.256 17.994-5.172 18.592-7.306.599-2.136 1.787-11.452-5.732-13.552-5.893-1.646-13.248 3.097-20.564 1.054-7.317-2.044-9.464.536-10.491 4.197z"/><path fill="#FFF" d="M1508.833 292.353c-2.787-.779-5.902-.128-9.185.559-3.658.764-7.525 1.572-11.38.495-3.39-.946-5.67-.9-7.243-.215 1.891 2.156 5.133 4.23 10.417 5.71 9.758 2.73 17.544.073 22.167-2.9-.926-1.632-2.432-2.995-4.776-3.649z"/><path fill="#9E4D31" d="M1489.344 279.58c.144.095.414 6.867-.765 8.64-1.178 1.774-3.693 2.173-5.6.902-1.907-1.272-2.493-3.729-1.31-5.496 1.177-1.769 7.531-4.142 7.675-4.046zm-16.185-19.732a1.57 1.57 0 0 1-1.271-1.82 1.575 1.575 0 0 1 1.823-1.275c6.117 1.08 9.806 4.594 11.868 8.524 2.028 3.865 2.485 8.117 2.289 10.898a1.574 1.574 0 0 1-1.678 1.46 1.568 1.568 0 0 1-1.455-1.676c.164-2.32-.233-5.966-1.938-9.216-1.672-3.186-4.598-6.004-9.638-6.895zm40.871 27.056c.496.65 1.467.816 2.167.369.7-.448.867-1.338.371-1.99-3.774-4.954-8.685-6.887-13.267-7.238-4.512-.347-8.674.835-11.174 2.051-.756.367-1.035 1.232-.626 1.931.409.7 1.352.97 2.107.602 2.079-1.01 5.656-2.027 9.477-1.734 3.75.289 7.765 1.834 10.945 6.009z"/><path fill="#3B3B3B" d="M1553.831 269.326c.398-1.133-1.001-2.17-2.168-1.891-1.631.395-3.792.367-6.51-.89-4.797-2.22-9.798-30.151-39.66-38.505-9.661-2.708-25.098-1.548-25.733 1.825-2.584 13.754 2.492 41.455 35.246 50.615 28.412 7.95 35.938-3.083 38.825-11.154z"/></g></g><g clip-path="url(#bY)" style="display:block" transform="matrix(-1 0 0 1 1916 -23.5)"><g mask="url(#bZ)" style="display:block"><g clip-path="url(#ca)"><path stroke-linecap="round" stroke-linejoin="round" stroke="#3D3D3D" stroke-width="24" d="M541.75 368c5.75 8.75 22.071 22.16 22.071 22.16s10.171 1.204 17.266-5.709" fill="none" transform="rotate(-6.001 6125.918 -8633.348)" style="display:block"/><path fill="#3D3D3D" d="M515.631 280.06c17.811 0 32.25 14.439 32.25 32.25s-14.014 31.792-31.825 31.792-33.434-13.935-33.434-31.746 15.198-32.296 33.009-32.296zm37.063 10.191c26.438-4.35 49.58 5.502 52.209 28.34 2.629 22.838-19.849 32.746-42.826 33.493-51.772 1.682-70.509-51.776-9.383-61.833z" transform="rotate(-6 6146.779 -8594.894)" style="display:block"/><path fill="#DB8D74" d="M521.5 303c-16.5 11-42 12.5-66 13.5s-53.834 22.53-51 52c2.5 26 27.5 43 54.5 43.5 30.012.556 61-2.5 100.5-24s36.5-55.5 23.5-77-45-19-61.5-8z" transform="rotate(-6 6207.043 -8631.536)" style="display:block"/><g mask="url(#cb)" style="display:block"><path fill="#FFAADE" d="M1468.486 843.802c12.187-5.889-141.545-21.056-120.62 86.501 24.057 123.663 217.48 8.157 183.98 18.872-18.24 5.835-37.063 6.126-52.224.37a52.71 52.71 0 0 1-8.738-4.253 46.815 46.815 0 0 1-7.354-5.522c-7.586-6.98-14.101-17.327-17.956-29.34-7.886-24.578 5.074-58.008 22.912-66.628zm-24.563 10.378s-110.177-10.375-96.712 74.684c13.465 85.058 144.2 37.92 144.2 37.92s-66.13-4.529-75.99-46.788c-9.684-41.504 28.502-65.816 28.502-65.816zm-33.247 26.333-3.358 6.092 11.053-1.402 2.991-6.249-10.686 1.56zm17.723-22.547s-93.112 5.285-78.152 71.081c14.96 65.797 119.856 41.101 119.856 41.101s-52.298-6.784-63.227-48.902c-9.475-36.513 21.523-63.28 21.523-63.28zm-13.6 59.343-10.334 3.153 2.727 8.444 9.888-3.846-2.282-7.751z"/><path fill="#A56641" d="M1443.923 854.18s-110.177-10.375-96.712 74.684c13.465 85.058 144.2 37.92 144.2 37.92s-66.13-4.529-75.99-46.788c-9.684-41.504 28.502-65.816 28.502-65.816z"/><path fill="#2CE69B" d="m1410.676 880.513-3.358 6.092 11.053-1.402 2.991-6.249-10.686 1.56zm17.723-22.547s-93.112 5.285-78.152 71.081c14.96 65.797 119.856 41.101 119.856 41.101s-52.298-6.784-63.227-48.902c-9.475-36.513 21.523-63.28 21.523-63.28zm-13.6 59.343-10.334 3.153 2.727 8.444 9.888-3.846-2.282-7.751z"/></g><g mask="url(#cc)" style="display:block"><path fill="#3D3D3D" d="M1472.102 805.774c-23.24 3.7-30.022 25.288-29.279 39.527.744 14.25 4.38 29.705 23.967 36.696 20.559 7.337 44.65-5.699 45.989-36.005.966-21.868-17.437-43.918-40.677-40.218z"/></g><path fill="#3D3D3D" d="M557.75 265.5c16.983 0 30.75 13.711 30.75 30.625s-13.767 30.625-30.75 30.625S527 313.039 527 296.125s13.767-30.625 30.75-30.625z" transform="rotate(-6 6133.493 -8523.843)" style="display:block"/><path fill="#DB8D74" d="M512.021 320.5c6.639 0 12.02 5.382 12.02 12.021 0 6.639-5.381 12.02-12.02 12.02-6.639 0-12.021-5.381-12.021-12.02 0-6.639 5.382-12.021 12.021-12.021z" transform="rotate(-6 6925.219 -9840.017) scale(.75)" style="display:block"/><g style="display:block"><path fill="#B82C2C" d="M1498.31 902.702a2.511 2.511 0 0 1 3.552.032l21.38 21.771c.972.99.959 2.58-.031 3.553l-.21.205c-7.002 6.877-18.253 6.774-25.129-.227-6.876-7.003-6.774-18.253.228-25.13l.21-.204z"/><path fill="#FD5050" d="M1507.829 933.145a17.69 17.69 0 0 1-9.957-5.11 17.713 17.713 0 0 1-5.091-12.376 17.65 17.65 0 0 1 9.97 5.103 17.668 17.668 0 0 1 5.078 12.383z" opacity=".8"/></g><path stroke-linecap="round" stroke-linejoin="round" stroke="#3D3D3D" stroke-width="24" d="M536.818 374.269c8.057 4.734 26.951 16.388 26.951 16.388l12.016-2.71" fill="none" transform="rotate(-6.001 6125.918 -8633.348)" style="display:block"/><g style="display:block"><path fill="#FFF" d="M1546.976 907.605s4.684-5.066 8.91-9.991c2.41-7.974 3.334-14.691 2.907-22.24-3.543 1.251-5.795 8.749-6.798 12.664l-5.019 19.567zm-3.204-29.589c-4.976-2.309-11.18.157-12.975 5.613l-4.452 13.391c10.947 2.443 16.06 9.047 16.06 9.047l4.86-16.1c1.235-3.751.401-10.267-3.493-11.95z"/><path fill="#3D3D3D" d="M1553.674 882.871c.737-2.761 2.425-4.811 3.772-4.58 1.348.232 1.844 2.658 1.107 5.42l-.464 1.739c-.736 2.761-2.425 4.811-3.773 4.58-1.347-.232-1.844-2.659-1.107-5.42l.465-1.739zm-14.279 2.216c.61-2.758 2.677-4.685 4.618-4.304 1.941.38 3.02 2.925 2.41 5.683l-.385 1.736c-.61 2.758-2.677 4.686-4.618 4.306-1.941-.381-3.02-2.926-2.41-5.683l.385-1.738z"/></g><path stroke-linecap="round" stroke-linejoin="round" stroke="#3D3D3D" stroke-width="12" d="M568.75 333.5s7.5-2 11.5 1m17.608 3.473s7.344 2.513 8.997 7.232" fill="none" transform="rotate(-13 3371.808 -3626.748)" style="display:block"/><path fill="#DB8D74" d="M571.295 372.25c4.029 0 7.295 3.217 7.295 7.186s-3.266 7.186-7.295 7.186-7.295-3.217-7.295-7.186 3.266-7.186 7.295-7.186z" transform="rotate(-6 5787.619 -8069.133) scale(1.1)" style="display:block"/></g></g><g style="display:block"><path fill="#DB8D74" d="M1426.482 950.142c-7.733 3.358-18.58 7.433-15.632 17.87 2.647 9.368 14.428 8.414 22.007 4.922 3.967 4.669 9.756 1.055 7.452-3.811-3.858-8.147-7.33-21.802-13.827-18.98z"/><path stroke-linecap="round" stroke-linejoin="round" stroke="#FFAADE" stroke-width="25" d="m1433.348 928.641-1.712 27.719" fill="none"/></g></g></g></svg>