<svg xmlns="http://www.w3.org/2000/svg" xmlns:xlink="http://www.w3.org/1999/xlink" width="1080" height="1080" style="width:100%;height:100%;transform:translate3d(0,0,0);content-visibility:visible"><defs><mask id="dK" mask-type="alpha"><use xlink:href="#a"/></mask><mask id="dJ" mask-type="alpha"><use xlink:href="#b"/></mask><mask id="dH" mask-type="alpha"><use xlink:href="#c"/></mask><mask id="dG" mask-type="alpha"><use xlink:href="#d"/></mask><mask id="dE" mask-type="alpha"><use xlink:href="#f"/></mask><mask id="dD" mask-type="alpha"><use xlink:href="#h"/></mask><mask id="dB" mask-type="alpha"><use xlink:href="#j"/></mask><mask id="dz" mask-type="alpha"><use xlink:href="#l"/></mask><mask id="dy" mask-type="alpha"><use xlink:href="#n"/></mask><mask id="o"><path fill="#fff" d="M0 0h1080v1080H0z"/></mask><mask id="dw" mask-type="alpha"><use xlink:href="#p"/></mask><mask id="dv"><path fill="#fff" d="M0 0h1080v1080H0z"/></mask><mask id="du" mask-type="alpha"><use xlink:href="#r"/></mask><mask id="dt" mask-type="alpha"><use xlink:href="#t"/></mask><mask id="dx" mask-type="alpha"><use xlink:href="#u"/></mask><mask id="dq" mask-type="alpha"><use xlink:href="#w"/></mask><mask id="dp" mask-type="alpha"><use xlink:href="#y"/></mask><mask id="dn" mask-type="alpha"><use xlink:href="#A"/></mask><mask id="dl" mask-type="alpha"><use xlink:href="#C"/></mask><mask id="dk" mask-type="alpha"><use xlink:href="#E"/></mask><mask id="F"><path fill="#fff" transform="translate(-540 -540)" d="M0 0h1080v1080H0z"/><path d="m-311.53 285.181 31.84 37.839 26.72-44.719-58.56 6.88"/></mask><mask id="di" mask-type="alpha"><use xlink:href="#G"/></mask><mask id="dh"><path fill="#fff" transform="translate(-540 -540)" d="M0 0h1080v1080H0z"/><path d="m-311.53 285.181 31.84 37.839 26.72-44.719-58.56 6.88"/></mask><mask id="dg" mask-type="alpha"><use xlink:href="#I"/></mask><mask id="df" mask-type="alpha"><use xlink:href="#K"/></mask><mask id="dj" mask-type="alpha"><use xlink:href="#L"/></mask><mask id="da" mask-type="alpha"><use xlink:href="#M"/></mask><mask id="cZ" mask-type="alpha"><use xlink:href="#N"/></mask><mask id="cX" mask-type="alpha"><use xlink:href="#O"/></mask><mask id="cV" mask-type="alpha"><use xlink:href="#P"/></mask><mask id="cU" mask-type="alpha"><use xlink:href="#Q"/></mask><mask id="cW" mask-type="alpha"><use xlink:href="#R"/></mask><mask id="cS" mask-type="alpha"><use xlink:href="#T"/></mask><mask id="cR" mask-type="alpha"><use xlink:href="#V"/></mask><mask id="cP" mask-type="alpha"><use xlink:href="#X"/></mask><mask id="cN" mask-type="alpha"><use xlink:href="#Z"/></mask><mask id="cM" mask-type="alpha"><use xlink:href="#ab"/></mask><mask id="ac"><path fill="#fff" transform="translate(-540 -540)" d="M0 0h1080v1080H0z"/><path d="m-311.53 285.181 31.84 37.839 26.72-44.719-58.56 6.88"/></mask><mask id="cK" mask-type="alpha"><use xlink:href="#ad"/></mask><mask id="cJ"><path fill="#fff" transform="translate(-540 -540)" d="M0 0h1080v1080H0z"/><path d="m-311.53 285.181 31.84 37.839 26.72-44.719-58.56 6.88"/></mask><mask id="cI" mask-type="alpha"><use xlink:href="#af"/></mask><mask id="cH" mask-type="alpha"><use xlink:href="#ah"/></mask><mask id="cL" mask-type="alpha"><use xlink:href="#ai"/></mask><mask id="cE" mask-type="alpha"><use xlink:href="#ak"/></mask><mask id="cD" mask-type="alpha"><use xlink:href="#am"/></mask><mask id="cB" mask-type="alpha"><use xlink:href="#ao"/></mask><mask id="cz" mask-type="alpha"><use xlink:href="#aq"/></mask><mask id="cy" mask-type="alpha"><use xlink:href="#as"/></mask><mask id="at"><path fill="#fff" d="M0 0h1080v1080H0z"/></mask><mask id="cw" mask-type="alpha"><use xlink:href="#au"/></mask><mask id="cv"><path fill="#fff" d="M0 0h1080v1080H0z"/></mask><mask id="cu" mask-type="alpha"><use xlink:href="#aw"/></mask><mask id="ct" mask-type="alpha"><use xlink:href="#ay"/></mask><mask id="cx" mask-type="alpha"><use xlink:href="#az"/></mask><mask id="co" mask-type="alpha"><use xlink:href="#aA"/></mask><mask id="cn" mask-type="alpha"><use xlink:href="#aB"/></mask><mask id="cl" mask-type="alpha"><use xlink:href="#aC"/></mask><mask id="cj" mask-type="alpha"><use xlink:href="#aD"/></mask><mask id="ci" mask-type="alpha"><use xlink:href="#aE"/></mask><mask id="ck" mask-type="alpha"><use xlink:href="#aF"/></mask><mask id="cg" mask-type="alpha"><use xlink:href="#aH"/></mask><mask id="cf" mask-type="alpha"><use xlink:href="#aJ"/></mask><mask id="cd" mask-type="alpha"><use xlink:href="#aL"/></mask><mask id="cb" mask-type="alpha"><use xlink:href="#aN"/></mask><mask id="ca" mask-type="alpha"><use xlink:href="#aP"/></mask><mask id="aQ"><path fill="#fff" transform="translate(-540 -540)" d="M0 0h1080v1080H0z"/><path d="m-311.53 285.181 31.84 37.839 26.72-44.719-58.56 6.88"/></mask><mask id="bY" mask-type="alpha"><use xlink:href="#aR"/></mask><mask id="bX"><path fill="#fff" transform="translate(-540 -540)" d="M0 0h1080v1080H0z"/><path d="m-311.53 285.181 31.84 37.839 26.72-44.719-58.56 6.88"/></mask><mask id="bW" mask-type="alpha"><use xlink:href="#aT"/></mask><mask id="bV" mask-type="alpha"><use xlink:href="#aV"/></mask><mask id="bZ" mask-type="alpha"><use xlink:href="#aW"/></mask><mask id="bS" mask-type="alpha"><use xlink:href="#aY"/></mask><mask id="bR" mask-type="alpha"><use xlink:href="#ba"/></mask><mask id="bP" mask-type="alpha"><use xlink:href="#bc"/></mask><mask id="bN" mask-type="alpha"><use xlink:href="#be"/></mask><mask id="bM" mask-type="alpha"><use xlink:href="#bg"/></mask><mask id="bh"><path fill="#fff" transform="translate(-549.143 -537.825)" d="M0 0h1080v1080H0z"/><path d="m-311.53 285.181 31.84 37.839 26.72-44.719-58.56 6.88"/></mask><mask id="bK" mask-type="alpha"><use xlink:href="#bi"/></mask><mask id="bJ"><path fill="#fff" transform="translate(-549.143 -537.825)" d="M0 0h1080v1080H0z"/><path d="m-311.53 285.181 31.84 37.839 26.72-44.719-58.56 6.88"/></mask><mask id="bI" mask-type="alpha"><use xlink:href="#bk"/></mask><mask id="bH" mask-type="alpha"><use xlink:href="#bm"/></mask><mask id="bL" mask-type="alpha"><use xlink:href="#bn"/></mask><mask id="bC" mask-type="alpha"><use xlink:href="#bo"/></mask><mask id="bB" mask-type="alpha"><use xlink:href="#bp"/></mask><mask id="bz" mask-type="alpha"><use xlink:href="#bq"/></mask><mask id="bx" mask-type="alpha"><use xlink:href="#br"/></mask><mask id="bw" mask-type="alpha"><use xlink:href="#bs"/></mask><mask id="by" mask-type="alpha"><use xlink:href="#bt"/></mask><clipPath id="bu"><path d="M0 0h1080v1080H0z"/></clipPath><clipPath id="dF"><path d="M0 0h1080v1080H0z"/></clipPath><clipPath id="dI"><path d="M0 0h1080v1080H0z"/></clipPath><clipPath id="cT"><path d="M0 0h1080v1080H0z"/></clipPath><clipPath id="dr"><path d="M0 0h1080v1080H0z"/></clipPath><clipPath id="e"/><clipPath id="g"/><clipPath id="i"><path d="M0 0h1080v1080H0z"/></clipPath><clipPath id="dC"/><clipPath id="k"><path d="M0 0h1080v1080H0z"/></clipPath><clipPath id="dA"/><clipPath id="m"><path d="M0 0h1080v1080H0z"/></clipPath><clipPath id="q"><path d="M0 0h1080v1080H0z"/></clipPath><clipPath id="s"><path d="M0 0h1080v1080H0z"/></clipPath><clipPath id="ds"><path d="M0 0h1080v1080H0z"/></clipPath><clipPath id="dd"><path d="M0 0h1080v1080H0z"/></clipPath><clipPath id="v"><path fill="#fff" d="m-320.68 207.98.207 14.227s5.737 2.458 16.976 3.129c8.485.507 17.497-1.574 17.497-1.574l.041-14.201s-6.255-.768-16.735-1.041c-10.051-.262-17.986-.54-17.986-.54"/></clipPath><clipPath id="x"><path fill="#fff" d="m-320.68 207.98.207 14.227s5.737 2.458 16.976 3.129c8.485.507 17.497-1.574 17.497-1.574l.041-14.201s-6.255-.768-16.735-1.041c-10.051-.262-17.986-.54-17.986-.54"/></clipPath><clipPath id="z"><path d="M0 0h1080v1080H0z"/></clipPath><clipPath id="do"><path fill="#fff" d="m-320.68 207.98.207 14.227s5.737 2.458 16.976 3.129c8.485.507 17.497-1.574 17.497-1.574l.041-14.201s-6.255-.768-16.735-1.041c-10.051-.262-17.986-.54-17.986-.54"/></clipPath><clipPath id="B"><path d="M0 0h1080v1080H0z"/></clipPath><clipPath id="dm"><path fill="#fff" d="m-320.68 207.98.207 14.227s5.737 2.458 16.976 3.129c8.485.507 17.497-1.574 17.497-1.574l.041-14.201s-6.255-.768-16.735-1.041c-10.051-.262-17.986-.54-17.986-.54"/></clipPath><clipPath id="D"><path d="M0 0h1080v1080H0z"/></clipPath><clipPath id="H"><path d="M0 0h1080v1080H0z"/></clipPath><clipPath id="J"><path d="M0 0h1080v1080H0z"/></clipPath><clipPath id="de"><path d="M0 0h1080v1080H0z"/></clipPath><clipPath id="dc"><path d="M0 0h182v187H0z"/></clipPath><clipPath id="db"><path d="M0 0h182v187H0z"/></clipPath><clipPath id="cY"><path d="M0 0h182v187H0z"/></clipPath><clipPath id="ch"><path d="M0 0h1080v1080H0z"/></clipPath><clipPath id="cF"><path d="M0 0h1080v1080H0z"/></clipPath><clipPath id="S"><path fill="#fff" d="m-320.68 207.98.207 14.227s5.737 2.458 16.976 3.129c8.485.507 17.497-1.574 17.497-1.574l.041-14.201s-6.255-.768-16.735-1.041c-10.051-.262-17.986-.54-17.986-.54"/></clipPath><clipPath id="U"><path fill="#fff" d="m-320.68 207.98.207 14.227s5.737 2.458 16.976 3.129c8.485.507 17.497-1.574 17.497-1.574l.041-14.201s-6.255-.768-16.735-1.041c-10.051-.262-17.986-.54-17.986-.54"/></clipPath><clipPath id="W"><path d="M0 0h1080v1080H0z"/></clipPath><clipPath id="cQ"><path fill="#fff" d="m-320.68 207.98.207 14.227s5.737 2.458 16.976 3.129c8.485.507 17.497-1.574 17.497-1.574l.041-14.201s-6.255-.768-16.735-1.041c-10.051-.262-17.986-.54-17.986-.54"/></clipPath><clipPath id="Y"><path d="M0 0h1080v1080H0z"/></clipPath><clipPath id="cO"><path fill="#fff" d="m-320.68 207.98.207 14.227s5.737 2.458 16.976 3.129c8.485.507 17.497-1.574 17.497-1.574l.041-14.201s-6.255-.768-16.735-1.041c-10.051-.262-17.986-.54-17.986-.54"/></clipPath><clipPath id="aa"><path d="M0 0h1080v1080H0z"/></clipPath><clipPath id="ae"><path d="M0 0h1080v1080H0z"/></clipPath><clipPath id="ag"><path d="M0 0h1080v1080H0z"/></clipPath><clipPath id="cG"><path d="M0 0h1080v1080H0z"/></clipPath><clipPath id="cr"><path d="M0 0h1080v1080H0z"/></clipPath><clipPath id="aj"/><clipPath id="al"/><clipPath id="an"><path d="M0 0h1080v1080H0z"/></clipPath><clipPath id="cC"/><clipPath id="ap"><path d="M0 0h1080v1080H0z"/></clipPath><clipPath id="cA"/><clipPath id="ar"><path d="M0 0h1080v1080H0z"/></clipPath><clipPath id="av"><path d="M0 0h1080v1080H0z"/></clipPath><clipPath id="ax"><path d="M0 0h1080v1080H0z"/></clipPath><clipPath id="cs"><path d="M0 0h1080v1080H0z"/></clipPath><clipPath id="cq"><path d="M0 0h182v187H0z"/></clipPath><clipPath id="cp"><path d="M0 0h182v187H0z"/></clipPath><clipPath id="cm"><path d="M0 0h182v187H0z"/></clipPath><clipPath id="bv"><path d="M0 0h1080v1080H0z"/></clipPath><clipPath id="bT"><path d="M0 0h1080v1080H0z"/></clipPath><clipPath id="aG"><path fill="#fff" d="m-320.68 207.98.207 14.227s5.737 2.458 16.976 3.129c8.485.507 17.497-1.574 17.497-1.574l.041-14.201s-6.255-.768-16.735-1.041c-10.051-.262-17.986-.54-17.986-.54"/></clipPath><clipPath id="aI"><path fill="#fff" d="m-320.68 207.98.207 14.227s5.737 2.458 16.976 3.129c8.485.507 17.497-1.574 17.497-1.574l.041-14.201s-6.255-.768-16.735-1.041c-10.051-.262-17.986-.54-17.986-.54"/></clipPath><clipPath id="aK"><path d="M0 0h1080v1080H0z"/></clipPath><clipPath id="ce"><path fill="#fff" d="m-320.68 207.98.207 14.227s5.737 2.458 16.976 3.129c8.485.507 17.497-1.574 17.497-1.574l.041-14.201s-6.255-.768-16.735-1.041c-10.051-.262-17.986-.54-17.986-.54"/></clipPath><clipPath id="aM"><path d="M0 0h1080v1080H0z"/></clipPath><clipPath id="cc"><path fill="#fff" d="m-320.68 207.98.207 14.227s5.737 2.458 16.976 3.129c8.485.507 17.497-1.574 17.497-1.574l.041-14.201s-6.255-.768-16.735-1.041c-10.051-.262-17.986-.54-17.986-.54"/></clipPath><clipPath id="aO"><path d="M0 0h1080v1080H0z"/></clipPath><clipPath id="aS"><path d="M0 0h1080v1080H0z"/></clipPath><clipPath id="aU"><path d="M0 0h1080v1080H0z"/></clipPath><clipPath id="bU"><path d="M0 0h1080v1080H0z"/></clipPath><clipPath id="bF"><path d="M0 0h1080v1080H0z"/></clipPath><clipPath id="aX"><path fill="#fff" d="m-320.662 207.992.189 14.215s5.737 2.458 16.976 3.129c8.485.507 17.497-1.574 17.497-1.574l.041-14.201s-6.217-.81-16.728-1.084c-10.051-.262-17.975-.485-17.975-.485"/></clipPath><clipPath id="aZ"><path fill="#fff" d="m-320.662 207.992.189 14.215s5.737 2.458 16.976 3.129c8.485.507 17.497-1.574 17.497-1.574l.041-14.201s-6.217-.81-16.728-1.084c-10.051-.262-17.975-.485-17.975-.485"/></clipPath><clipPath id="bb"><path d="M0 0h1080v1080H0z"/></clipPath><clipPath id="bQ"><path fill="#fff" d="m-320.662 207.992.189 14.215s5.737 2.458 16.976 3.129c8.485.507 17.497-1.574 17.497-1.574l.041-14.201s-6.217-.81-16.728-1.084c-10.051-.262-17.975-.485-17.975-.485"/></clipPath><clipPath id="bd"><path d="M0 0h1080v1080H0z"/></clipPath><clipPath id="bO"><path fill="#fff" d="m-320.662 207.992.189 14.215s5.737 2.458 16.976 3.129c8.485.507 17.497-1.574 17.497-1.574l.041-14.201s-6.217-.81-16.728-1.084c-10.051-.262-17.975-.485-17.975-.485"/></clipPath><clipPath id="bf"><path d="M0 0h1080v1080H0z"/></clipPath><clipPath id="bj"><path d="M0 0h1080v1080H0z"/></clipPath><clipPath id="bl"><path d="M0 0h1080v1080H0z"/></clipPath><clipPath id="bG"><path d="M0 0h1080v1080H0z"/></clipPath><clipPath id="bE"><path d="M0 0h182v187H0z"/></clipPath><clipPath id="bD"><path d="M0 0h182v187H0z"/></clipPath><clipPath id="bA"><path d="M0 0h182v187H0z"/></clipPath><g clip-path="url(#v)" transform="scale(-1 1) rotate(6 -5440.502 784.813)" style="display:block" id="w"><path fill="#FFF" d="M16.861-5.909V5.909c0 7.65-6.21 13.862-13.861 13.862-7.65 0-13.861-6.212-13.861-13.862V-5.909c0-7.65 6.21-13.862 13.861-13.862 7.65 0 13.861 6.212 13.861 13.862z" transform="translate(-304.824 219.726)"/></g><g clip-path="url(#x)" transform="rotate(-6 5157.866 -4658.856)" style="display:block" id="y"><path fill="#FFF" d="M16.861-5.909V5.909c0 7.65-6.21 13.862-13.861 13.862-7.65 0-13.861-6.212-13.861-13.862V-5.909c0-7.65 6.21-13.862 13.861-13.862 7.65 0 13.861 6.212 13.861 13.862z" transform="translate(-304.824 219.726)"/></g><g clip-path="url(#z)" style="display:block" id="A"><path stroke-linecap="round" stroke-linejoin="round" fill-opacity="0" stroke="#DA8E74" stroke-width="125" d="M-298 235c7 29.5 11.5 88.5 9 112.5" transform="translate(540 540)" style="display:block"/></g><g clip-path="url(#B)" style="display:block" id="C"><path stroke-linecap="round" stroke-linejoin="round" fill-opacity="0" stroke="#DA8E74" stroke-width="125" d="M-298 235c7 29.5 11.5 88.5 9 112.5" transform="translate(540 540)" style="display:block"/></g><g clip-path="url(#D)" style="display:block" id="E"><path stroke-linecap="round" stroke-linejoin="round" fill-opacity="0" stroke="#DA8E74" stroke-width="125" d="M-298 235c7 29.5 11.5 88.5 9 112.5" transform="translate(540 540)" style="display:block"/></g><g mask="url(#F)" transform="translate(540 540)" style="display:block" id="G"><path fill-opacity="0" stroke="#A56644" stroke-width="18" d="M-190.5 464V353s-32-10-84.5-9.5-97 18.5-97 18.5l3.5 102h178z"/></g><g clip-path="url(#H)" style="display:block" id="I"><path stroke-linecap="round" stroke-linejoin="round" fill-opacity="0" stroke="#DA8E74" stroke-width="125" d="M-298 235c7 29.5 11.5 88.5 9 112.5" transform="translate(540 540)" style="display:block"/></g><g clip-path="url(#J)" style="display:block" id="K"><path stroke-linecap="round" stroke-linejoin="round" fill-opacity="0" stroke="#DA8E74" stroke-width="125" d="M-298 235c7 29.5 11.5 88.5 9 112.5" transform="translate(540 540)" style="display:block"/></g><g style="display:block" id="Q"><path fill="#FDE371" d="M101.5-26.909V26.91c0 2.759-2.24 5-5 5h-193c-2.76 0-5-2.241-5-5V-26.91c0-2.759 2.24-5 5-5h193c2.76 0 5 2.241 5 5z" transform="translate(531.5 815)"/><path fill-opacity="0" stroke="#F8C55A" stroke-width="10" d="M633 788.091v53.818c0 2.759-2.24 5-5 5H435c-2.76 0-5-2.241-5-5V788.09c0-2.759 2.24-5 5-5h193c2.76 0 5 2.241 5 5z"/></g><g clip-path="url(#S)" style="display:block" transform="scale(-1 1) rotate(6 -5440.453 784.29)" id="T"><path fill="#FFF" d="M16.861-5.909V5.909c0 7.65-6.21 13.862-13.861 13.862-7.65 0-13.861-6.212-13.861-13.862V-5.909c0-7.65 6.21-13.862 13.861-13.862 7.65 0 13.861 6.212 13.861 13.862z" transform="translate(-304.824 219.726)"/></g><g clip-path="url(#U)" style="display:block" transform="rotate(-6 5157.816 -4659.38)" id="V"><path fill="#FFF" d="M16.861-5.909V5.909c0 7.65-6.21 13.862-13.861 13.862-7.65 0-13.861-6.212-13.861-13.862V-5.909c0-7.65 6.21-13.862 13.861-13.862 7.65 0 13.861 6.212 13.861 13.862z" transform="translate(-304.824 219.726)"/></g><g clip-path="url(#W)" style="display:block" id="X"><path stroke-linecap="round" stroke-linejoin="round" fill-opacity="0" stroke="#DA8E74" stroke-width="125" d="M-298 235c7 29.5 11.5 88.5 9 112.5" transform="translate(540 540)" style="display:block"/></g><g clip-path="url(#Y)" style="display:block" id="Z"><path stroke-linecap="round" stroke-linejoin="round" fill-opacity="0" stroke="#DA8E74" stroke-width="125" d="M-298 235c7 29.5 11.5 88.5 9 112.5" transform="translate(540 540)" style="display:block"/></g><g clip-path="url(#aa)" style="display:block" id="ab"><path stroke-linecap="round" stroke-linejoin="round" fill-opacity="0" stroke="#DA8E74" stroke-width="125" d="M-298 235c7 29.5 11.5 88.5 9 112.5" transform="translate(540 540)" style="display:block"/></g><g mask="url(#ac)" style="display:block" transform="translate(540 540)" id="ad"><path fill-opacity="0" stroke="#A56644" stroke-width="18" d="M-190.5 464V353s-32-10-84.5-9.5-97 18.5-97 18.5l3.5 102h178z"/></g><g clip-path="url(#ae)" style="display:block" id="af"><path stroke-linecap="round" stroke-linejoin="round" fill-opacity="0" stroke="#DA8E74" stroke-width="125" d="M-298 235c7 29.5 11.5 88.5 9 112.5" transform="translate(540 540)" style="display:block"/></g><g clip-path="url(#ag)" style="display:block" id="ah"><path stroke-linecap="round" stroke-linejoin="round" fill-opacity="0" stroke="#DA8E74" stroke-width="125" d="M-298 235c7 29.5 11.5 88.5 9 112.5" transform="translate(540 540)" style="display:block"/></g><g clip-path="url(#aG)" style="display:block" transform="scale(-1 1) rotate(6 -5440.502 784.813)" id="aH"><path fill="#FFF" d="M16.861-5.909V5.909c0 7.65-6.21 13.862-13.861 13.862-7.65 0-13.861-6.212-13.861-13.862V-5.909c0-7.65 6.21-13.862 13.861-13.862 7.65 0 13.861 6.212 13.861 13.862z" transform="translate(-304.824 219.726)"/></g><g clip-path="url(#aI)" style="display:block" transform="rotate(-6 5157.866 -4658.856)" id="aJ"><path fill="#FFF" d="M16.861-5.909V5.909c0 7.65-6.21 13.862-13.861 13.862-7.65 0-13.861-6.212-13.861-13.862V-5.909c0-7.65 6.21-13.862 13.861-13.862 7.65 0 13.861 6.212 13.861 13.862z" transform="translate(-304.824 219.726)"/></g><g clip-path="url(#aK)" style="display:block" id="aL"><path stroke-linecap="round" stroke-linejoin="round" fill-opacity="0" stroke="#DA8E74" stroke-width="125" d="M-298 235c7 29.5 11.5 88.5 9 112.5" transform="translate(540 540)" style="display:block"/></g><g clip-path="url(#aM)" style="display:block" id="aN"><path stroke-linecap="round" stroke-linejoin="round" fill-opacity="0" stroke="#DA8E74" stroke-width="125" d="M-298 235c7 29.5 11.5 88.5 9 112.5" transform="translate(540 540)" style="display:block"/></g><g clip-path="url(#aO)" style="display:block" id="aP"><path stroke-linecap="round" stroke-linejoin="round" fill-opacity="0" stroke="#DA8E74" stroke-width="125" d="M-298 235c7 29.5 11.5 88.5 9 112.5" transform="translate(540 540)" style="display:block"/></g><g mask="url(#aQ)" style="display:block" transform="translate(540 540)" id="aR"><path fill-opacity="0" stroke="#A56644" stroke-width="18" d="M-190.5 464V353s-32-10-84.5-9.5-97 18.5-97 18.5l3.5 102h178z"/></g><g clip-path="url(#aS)" style="display:block" id="aT"><path stroke-linecap="round" stroke-linejoin="round" fill-opacity="0" stroke="#DA8E74" stroke-width="125" d="M-298 235c7 29.5 11.5 88.5 9 112.5" transform="translate(540 540)" style="display:block"/></g><g clip-path="url(#aU)" style="display:block" id="aV"><path stroke-linecap="round" stroke-linejoin="round" fill-opacity="0" stroke="#DA8E74" stroke-width="125" d="M-298 235c7 29.5 11.5 88.5 9 112.5" transform="translate(540 540)" style="display:block"/></g><g clip-path="url(#aX)" style="display:block" transform="scale(-1 1) rotate(6 -5440.749 784.615)" id="aY"><path fill="#FFF" d="M16.861-5.909V5.909c0 7.65-6.21 13.862-13.861 13.862-7.65 0-13.861-6.212-13.861-13.862V-5.909c0-7.65 6.21-13.862 13.861-13.862 7.65 0 13.861 6.212 13.861 13.862z" transform="translate(-304.824 219.726)"/></g><g clip-path="url(#aZ)" style="display:block" transform="rotate(-6 5158.112 -4659.054)" id="ba"><path fill="#FFF" d="M16.861-5.909V5.909c0 7.65-6.21 13.862-13.861 13.862-7.65 0-13.861-6.212-13.861-13.862V-5.909c0-7.65 6.21-13.862 13.861-13.862 7.65 0 13.861 6.212 13.861 13.862z" transform="translate(-304.824 219.726)"/></g><g clip-path="url(#bb)" style="display:block" id="bc"><path stroke-linecap="round" stroke-linejoin="round" fill-opacity="0" stroke="#DA8E74" stroke-width="125" d="M-298 235c7 29.5 11.5 88.5 9 112.5" transform="translate(540 540)" style="display:block"/></g><g clip-path="url(#bd)" style="display:block" id="be"><path stroke-linecap="round" stroke-linejoin="round" fill-opacity="0" stroke="#DA8E74" stroke-width="125" d="M-298 235c7 29.5 11.5 88.5 9 112.5" transform="translate(540 540)" style="display:block"/></g><g clip-path="url(#bf)" style="display:block" id="bg"><path stroke-linecap="round" stroke-linejoin="round" fill-opacity="0" stroke="#DA8E74" stroke-width="125" d="M-298 235c7 29.5 11.5 88.5 9 112.5" transform="translate(540 540)" style="display:block"/></g><g mask="url(#bh)" style="display:block" transform="translate(540 540)" id="bi"><path fill-opacity="0" stroke="#A56644" stroke-width="18" d="M-190.5 464V353s-32-10-84.5-9.5-97 18.5-97 18.5l3.5 102h178z"/></g><g clip-path="url(#bj)" style="display:block" id="bk"><path stroke-linecap="round" stroke-linejoin="round" fill-opacity="0" stroke="#DA8E74" stroke-width="125" d="M-298 235c7 29.5 11.5 88.5 9 112.5" transform="translate(540 540)" style="display:block"/></g><g clip-path="url(#bl)" style="display:block" id="bm"><path stroke-linecap="round" stroke-linejoin="round" fill-opacity="0" stroke="#DA8E74" stroke-width="125" d="M-298 235c7 29.5 11.5 88.5 9 112.5" transform="translate(540 540)" style="display:block"/></g><g style="display:block" id="bs"><path fill="#FDE371" d="M101.5-26.909V26.91c0 2.759-2.24 5-5 5h-193c-2.76 0-5-2.241-5-5V-26.91c0-2.759 2.24-5 5-5h193c2.76 0 5 2.241 5 5z" transform="translate(531.5 815)"/><path fill-opacity="0" stroke="#F8C55A" stroke-width="10" d="M633 788.091v53.818c0 2.759-2.24 5-5 5H435c-2.76 0-5-2.241-5-5V788.09c0-2.759 2.24-5 5-5h193c2.76 0 5 2.241 5 5z"/></g><path fill="#B16900" d="M-1.213-8.23a5.141 5.141 0 0 1 5.142 5.142V-5.28A5.14 5.14 0 0 1-1.213-.139 5.141 5.141 0 0 1-6.355-5.28v2.192A5.142 5.142 0 0 1-1.213-8.23z" transform="matrix(1.843 -.02658 .0273 1.8046 810.735 291.301)" style="display:block" id="a"/><path fill="#57CC02" d="M-53.236-45.682c-.619-17.079 16.976-22.949 27.322-14.925 3.488 2.706 8.079 5.489 11.155 5.535 6.111.092 21.761-2.951 40.486-6.922 12.258-2.6 26.811.574 27.509 16.312.698 15.738 0 55.918 0 55.918 0 29.401-23.835 53.235-53.237 53.235-29.401 0-53.235-23.834-53.235-53.235v-55.918z" transform="scale(1.92) rotate(-3.885 2581.661 -6362.019)" style="display:block" id="b"/><path fill="#57CC02" d="M-53.236-45.682c-.619-17.079 16.976-22.949 27.322-14.925 3.488 2.706 8.079 5.489 11.155 5.535 6.111.092 21.761-2.951 40.486-6.922 12.258-2.6 26.811.574 27.509 16.312.698 15.738 0 55.918 0 55.918 0 29.401-23.835 53.235-53.237 53.235-29.401 0-53.235-23.834-53.235-53.235v-55.918z" transform="scale(1.92) rotate(-3.885 2581.661 -6362.019)" style="display:block" id="c"/><path fill="#57CC02" d="M-53.236-45.682c-.619-17.079 16.976-22.949 27.322-14.925 3.488 2.706 8.079 5.489 11.155 5.535 6.111.092 21.761-2.951 40.486-6.922 12.258-2.6 26.811.574 27.509 16.312.698 15.738 0 55.918 0 55.918 0 29.401-23.835 53.235-53.237 53.235-29.401 0-53.235-23.834-53.235-53.235v-55.918z" transform="scale(1.92) rotate(-3.885 2581.661 -6362.019)" style="display:block" id="d"/><path fill="#FFF" d="M28.875 0c0 8.072-6.553 14.625-14.625 14.625h-28.5c-8.072 0-14.625-6.553-14.625-14.625s6.553-14.625 14.625-14.625h28.5c8.072 0 14.625 6.553 14.625 14.625z" transform="translate(91 105.376)" style="display:block" id="M"/><path fill="#1EB0F6" d="M0-65.5c35.25.23 60.07 29.626 60.505 58.638C60.75 9.5 45.5 10 45.5 10h-91S-61 9.875-60.775-8.04C-60.469-32.374-38.375-65.75 0-65.5z" transform="translate(91.135 121.251)" style="display:block" id="N"/><path fill="#FDE371" d="M97-26.909V26.91H-97V-26.91H97z" transform="translate(531.5 815.5)" style="display:block" id="P"/><path fill="#FFF" d="M28.875 0c0 8.072-6.553 14.625-14.625 14.625h-28.5c-8.072 0-14.625-6.553-14.625-14.625s6.553-14.625 14.625-14.625h28.5c8.072 0 14.625 6.553 14.625 14.625z" transform="translate(91 105.376)" style="display:block" id="aA"/><path fill="#1EB0F6" d="M0-65.5c35.25.23 60.07 29.626 60.505 58.638C60.75 9.5 45.5 10 45.5 10h-91S-61 9.875-60.775-8.04C-60.469-32.374-38.375-65.75 0-65.5z" transform="translate(91.135 121.251)" style="display:block" id="aB"/><path fill="#FFF" d="M28.875 0c0 8.072-6.553 14.625-14.625 14.625h-28.5c-8.072 0-14.625-6.553-14.625-14.625s6.553-14.625 14.625-14.625h28.5c8.072 0 14.625 6.553 14.625 14.625z" transform="translate(91 105.376)" style="display:block" id="bo"/><path fill="#1EB0F6" d="M0-65.5c35.25.23 60.07 29.626 60.505 58.638C60.75 9.5 45.5 10 45.5 10h-91S-61 9.875-60.775-8.04C-60.469-32.374-38.375-65.75 0-65.5z" transform="translate(91.135 121.251)" style="display:block" id="bp"/><path fill="#FDE371" d="M97-26.909V26.91H-97V-26.91H97z" transform="translate(531.5 815.5)" style="display:block" id="br"/></defs><g clip-path="url(#bu)"><g clip-path="url(#bv)" style="display:block"><g style="display:block"><path fill="#FFF" d="M721 157.266v565.468c0 20.972-17.028 38-38 38H377c-20.972 0-38-17.028-38-38V157.266c0-20.972 17.028-38 38-38h306c20.972 0 38 17.028 38 38z"/><path stroke-linecap="round" stroke-linejoin="round" stroke="#F3C35B" stroke-width="15" d="M721 157.266v565.468c0 20.972-17.028 38-38 38H377c-20.972 0-38-17.028-38-38V157.266c0-20.972 17.028-38 38-38h306c20.972 0 38 17.028 38 38z" fill="none"/><path fill="#FFF" d="M390 197h278.5"/><path stroke-linecap="round" stroke-linejoin="round" stroke="#E5E5E5" stroke-width="26" d="M390 197h278.5" fill="none"/><path fill="#FFF" d="M390 197h80.765"/><path stroke-linecap="round" stroke-linejoin="round" stroke="#89E219" stroke-width="26" d="M390 197h80.765" fill="none"/></g><g mask="url(#bw)" style="display:block"><path fill="#FCE272" d="m712.372 766.75-107 109.75-44.5-.25 107-109.75 44.5.25z"/></g><g mask="url(#bx)" style="display:block"><path fill="#FEF18F" d="m712.372 766.75-107 109.75-44.5-.25 107-109.75 44.5.25z"/></g><g style="display:block"><path fill="#FFF" d="M572.524 822.214c.715 0 .6 4.367 3.839 7.605 3.238 3.238 7.605 3.124 7.605 3.839 0 .715-4.367.6-7.605 3.839-3.238 3.238-3.124 7.605-3.839 7.605-.715 0-.6-4.367-3.84-7.605-3.237-3.238-7.604-3.124-7.604-3.839 0-.715 4.367-.6 7.605-3.839 3.238-3.238 3.124-7.605 3.839-7.605z"/><path stroke-linecap="round" stroke-linejoin="round" stroke="#FFF" stroke-width="1.06278" d="M572.524 822.214c.715 0 .6 4.367 3.839 7.605 3.238 3.238 7.605 3.124 7.605 3.839 0 .715-4.367.6-7.605 3.839-3.238 3.238-3.124 7.605-3.839 7.605-.715 0-.6-4.367-3.84-7.605-3.237-3.238-7.604-3.124-7.604-3.839 0-.715 4.367-.6 7.605-3.839 3.238-3.238 3.124-7.605 3.839-7.605z" fill="none"/></g><g style="display:block"><path fill="#FFF" d="M594.274 808.318c.449 0 .33 3.291 2.11 5.072 1.78 1.78 5.072 1.661 5.072 2.11 0 .449-3.291.33-5.072 2.11-1.78 1.78-1.661 5.072-2.11 5.072-.449 0-.33-3.291-2.11-5.072-1.78-1.78-5.072-1.661-5.072-2.11 0-.449 3.291-.33 5.072-2.11 1.78-1.78 1.661-5.072 2.11-5.072z"/><path stroke-linecap="round" stroke-linejoin="round" stroke="#FFF" stroke-width=".58632" d="M594.274 808.318c.449 0 .33 3.291 2.11 5.072 1.78 1.78 5.072 1.661 5.072 2.11 0 .449-3.291.33-5.072 2.11-1.78 1.78-1.661 5.072-2.11 5.072-.449 0-.33-3.291-2.11-5.072-1.78-1.78-5.072-1.661-5.072-2.11 0-.449 3.291-.33 5.072-2.11 1.78-1.78 1.661-5.072 2.11-5.072z" fill="none"/></g><g style="display:block"><path fill="#FDE371" d="M633 788.091v53.818c0 2.759-2.24 5-5 5H435c-2.76 0-5-2.241-5-5V788.09c0-2.759 2.24-5 5-5h193c2.76 0 5 2.241 5 5z"/><path stroke="#F8C55A" stroke-width="10" d="M633 788.091v53.818c0 2.759-2.24 5-5 5H435c-2.76 0-5-2.241-5-5V788.09c0-2.759 2.24-5 5-5h193c2.76 0 5 2.241 5 5z" fill="none"/></g><g style="display:block"><path fill="#FFF" d="M546.266 829.234c0 2.548 1.606 4.098 3.877 4.098 2.216 0 3.878-1.55 3.878-4.098v-29.523c0-2.825-1.662-4.708-4.321-4.708-1.772 0-3.268.72-4.708 1.717l-5.926 4.099c-1.329.886-1.939 2.105-1.939 3.268 0 1.883 1.441 3.268 3.213 3.268.775 0 1.606-.221 2.326-.72l3.489-2.382h.111v24.981zM514.298 816.716l.775-5.65h5.816l-.775 5.65h-5.816zm-7.81 13.071c-.277 2.105 1.053 3.545 2.936 3.545 1.606 0 2.769-1.052 2.991-2.769l1.107-8.364h5.872l-1.053 7.588c-.277 2.105 1.053 3.545 2.936 3.545 1.606 0 2.769-1.052 2.991-2.769l1.108-8.364h2.382c1.939 0 3.046-1.107 3.046-2.769 0-1.662-1.107-2.714-3.046-2.714h-1.607l.776-5.65h2.271c1.939 0 3.046-1.108 3.046-2.77s-1.107-2.714-3.046-2.714h-1.551l.997-7.034c.277-2.105-1.053-3.545-2.936-3.545-1.606 0-2.769 1.052-2.991 2.769l-1.108 7.81h-5.816l.997-7.034c.277-2.105-1.052-3.545-2.935-3.545-1.606 0-2.769 1.052-2.991 2.769l-1.108 7.81h-2.216c-1.939 0-3.046 1.052-3.046 2.714s1.107 2.77 3.046 2.77h1.496l-.776 5.65h-2.16c-1.939 0-3.046 1.052-3.046 2.714s1.107 2.769 3.046 2.769h1.44l-1.052 7.588z"/></g><g style="display:block"><path stroke-linecap="round" stroke-linejoin="round" stroke="#FDE371" stroke-width="25" d="M718.75 800.75S669.93 907.032 524.167 905C378.402 902.968 350.5 800.5 350.5 800.5" fill="none"/><path stroke-linejoin="round" stroke="#EB6C6C" stroke-width="25" d="M707.055 819.869c-21.854 30.499-76.596 86.612-182.888 85.131-103.952-1.449-147.961-53.978-164.656-83.995" fill="none"/></g><g style="display:block"><path fill="#FEE472" d="M800.25 940.75c0 7.175-5.825 13-13 13h-65c-7.175 0-13-5.825-13-13s5.825-13 13-13h65c7.175 0 13 5.825 13 13z"/><path fill="#FEE472" d="M767.25 809.75v122h-25v-122h25z"/><path fill="#FEE472" d="M775.75 807.75c0 4.14-3.36 7.5-7.5 7.5h-27c-4.14 0-7.5-3.36-7.5-7.5 0-4.14 3.36-7.5 7.5-7.5h27c4.14 0 7.5 3.36 7.5 7.5z"/><path fill="#FEE472" d="M771.75 788.75c0 9.382-7.618 17-17 17s-17-7.618-17-17 7.618-17 17-17 17 7.618 17 17z"/><path fill="#F8C55A" d="M800.25 940.75c0 7.18-5.82 13-13 13h-65c-7.18 0-13-5.82-13-13 16.188.062 72.5.062 91 0zM767.25 815.5v9.375h-25V815.5h25zM771.75 788.75c0 4.232-1.625 8.337-4.184 11.313-7.566.124-18.878.187-25.48.028a16.937 16.937 0 0 1-4.336-11.341c-.062.062 4 7.5 17.5 7.625 12.188.113 16.625-7.625 16.5-7.625z"/></g><g style="display:block"><path fill="#FEE472" d="M359.75 940.75c0 7.175-5.825 13-13 13h-65c-7.175 0-13-5.825-13-13s5.825-13 13-13h65c7.175 0 13 5.825 13 13z"/><path fill="#FEE472" d="M326.75 809.75v122h-25v-122h25z"/><path fill="#FEE472" d="M335.25 807.75c0 4.14-3.36 7.5-7.5 7.5h-27c-4.14 0-7.5-3.36-7.5-7.5 0-4.14 3.36-7.5 7.5-7.5h27c4.14 0 7.5 3.36 7.5 7.5z"/><path fill="#FEE472" d="M331.25 788.75c0 9.382-7.618 17-17 17s-17-7.618-17-17 7.618-17 17-17 17 7.618 17 17z"/><path fill="#F8C55A" d="M359.75 940.75c0 7.18-5.82 13-13 13h-65c-7.18 0-13-5.82-13-13 16.188.062 72.5.062 91 0zM326.75 815.5v9.375h-25V815.5h25zM331.25 788.75c0 4.232-1.625 8.337-4.184 11.313-7.566.124-18.878.187-25.48.028a16.937 16.937 0 0 1-4.336-11.341c-.062.062 4 7.5 17.5 7.625 12.188.113 16.625-7.625 16.5-7.625z"/></g><g clip-path="url(#bA)" style="display:block" transform="translate(352.5 296.75)"><path fill="#F1F1F1" d="M77.75-57.5v115c0 11.038-8.962 20-20 20h-115.5c-11.038 0-20-8.962-20-20v-115c0-11.038 8.962-20 20-20h115.5c11.038 0 20 8.962 20 20z" transform="translate(91 93.5)" style="display:block"/><path fill="#1EB0F6" d="M0-65.5c35.25.23 60.07 29.626 60.505 58.638C60.75 9.5 45.5 10 45.5 10h-91S-61 9.875-60.775-8.04C-60.469-32.374-38.375-65.75 0-65.5z" transform="translate(91.135 121.251)" style="display:block"/><path fill="#FFF" d="M28.875 0c0 8.072-6.553 14.625-14.625 14.625h-28.5c-8.072 0-14.625-6.553-14.625-14.625s6.553-14.625 14.625-14.625h28.5c8.072 0 14.625 6.553 14.625 14.625z" transform="translate(91 105.376)" style="display:block"/><g style="display:block"><path fill="#1EB0F6" d="m44.135 56.626 3.875 25.625 15.75-12.375-19.625-13.25z"/><path stroke-linecap="round" stroke-linejoin="round" stroke="#1EB0F6" stroke-width="13" d="m44.135 56.626 3.875 25.625 15.75-12.375-19.625-13.25z" fill="none"/><path fill="#1EB0F6" d="m137.885 56.626-3.875 25.625-15.75-12.375 19.625-13.25z"/><path stroke-linecap="round" stroke-linejoin="round" stroke="#1EB0F6" stroke-width="13" d="m137.885 56.626-3.875 25.625-15.75-12.375 19.625-13.25z" fill="none"/></g><g mask="url(#bB)" style="display:block"><path stroke-linecap="round" stroke-linejoin="round" stroke="#0498DE" stroke-width="14" d="M44.385 112.001H20.51v-17.75h31M137.603 112.001h23.875v-17.75h-31" fill="none"/></g><g mask="url(#bC)" style="display:block"><path stroke-linecap="round" stroke-linejoin="round" stroke="#FFC5DF" stroke-width="12" d="M91 84.001v11.5" fill="none"/></g></g><g clip-path="url(#bD)" style="display:block" transform="translate(352.5 468.25)"><path fill="#F1F1F1" d="M77.75-57.5v115c0 11.038-8.962 20-20 20h-115.5c-11.038 0-20-8.962-20-20v-115c0-11.038 8.962-20 20-20h115.5c11.038 0 20 8.962 20 20z" transform="translate(91 93.5)" style="display:block"/><path fill="#F48F00" d="M7.143-56.011c16.429.103 12.312 6.994 20.408 10.893 8.096 3.899 13.33 1.423 20.098 8.456 6.637 6.897 2.955 11.632 4.955 20.393 2 8.761 8.825 6.789 8.75 20.384-.08 14.507-6.768 14.114-11.691 21.631-5.092 7.775.28 15.478-12.79 21.772-2.838 1.367-7.11 3.19-12.33 3.158-13.9-.084-30.758-.013-44.872-.143-5.761-.053-10.486-1.971-13.544-3.444-13.07-6.294-7.758-15.174-13.361-22.2-5.603-7.026-12.195-9.226-10.834-22.631 1.155-11.383 7.322-9.337 9.322-18.098 2-8.761-3.053-11.057 3.668-20.108 7.078-9.531 11.859-5.266 19.955-9.165 7.799-3.756 5.82-10.328 19.133-10.932.508-.023 12.6.031 13.133.034z" transform="translate(89.366 95.943)" style="display:block"/><path fill="#FFD2A6" d="m28.375-7.125.018 21.821C28.393 30.367 15.671 35.5 0 35.5c-15.671 0-28.357-5.133-28.357-20.804l-.018-21.821C-28.375-22.796-15.671-35.5 0-35.5S28.375-22.796 28.375-7.125z" transform="translate(90.991 93.5)" style="display:block"/><g style="display:block"><path fill="#FFD2A6" d="M61.232 85.608c5.278 0 9.562 4.285 9.562 9.563 0 5.278-4.284 9.562-9.562 9.562s-9.563-4.284-9.563-9.562 4.285-9.563 9.563-9.563zM119.518 85.608c5.278 0 9.562 4.285 9.562 9.563 0 5.278-4.284 9.562-9.562 9.562s-9.563-4.284-9.563-9.562 4.285-9.563 9.563-9.563z"/></g><path fill="#F48F00" d="M16.408 24.002A28.942 28.942 0 0 1 0 29.071c-16.056 0-29.071-13.015-29.071-29.071 0-4.114.855-8.029 2.396-11.576 4.474-10.295 50.73 30.341 43.083 35.578z" transform="translate(121.295 56.964)" style="display:block"/></g><path fill="#F1F1F1" d="M77.75-57.5v115c0 11.038-8.962 20-20 20h-115.5c-11.038 0-20-8.962-20-20v-115c0-11.038 8.962-20 20-20h115.5c11.038 0 20 8.962 20 20z" transform="translate(617 390.25)" style="display:block"/><g clip-path="url(#bE)" style="display:block" transform="translate(526 468.25)"><path fill="#F1F1F1" d="M77.75-57.5v115c0 11.038-8.962 20-20 20h-115.5c-11.038 0-20-8.962-20-20v-115c0-11.038 8.962-20 20-20h115.5c11.038 0 20 8.962 20 20z" transform="translate(91 93.5)" style="display:block"/><path fill="#E4976D" d="M36.375-23v46c0 11.038-8.962 20-20 20h-32.75c-11.038 0-20-8.962-20-20v-46c0-11.038 8.962-20 20-20h32.75c11.038 0 20 8.962 20 20z" transform="translate(92.625 96.625)" style="display:block"/><g style="display:block"><path fill="#E4976D" d="M56.438 91C61.716 91 66 95.283 66 100.561s-4.284 9.562-9.562 9.562-9.563-4.284-9.563-9.562 4.285-9.563 9.563-9.563zM128.438 91c5.278 0 9.562 4.284 9.562 9.562s-4.284 9.562-9.562 9.562-9.563-4.284-9.563-9.562 4.285-9.563 9.563-9.563z"/></g><g style="display:block"><path fill="#824E33" d="M132.5 64.5v26.75c-.062 2.375-4.392 2.006-4.353.119.228-11.056 2.166-25.119-7.834-24.744H72.75c-11.046 0-20-2.125-20-2.125 0-11.046 8.954-20 20-20h39.75c11.046 0 20 8.954 20 20z"/><path fill="#824E33" d="M69.188 36c11.9 0 21.562 9.663 21.562 21.563 0 11.9-9.662 21.562-21.562 21.562s-21.563-9.662-21.563-21.562S57.288 36 69.188 36z"/><path fill="#824E33" d="M59.072 96.608c-8.573-1.099-15.198-8.423-15.198-17.295 0-8.872 6.625-16.196 15.198-17.295-.042.107-.01 34.608 0 34.59z"/></g><path stroke-linecap="round" stroke-linejoin="round" stroke="#824E33" stroke-width="15" d="m-10.75 21.469 13-6.344 13 6.344" fill="none" transform="translate(91 93.5)" style="display:block"/><g style="display:block"><path fill="#CC7D52" d="M93.25 89.125s-12 17.187 0 17.187 0-17.187 0-17.187z"/><path stroke-linecap="round" stroke-linejoin="round" stroke="#CC7D52" stroke-width="5" d="M93.25 89.125s-12 17.187 0 17.187 0-17.187 0-17.187z" fill="none"/></g></g><g clip-path="url(#bF)" style="display:block" transform="translate(36)"><g style="display:block"><path fill="#3D3D3D" d="M183.113 726.726c15.553-2.463 30.12 7.773 32.506 22.845 2.387 15.07-8.302 29.308-23.855 31.77-15.553 2.464-30.12-7.772-32.506-22.844-2.387-15.07 8.302-29.307 23.855-31.77zM275.157 705.64c15.553-2.463 30.119 7.774 32.506 22.845 2.387 15.071-8.303 29.308-23.856 31.771-15.553 2.464-30.119-7.773-32.506-22.844-2.387-15.071 8.303-29.308 23.856-31.771z"/><path fill="#3D3D3D" d="M210.569 675.255c20.502-3.247 39.704 10.247 42.85 30.115 3.147 19.868-10.944 38.635-31.447 41.882-20.503 3.248-39.704-10.247-42.851-30.114-3.147-19.868 10.945-38.635 31.448-41.883z"/><path fill="#3D3D3D" d="M249.686 694.158s-27.403 1.123-25.189 24.777c2.215 23.653 48.78 20.98 53.035 18.821 4.255-2.159 18.356-35.943-8.956-30.752-15.619 2.969-18.89-12.846-18.89-12.846z"/></g><path stroke-linecap="round" stroke-linejoin="round" stroke="#DA8E74" stroke-width="12" d="m-183.75 271.5 4.518-13.288" fill="none" transform="rotate(-59 573.52 69.076)" style="display:block"/><g style="display:block"><path fill="#DA8E74" d="m351.122 808.927 45.78-.072a7.432 7.432 0 0 1 0 14.862c-.029 0-35.735 9.408-35.78 9.408-6.672 0-12.08-5.409-12.08-12.081s-4.592-12.117 2.08-12.117z"/><path d="m351.122 808.927 45.78-.072a7.432 7.432 0 0 1 0 14.862c-.029 0-35.735 9.408-35.78 9.408-6.672 0-12.08-5.409-12.08-12.081s-4.592-12.117 2.08-12.117z" fill="none"/></g><path stroke="#FFAADE" stroke-width="30" d="M-241 317.75c19.5 3.5 55 9.5 56 8.5s9.25-41.25 9.25-41.25" fill="none" transform="translate(540 540)" style="display:block"/><g clip-path="url(#bG)" style="display:block"><path stroke-linecap="round" stroke-linejoin="round" stroke="#DA8E74" stroke-width="122.6" d="M-298 235c7 29.5 11.5 88.5 9 112.5" fill="none" transform="translate(540 540)" style="display:block"/></g><g mask="url(#bH)" style="display:block"><path fill="#3D3D3D" d="m159.613 769.19 3.362 27.38c1.345 10.956-6.458 20.943-17.414 22.288l-30.974 3.803c-10.956 1.346-20.943-6.457-22.288-17.413l-3.362-27.38c-1.345-10.956 6.458-20.944 17.413-22.289l30.975-3.803c10.955-1.345 20.943 6.458 22.288 17.413z"/><path fill="#3D3D3D" d="m200.636 735.634 3.362 27.38c1.345 10.956-6.458 20.943-17.413 22.289l-30.975 3.803c-10.955 1.345-20.943-6.458-22.288-17.414l-3.362-27.38c-1.345-10.956 6.458-20.943 17.414-22.289l30.974-3.803c10.956-1.345 20.943 6.458 22.288 17.414zM376.734 714.012l3.362 27.38c1.345 10.956-6.458 20.943-17.414 22.288l-30.974 3.804c-10.956 1.345-20.943-6.458-22.288-17.414l-3.362-27.38c-1.346-10.956 6.457-20.943 17.413-22.289l30.975-3.803c10.955-1.345 20.943 6.458 22.288 17.414z"/></g><g mask="url(#bI)" style="display:block"><g mask="url(#bJ)" transform="translate(540 540)"><path fill="#FFAADE" d="M-282 300.5c-52.5.5-97 18.5-97 18.5l3.5 102h178V310s-32-10-84.5-9.5z"/><path fill="#2BE69C" d="M-190.5 464V353s-32-10-84.5-9.5-97 18.5-97 18.5l3.5 102h178z"/><path stroke="#A56644" stroke-width="16.1" d="M-190.5 464V353s-32-10-84.5-9.5-97 18.5-97 18.5l3.5 102h178z" fill="none"/></g></g><g mask="url(#bK)" style="display:block"><path fill="#3D3D3D" d="m224 872 4.5 29.75"/><path stroke="#2BE69C" stroke-width="13" d="m224 872 4.5 29.75" fill="none"/><path fill="#3D3D3D" d="m291.45 869.357-1.775 30.036"/><path stroke="#2BE69C" stroke-width="13" d="m291.45 869.357-1.775 30.036" fill="none"/></g><g style="display:block"><path fill="#F1F1F1" d="M195.774 904.113z"/><path stroke-linecap="round" stroke-linejoin="round" stroke-dasharray="0 0" stroke="#C1C1C1" stroke-width="0" d="M195.774 904.113s0 0 0 0" fill="none"/><path stroke-linecap="round" stroke-linejoin="round" stroke="#C1C1C1" stroke-width="0" d="M195.774 904.113s0 0 0 0" fill="none"/></g><path stroke-linecap="round" stroke-linejoin="round" stroke="#FFAADE" stroke-width="30" d="m-345.25 329.75-39.5 16.75 36 19" fill="none" transform="translate(540 535)" style="display:block"/><g style="display:block"><path fill="#3D3D3D" d="M188.548 893.215c3.452-7.715 11.656-.658 11.656-.658"/><path stroke-linecap="round" stroke="#DA8E74" stroke-width="12" d="M188.548 893.215c3.452-7.715 11.656-.658 11.656-.658" fill="none"/></g><path fill="#DA8E74" d="M0-17.86c9.857 0 17.86 8.003 17.86 17.86S9.857 17.86 0 17.86-17.86 9.857-17.86 0-9.857-17.86 0-17.86z" transform="translate(190.86 899.86)" style="display:block"/><g style="display:block"><path stroke-linecap="round" stroke-linejoin="round" stroke="#1CB0F6" stroke-width="19" d="M207.062 968.125h31.25M277.75 968H309" fill="none"/></g><path fill="#DA8E74" d="M0-10c5.519 0 10 4.481 10 10S5.519 10 0 10-10 5.519-10 0s4.481-10 10-10z" transform="translate(179.715 788.745)" style="display:block"/><g mask="url(#bN)" style="display:block"><g clip-path="url(#bO)" transform="rotate(-6 5158.112 -4659.054)"><path fill="#FFF" d="M-287.963 213.817v11.818c0 7.65-6.21 13.861-13.861 13.861-7.65 0-13.862-6.21-13.862-13.861v-11.818c0-7.65 6.212-13.862 13.862-13.862s13.861 6.212 13.861 13.862z"/></g></g><g mask="url(#bP)" style="display:block"><g clip-path="url(#bQ)" transform="scale(-1 1) rotate(6 -5440.749 784.615)"><path fill="#FFF" d="M-287.963 213.817v11.818c0 7.65-6.21 13.861-13.861 13.861-7.65 0-13.862-6.21-13.862-13.861v-11.818c0-7.65 6.212-13.862 13.862-13.862s13.861 6.212 13.861 13.862z"/></g></g><g mask="url(#bR)" style="display:block"><path fill="#3D3D3D" d="m233.662 752.548.472 5.4a5.669 5.669 0 0 1-5.15 6.138 5.669 5.669 0 0 1-6.138-5.151l-.473-5.4a5.669 5.669 0 0 1 5.15-6.138 5.669 5.669 0 0 1 6.14 5.151z"/></g><g mask="url(#bS)" style="display:block"><path fill="#3D3D3D" d="m267.035 749.628.472 5.4a5.669 5.669 0 0 1-5.15 6.138 5.669 5.669 0 0 1-6.139-5.15l-.472-5.4a5.669 5.669 0 0 1 5.15-6.138 5.669 5.669 0 0 1 6.139 5.15z"/></g><path stroke-linecap="round" stroke-linejoin="round" stroke="#3D3D3D" stroke-width="32" d="m-304.09 264.243 24.34-15.743 26.819 11.882" fill="none" transform="rotate(-9.928 3101.031 -2590.111)" style="display:block"/><path fill="#DA8E74" d="M0-8.245A8.25 8.25 0 0 1 8.245 0 8.25 8.25 0 0 1 0 8.245 8.25 8.25 0 0 1-8.245 0 8.25 8.25 0 0 1 0-8.245z" transform="translate(258.267 776.77)" style="display:block"/><path stroke-linecap="round" stroke="#3D3D3D" stroke-width="14" d="M-318.5 190.5s2.77-3.681 9.02-4.681c6.707-1.073 11.48 1.681 11.48 1.681" fill="none" transform="rotate(.056 -560628.464 561303.24)" style="display:block"/><path stroke-linecap="round" stroke="#3D3D3D" stroke-width="14" d="M-318.49 190.564s4.222 1.169 10.472.169c6.706-1.073 10.028-3.169 10.028-3.169" fill="none" transform="rotate(9 -3531.453 4144.078)" style="display:block"/></g></g><g style="display:block"><path fill="#57CC02" d="M563.764 352.64c0-12.53 13.271-20.749 24.822-15.894 10.772 4.527 22.303 8.672 28.413 8.672 6.112 0 17.643-4.145 28.414-8.672 11.552-4.855 24.823 3.364 24.823 15.894l-.001 39.293c0 29.401-23.834 53.235-53.236 53.235-29.401 0-53.235-23.834-53.235-53.235V352.64z"/><path fill="#88E118" d="M605.501 360.283c5.846 5.943 16.154 5.943 22.665 0 6.51-5.942-.979 34.61-.979 34.506 0-.05-3.48-.064-10.44-.043-1.866.006-5.227.02-10.085.043-4.671-26.965-5.058-38.468-1.161-34.506z"/><path fill="#8EDF00" d="m642.013 344.975-15.773 17.561a1.863 1.863 0 0 0 .621 2.948c5.537 2.47 12.144 1.076 16.311-3.563 4.168-4.64 4.86-11.372 1.83-16.634a1.854 1.854 0 0 0-2.989-.312z"/><path fill="#8EDF00" d="m651.198 349.164-15.773 17.561a1.864 1.864 0 0 0 .622 2.948c5.537 2.47 12.143 1.076 16.31-3.563 4.168-4.64 4.86-11.372 1.831-16.634a1.855 1.855 0 0 0-2.99-.312z"/><path fill="#88E118" d="m591.882 344.927 15.289 17.188c.819.922.5 2.369-.629 2.857-5.425 2.35-11.867.939-15.906-3.602-4.039-4.541-4.67-11.083-1.676-16.166.623-1.058 2.102-1.198 2.922-.277z"/><path fill="#88E118" d="m582.525 349.18 14.381 16.169a1.695 1.695 0 0 1-.588 2.687c-5.104 2.211-11.166.885-14.966-3.387-3.799-4.272-4.391-10.427-1.575-15.208a1.708 1.708 0 0 1 2.748-.261z"/><path fill="#88E118" d="M569.026 375.44c0-11.794 9.562-21.356 21.356-21.356 11.795 0 21.356 9.562 21.356 21.356v10.523c0 11.795-9.561 21.357-21.356 21.357-11.794 0-21.356-9.562-21.356-21.357V375.44zM621.952 375.44c0-11.794 9.562-21.356 21.356-21.356 11.794 0 21.358 9.562 21.358 21.356v10.523c0 11.795-9.564 21.357-21.358 21.357s-21.356-9.562-21.356-21.357V375.44z"/><path fill="#FFF" d="M642.69 361.512c8.205 0 14.856 6.652 14.856 14.857v8.357c0 8.205-6.651 14.856-14.856 14.856s-14.856-6.651-14.856-14.856v-8.357c0-8.205 6.651-14.857 14.856-14.857zM591.001 361.512c8.205 0 14.858 6.652 14.858 14.857v8.357c0 8.205-6.653 14.856-14.858 14.856-8.205 0-14.856-6.651-14.856-14.856v-8.357c0-8.205 6.651-14.857 14.856-14.857z"/><path fill="#F49000" d="M616.845 386.273a7.272 7.272 0 0 1 7.273 7.273v2.477a7.271 7.271 0 0 1-7.273 7.272 7.272 7.272 0 0 1-7.273-7.272v-2.477a7.273 7.273 0 0 1 7.273-7.273z"/><path fill="#FFC200" d="M627.319 394.327a.592.592 0 0 1-.481.722l-9.872 1.748-9.871-1.748a.592.592 0 0 1-.482-.722c1.169-4.628 5.361-8.054 10.353-8.054s9.183 3.426 10.353 8.054z"/><path stroke-linecap="round" stroke-linejoin="round" stroke="#FFDE00" stroke-width="3.095" d="M614.812 389.187c.692-.299 2.597-.513 4.024 0" fill="none"/><path fill="#4A4A4A" d="M631.238 378.536a5.571 5.571 0 0 0 4.838-8.336 6.964 6.964 0 0 1 9.09 6.633v7.429a6.964 6.964 0 0 1-13.928 0v-5.726zM588.531 378.536a5.571 5.571 0 0 0 4.838-8.336 6.964 6.964 0 0 1 9.09 6.633v7.429a6.964 6.964 0 0 1-13.928 0v-5.726z"/><path fill="#89E219" d="M575.16 386.778s-.521 16.805 12.257 16.805c6.69 0 13.75-1.666 16.528-4.444-27.444 9.361-28.785-12.361-28.785-12.361z"/><path d="M575.16 386.778s-.521 16.805 12.257 16.805c6.69 0 13.75-1.666 16.528-4.444-27.444 9.361-28.785-12.361-28.785-12.361z" fill="none"/><path fill="#89E219" d="M658.841 386.778s-1.841 16.805-12.144 16.805c-6.624 0-13.613-1.666-16.363-4.444 25.667 9.361 28.507-12.361 28.507-12.361z"/><path d="M658.841 386.778s-1.841 16.805-12.144 16.805c-6.624 0-13.613-1.666-16.363-4.444 25.667 9.361 28.507-12.361 28.507-12.361z" fill="none"/></g></g></svg>