<svg xmlns="http://www.w3.org/2000/svg" xmlns:xlink="http://www.w3.org/1999/xlink" width="1080" height="1080" style="width:100%;height:100%;transform:translate3d(0,0,0);content-visibility:visible"><defs><clipPath id="y"><path d="M0 0h1080v1080H0z"/></clipPath><clipPath id="fn"><path d="M0 0h1080v1080H0z"/></clipPath><clipPath id="a"><path d="M0 0h1080v1080H0z"/></clipPath><clipPath id="b"><path d="M0 0h1080v1080H0z"/></clipPath><clipPath id="d"><path d="M0 0h1080v1080H0z"/></clipPath><clipPath id="fo"><path d="M0 0h1080v1080H0z"/></clipPath><clipPath id="E"><path d="M0 0h1080v1080H0z"/></clipPath><clipPath id="bh"><path d="M0 0h1380v1380H0z"/></clipPath><clipPath id="g"><path d="M0 0h1380v1380H0z"/></clipPath><clipPath id="i"><path d="M0 0h1380v1380H0z"/></clipPath><clipPath id="bi"><path d="M0 0h1380v1380H0z"/></clipPath><clipPath id="aX"><path d="M0 0h1380v1380H0z"/></clipPath><clipPath id="bb"><path d="M0 0h1380v1380H0z"/></clipPath><clipPath id="bg"><path d="M0 0h1380v1380H0z"/></clipPath><clipPath id="bd"><path d="M0 0h1380v1380H0z"/></clipPath><clipPath id="bf"><path d="M0 0h1380v1380H0z"/></clipPath><clipPath id="be"><path d="M0 0h1380v1380H0z"/></clipPath><clipPath id="bc"><path d="M0 0h1380v1380H0z"/></clipPath><clipPath id="ba"><path d="M0 0h1380v1380H0z"/></clipPath><clipPath id="aZ"><path d="M0 0h1380v1380H0z"/></clipPath><clipPath id="aY"><path d="M0 0h1380v1380H0z"/></clipPath><clipPath id="aN"><path d="M0 0h1380v1380H0z"/></clipPath><clipPath id="aS"><path d="M0 0h1380v1380H0z"/></clipPath><clipPath id="aW"><path d="M0 0h1380v1380H0z"/></clipPath><clipPath id="aT"><path d="M0 0h1380v1380H0z"/></clipPath><clipPath id="aV"><path d="M0 0h1380v1380H0z"/></clipPath><clipPath id="aU"><path d="M0 0h1380v1380H0z"/></clipPath><clipPath id="aR"><path d="M0 0h1380v1380H0z"/></clipPath><clipPath id="aQ"><path d="M0 0h1380v1380H0z"/></clipPath><clipPath id="aP"><path d="M0 0h1380v1380H0z"/></clipPath><clipPath id="aO"><path d="M0 0h1380v1380H0z"/></clipPath><clipPath id="aD"><path d="M0 0h1380v1380H0z"/></clipPath><clipPath id="aI"><path d="M0 0h1380v1380H0z"/></clipPath><clipPath id="aM"><path d="M0 0h1380v1380H0z"/></clipPath><clipPath id="aJ"><path d="M0 0h1380v1380H0z"/></clipPath><clipPath id="aL"><path d="M0 0h1380v1380H0z"/></clipPath><clipPath id="aK"><path d="M0 0h1380v1380H0z"/></clipPath><clipPath id="aH"><path d="M0 0h1380v1380H0z"/></clipPath><clipPath id="aG"><path d="M0 0h1380v1380H0z"/></clipPath><clipPath id="aF"><path d="M0 0h1380v1380H0z"/></clipPath><clipPath id="aE"><path d="M0 0h1380v1380H0z"/></clipPath><clipPath id="ay"><path d="M0 0h1300v1300H0z"/></clipPath><clipPath id="aC"><path d="M0 0h1180v1180H0z"/></clipPath><clipPath id="aB"><path d="M0 0h1180v1180H0z"/></clipPath><clipPath id="aA"><path d="M0 0h1180v1180H0z"/></clipPath><clipPath id="az"><path d="M0 0h1180v1180H0z"/></clipPath><clipPath id="at"><path d="M0 0h1300v1300H0z"/></clipPath><clipPath id="ax"><path d="M0 0h1180v1180H0z"/></clipPath><clipPath id="aw"><path d="M0 0h1180v1180H0z"/></clipPath><clipPath id="av"><path d="M0 0h1180v1180H0z"/></clipPath><clipPath id="au"><path d="M0 0h1180v1180H0z"/></clipPath><clipPath id="ao"><path d="M0 0h1300v1300H0z"/></clipPath><clipPath id="as"><path d="M0 0h1180v1180H0z"/></clipPath><clipPath id="ar"><path d="M0 0h1180v1180H0z"/></clipPath><clipPath id="aq"><path d="M0 0h1180v1180H0z"/></clipPath><clipPath id="ap"><path d="M0 0h1180v1180H0z"/></clipPath><clipPath id="aj"><path d="M0 0h1300v1300H0z"/></clipPath><clipPath id="an"><path d="M0 0h1180v1180H0z"/></clipPath><clipPath id="am"><path d="M0 0h1180v1180H0z"/></clipPath><clipPath id="al"><path d="M0 0h1180v1180H0z"/></clipPath><clipPath id="ak"><path d="M0 0h1180v1180H0z"/></clipPath><clipPath id="ae"><path d="M0 0h1300v1300H0z"/></clipPath><clipPath id="ai"><path d="M0 0h1180v1180H0z"/></clipPath><clipPath id="ah"><path d="M0 0h1180v1180H0z"/></clipPath><clipPath id="ag"><path d="M0 0h1180v1180H0z"/></clipPath><clipPath id="af"><path d="M0 0h1180v1180H0z"/></clipPath><clipPath id="Z"><path d="M0 0h1300v1300H0z"/></clipPath><clipPath id="ad"><path d="M0 0h1180v1180H0z"/></clipPath><clipPath id="ac"><path d="M0 0h1180v1180H0z"/></clipPath><clipPath id="ab"><path d="M0 0h1180v1180H0z"/></clipPath><clipPath id="aa"><path d="M0 0h1180v1180H0z"/></clipPath><clipPath id="U"><path d="M0 0h1300v1300H0z"/></clipPath><clipPath id="Y"><path d="M0 0h1180v1180H0z"/></clipPath><clipPath id="X"><path d="M0 0h1180v1180H0z"/></clipPath><clipPath id="W"><path d="M0 0h1180v1180H0z"/></clipPath><clipPath id="V"><path d="M0 0h1180v1180H0z"/></clipPath><clipPath id="P"><path d="M0 0h1300v1300H0z"/></clipPath><clipPath id="T"><path d="M0 0h1180v1180H0z"/></clipPath><clipPath id="S"><path d="M0 0h1180v1180H0z"/></clipPath><clipPath id="R"><path d="M0 0h1180v1180H0z"/></clipPath><clipPath id="Q"><path d="M0 0h1180v1180H0z"/></clipPath><clipPath id="K"><path d="M0 0h1300v1300H0z"/></clipPath><clipPath id="O"><path d="M0 0h1180v1180H0z"/></clipPath><clipPath id="N"><path d="M0 0h1180v1180H0z"/></clipPath><clipPath id="M"><path d="M0 0h1180v1180H0z"/></clipPath><clipPath id="L"><path d="M0 0h1180v1180H0z"/></clipPath><clipPath id="F"><path d="M0 0h1300v1300H0z"/></clipPath><clipPath id="J"><path d="M0 0h1180v1180H0z"/></clipPath><clipPath id="I"><path d="M0 0h1180v1180H0z"/></clipPath><clipPath id="H"><path d="M0 0h1180v1180H0z"/></clipPath><clipPath id="G"><path d="M0 0h1180v1180H0z"/></clipPath><clipPath id="dm"><path d="M0 0h1080v1080H0z"/></clipPath><clipPath id="fj"><path d="M0 0h1380v1380H0z"/></clipPath><clipPath id="k"><path d="M0 0h1380v1380H0z"/></clipPath><clipPath id="m"><path d="M0 0h1380v1380H0z"/></clipPath><clipPath id="fk"><path d="M0 0h1380v1380H0z"/></clipPath><clipPath id="eZ"><path d="M0 0h1380v1380H0z"/></clipPath><clipPath id="fe"><path d="M0 0h1380v1380H0z"/></clipPath><clipPath id="fi"><path d="M0 0h1380v1380H0z"/></clipPath><clipPath id="ff"><path d="M0 0h1380v1380H0z"/></clipPath><clipPath id="fh"><path d="M0 0h1380v1380H0z"/></clipPath><clipPath id="fg"><path d="M0 0h1380v1380H0z"/></clipPath><clipPath id="fd"><path d="M0 0h1380v1380H0z"/></clipPath><clipPath id="fc"><path d="M0 0h1380v1380H0z"/></clipPath><clipPath id="fb"><path d="M0 0h1380v1380H0z"/></clipPath><clipPath id="fa"><path d="M0 0h1380v1380H0z"/></clipPath><clipPath id="eP"><path d="M0 0h1380v1380H0z"/></clipPath><clipPath id="eU"><path d="M0 0h1380v1380H0z"/></clipPath><clipPath id="eY"><path d="M0 0h1380v1380H0z"/></clipPath><clipPath id="eV"><path d="M0 0h1380v1380H0z"/></clipPath><clipPath id="eX"><path d="M0 0h1380v1380H0z"/></clipPath><clipPath id="eW"><path d="M0 0h1380v1380H0z"/></clipPath><clipPath id="eT"><path d="M0 0h1380v1380H0z"/></clipPath><clipPath id="eS"><path d="M0 0h1380v1380H0z"/></clipPath><clipPath id="eR"><path d="M0 0h1380v1380H0z"/></clipPath><clipPath id="eQ"><path d="M0 0h1380v1380H0z"/></clipPath><clipPath id="eF"><path d="M0 0h1380v1380H0z"/></clipPath><clipPath id="eK"><path d="M0 0h1380v1380H0z"/></clipPath><clipPath id="eO"><path d="M0 0h1380v1380H0z"/></clipPath><clipPath id="eL"><path d="M0 0h1380v1380H0z"/></clipPath><clipPath id="eN"><path d="M0 0h1380v1380H0z"/></clipPath><clipPath id="eM"><path d="M0 0h1380v1380H0z"/></clipPath><clipPath id="eJ"><path d="M0 0h1380v1380H0z"/></clipPath><clipPath id="eI"><path d="M0 0h1380v1380H0z"/></clipPath><clipPath id="eH"><path d="M0 0h1380v1380H0z"/></clipPath><clipPath id="eG"><path d="M0 0h1380v1380H0z"/></clipPath><clipPath id="ev"><path d="M0 0h1380v1380H0z"/></clipPath><clipPath id="eA"><path d="M0 0h1380v1380H0z"/></clipPath><clipPath id="eE"><path d="M0 0h1380v1380H0z"/></clipPath><clipPath id="eB"><path d="M0 0h1380v1380H0z"/></clipPath><clipPath id="eD"><path d="M0 0h1380v1380H0z"/></clipPath><clipPath id="eC"><path d="M0 0h1380v1380H0z"/></clipPath><clipPath id="ez"><path d="M0 0h1380v1380H0z"/></clipPath><clipPath id="ey"><path d="M0 0h1380v1380H0z"/></clipPath><clipPath id="ex"><path d="M0 0h1380v1380H0z"/></clipPath><clipPath id="ew"><path d="M0 0h1380v1380H0z"/></clipPath><clipPath id="el"><path d="M0 0h1380v1380H0z"/></clipPath><clipPath id="eq"><path d="M0 0h1380v1380H0z"/></clipPath><clipPath id="eu"><path d="M0 0h1380v1380H0z"/></clipPath><clipPath id="er"><path d="M0 0h1380v1380H0z"/></clipPath><clipPath id="et"><path d="M0 0h1380v1380H0z"/></clipPath><clipPath id="es"><path d="M0 0h1380v1380H0z"/></clipPath><clipPath id="ep"><path d="M0 0h1380v1380H0z"/></clipPath><clipPath id="eo"><path d="M0 0h1380v1380H0z"/></clipPath><clipPath id="en"><path d="M0 0h1380v1380H0z"/></clipPath><clipPath id="em"><path d="M0 0h1380v1380H0z"/></clipPath><clipPath id="eg"><path d="M0 0h1300v1300H0z"/></clipPath><clipPath id="ek"><path d="M0 0h1180v1180H0z"/></clipPath><clipPath id="ej"><path d="M0 0h1180v1180H0z"/></clipPath><clipPath id="ei"><path d="M0 0h1180v1180H0z"/></clipPath><clipPath id="eh"><path d="M0 0h1180v1180H0z"/></clipPath><clipPath id="eb"><path d="M0 0h1300v1300H0z"/></clipPath><clipPath id="ef"><path d="M0 0h1180v1180H0z"/></clipPath><clipPath id="ee"><path d="M0 0h1180v1180H0z"/></clipPath><clipPath id="ed"><path d="M0 0h1180v1180H0z"/></clipPath><clipPath id="ec"><path d="M0 0h1180v1180H0z"/></clipPath><clipPath id="dW"><path d="M0 0h1300v1300H0z"/></clipPath><clipPath id="ea"><path d="M0 0h1180v1180H0z"/></clipPath><clipPath id="dZ"><path d="M0 0h1180v1180H0z"/></clipPath><clipPath id="dY"><path d="M0 0h1180v1180H0z"/></clipPath><clipPath id="dX"><path d="M0 0h1180v1180H0z"/></clipPath><clipPath id="dR"><path d="M0 0h1300v1300H0z"/></clipPath><clipPath id="dV"><path d="M0 0h1180v1180H0z"/></clipPath><clipPath id="dU"><path d="M0 0h1180v1180H0z"/></clipPath><clipPath id="dT"><path d="M0 0h1180v1180H0z"/></clipPath><clipPath id="dS"><path d="M0 0h1180v1180H0z"/></clipPath><clipPath id="dM"><path d="M0 0h1300v1300H0z"/></clipPath><clipPath id="dQ"><path d="M0 0h1180v1180H0z"/></clipPath><clipPath id="dP"><path d="M0 0h1180v1180H0z"/></clipPath><clipPath id="dO"><path d="M0 0h1180v1180H0z"/></clipPath><clipPath id="dN"><path d="M0 0h1180v1180H0z"/></clipPath><clipPath id="dH"><path d="M0 0h1300v1300H0z"/></clipPath><clipPath id="dL"><path d="M0 0h1180v1180H0z"/></clipPath><clipPath id="dK"><path d="M0 0h1180v1180H0z"/></clipPath><clipPath id="dJ"><path d="M0 0h1180v1180H0z"/></clipPath><clipPath id="dI"><path d="M0 0h1180v1180H0z"/></clipPath><clipPath id="dC"><path d="M0 0h1300v1300H0z"/></clipPath><clipPath id="dG"><path d="M0 0h1180v1180H0z"/></clipPath><clipPath id="dF"><path d="M0 0h1180v1180H0z"/></clipPath><clipPath id="dE"><path d="M0 0h1180v1180H0z"/></clipPath><clipPath id="dD"><path d="M0 0h1180v1180H0z"/></clipPath><clipPath id="dx"><path d="M0 0h1300v1300H0z"/></clipPath><clipPath id="dB"><path d="M0 0h1180v1180H0z"/></clipPath><clipPath id="dA"><path d="M0 0h1180v1180H0z"/></clipPath><clipPath id="dz"><path d="M0 0h1180v1180H0z"/></clipPath><clipPath id="dy"><path d="M0 0h1180v1180H0z"/></clipPath><clipPath id="ds"><path d="M0 0h1300v1300H0z"/></clipPath><clipPath id="dw"><path d="M0 0h1180v1180H0z"/></clipPath><clipPath id="dv"><path d="M0 0h1180v1180H0z"/></clipPath><clipPath id="du"><path d="M0 0h1180v1180H0z"/></clipPath><clipPath id="dt"><path d="M0 0h1180v1180H0z"/></clipPath><clipPath id="dn"><path d="M0 0h1300v1300H0z"/></clipPath><clipPath id="dr"><path d="M0 0h1180v1180H0z"/></clipPath><clipPath id="dq"><path d="M0 0h1180v1180H0z"/></clipPath><clipPath id="dp"><path d="M0 0h1180v1180H0z"/></clipPath><clipPath id="do"><path d="M0 0h1180v1180H0z"/></clipPath><clipPath id="bl"><path d="M0 0h1080v1080H0z"/></clipPath><clipPath id="di"><path d="M0 0h1380v1380H0z"/></clipPath><clipPath id="o"><path d="M0 0h1380v1380H0z"/></clipPath><clipPath id="q"><path d="M0 0h1380v1380H0z"/></clipPath><clipPath id="dj"><path d="M0 0h1380v1380H0z"/></clipPath><clipPath id="cY"><path d="M0 0h1380v1380H0z"/></clipPath><clipPath id="dd"><path d="M0 0h1380v1380H0z"/></clipPath><clipPath id="dh"><path d="M0 0h1380v1380H0z"/></clipPath><clipPath id="de"><path d="M0 0h1380v1380H0z"/></clipPath><clipPath id="dg"><path d="M0 0h1380v1380H0z"/></clipPath><clipPath id="df"><path d="M0 0h1380v1380H0z"/></clipPath><clipPath id="dc"><path d="M0 0h1380v1380H0z"/></clipPath><clipPath id="db"><path d="M0 0h1380v1380H0z"/></clipPath><clipPath id="da"><path d="M0 0h1380v1380H0z"/></clipPath><clipPath id="cZ"><path d="M0 0h1380v1380H0z"/></clipPath><clipPath id="cO"><path d="M0 0h1380v1380H0z"/></clipPath><clipPath id="cT"><path d="M0 0h1380v1380H0z"/></clipPath><clipPath id="cX"><path d="M0 0h1380v1380H0z"/></clipPath><clipPath id="cU"><path d="M0 0h1380v1380H0z"/></clipPath><clipPath id="cW"><path d="M0 0h1380v1380H0z"/></clipPath><clipPath id="cV"><path d="M0 0h1380v1380H0z"/></clipPath><clipPath id="cS"><path d="M0 0h1380v1380H0z"/></clipPath><clipPath id="cR"><path d="M0 0h1380v1380H0z"/></clipPath><clipPath id="cQ"><path d="M0 0h1380v1380H0z"/></clipPath><clipPath id="cP"><path d="M0 0h1380v1380H0z"/></clipPath><clipPath id="cE"><path d="M0 0h1380v1380H0z"/></clipPath><clipPath id="cJ"><path d="M0 0h1380v1380H0z"/></clipPath><clipPath id="cN"><path d="M0 0h1380v1380H0z"/></clipPath><clipPath id="cK"><path d="M0 0h1380v1380H0z"/></clipPath><clipPath id="cM"><path d="M0 0h1380v1380H0z"/></clipPath><clipPath id="cL"><path d="M0 0h1380v1380H0z"/></clipPath><clipPath id="cI"><path d="M0 0h1380v1380H0z"/></clipPath><clipPath id="cH"><path d="M0 0h1380v1380H0z"/></clipPath><clipPath id="cG"><path d="M0 0h1380v1380H0z"/></clipPath><clipPath id="cF"><path d="M0 0h1380v1380H0z"/></clipPath><clipPath id="cu"><path d="M0 0h1380v1380H0z"/></clipPath><clipPath id="cz"><path d="M0 0h1380v1380H0z"/></clipPath><clipPath id="cD"><path d="M0 0h1380v1380H0z"/></clipPath><clipPath id="cA"><path d="M0 0h1380v1380H0z"/></clipPath><clipPath id="cC"><path d="M0 0h1380v1380H0z"/></clipPath><clipPath id="cB"><path d="M0 0h1380v1380H0z"/></clipPath><clipPath id="cy"><path d="M0 0h1380v1380H0z"/></clipPath><clipPath id="cx"><path d="M0 0h1380v1380H0z"/></clipPath><clipPath id="cw"><path d="M0 0h1380v1380H0z"/></clipPath><clipPath id="cv"><path d="M0 0h1380v1380H0z"/></clipPath><clipPath id="ck"><path d="M0 0h1380v1380H0z"/></clipPath><clipPath id="cp"><path d="M0 0h1380v1380H0z"/></clipPath><clipPath id="ct"><path d="M0 0h1380v1380H0z"/></clipPath><clipPath id="cq"><path d="M0 0h1380v1380H0z"/></clipPath><clipPath id="cs"><path d="M0 0h1380v1380H0z"/></clipPath><clipPath id="cr"><path d="M0 0h1380v1380H0z"/></clipPath><clipPath id="co"><path d="M0 0h1380v1380H0z"/></clipPath><clipPath id="cn"><path d="M0 0h1380v1380H0z"/></clipPath><clipPath id="cm"><path d="M0 0h1380v1380H0z"/></clipPath><clipPath id="cl"><path d="M0 0h1380v1380H0z"/></clipPath><clipPath id="cf"><path d="M0 0h1300v1300H0z"/></clipPath><clipPath id="cj"><path d="M0 0h1180v1180H0z"/></clipPath><clipPath id="ci"><path d="M0 0h1180v1180H0z"/></clipPath><clipPath id="ch"><path d="M0 0h1180v1180H0z"/></clipPath><clipPath id="cg"><path d="M0 0h1180v1180H0z"/></clipPath><clipPath id="ca"><path d="M0 0h1300v1300H0z"/></clipPath><clipPath id="ce"><path d="M0 0h1180v1180H0z"/></clipPath><clipPath id="cd"><path d="M0 0h1180v1180H0z"/></clipPath><clipPath id="cc"><path d="M0 0h1180v1180H0z"/></clipPath><clipPath id="cb"><path d="M0 0h1180v1180H0z"/></clipPath><clipPath id="bV"><path d="M0 0h1300v1300H0z"/></clipPath><clipPath id="bZ"><path d="M0 0h1180v1180H0z"/></clipPath><clipPath id="bY"><path d="M0 0h1180v1180H0z"/></clipPath><clipPath id="bX"><path d="M0 0h1180v1180H0z"/></clipPath><clipPath id="bW"><path d="M0 0h1180v1180H0z"/></clipPath><clipPath id="bQ"><path d="M0 0h1300v1300H0z"/></clipPath><clipPath id="bU"><path d="M0 0h1180v1180H0z"/></clipPath><clipPath id="bT"><path d="M0 0h1180v1180H0z"/></clipPath><clipPath id="bS"><path d="M0 0h1180v1180H0z"/></clipPath><clipPath id="bR"><path d="M0 0h1180v1180H0z"/></clipPath><clipPath id="bL"><path d="M0 0h1300v1300H0z"/></clipPath><clipPath id="bP"><path d="M0 0h1180v1180H0z"/></clipPath><clipPath id="bO"><path d="M0 0h1180v1180H0z"/></clipPath><clipPath id="bN"><path d="M0 0h1180v1180H0z"/></clipPath><clipPath id="bM"><path d="M0 0h1180v1180H0z"/></clipPath><clipPath id="bG"><path d="M0 0h1300v1300H0z"/></clipPath><clipPath id="bK"><path d="M0 0h1180v1180H0z"/></clipPath><clipPath id="bJ"><path d="M0 0h1180v1180H0z"/></clipPath><clipPath id="bI"><path d="M0 0h1180v1180H0z"/></clipPath><clipPath id="bH"><path d="M0 0h1180v1180H0z"/></clipPath><clipPath id="bB"><path d="M0 0h1300v1300H0z"/></clipPath><clipPath id="bF"><path d="M0 0h1180v1180H0z"/></clipPath><clipPath id="bE"><path d="M0 0h1180v1180H0z"/></clipPath><clipPath id="bD"><path d="M0 0h1180v1180H0z"/></clipPath><clipPath id="bC"><path d="M0 0h1180v1180H0z"/></clipPath><clipPath id="bw"><path d="M0 0h1300v1300H0z"/></clipPath><clipPath id="bA"><path d="M0 0h1180v1180H0z"/></clipPath><clipPath id="bz"><path d="M0 0h1180v1180H0z"/></clipPath><clipPath id="by"><path d="M0 0h1180v1180H0z"/></clipPath><clipPath id="bx"><path d="M0 0h1180v1180H0z"/></clipPath><clipPath id="br"><path d="M0 0h1300v1300H0z"/></clipPath><clipPath id="bv"><path d="M0 0h1180v1180H0z"/></clipPath><clipPath id="bu"><path d="M0 0h1180v1180H0z"/></clipPath><clipPath id="bt"><path d="M0 0h1180v1180H0z"/></clipPath><clipPath id="bs"><path d="M0 0h1180v1180H0z"/></clipPath><clipPath id="bm"><path d="M0 0h1300v1300H0z"/></clipPath><clipPath id="bq"><path d="M0 0h1180v1180H0z"/></clipPath><clipPath id="bp"><path d="M0 0h1180v1180H0z"/></clipPath><clipPath id="bo"><path d="M0 0h1180v1180H0z"/></clipPath><clipPath id="bn"><path d="M0 0h1180v1180H0z"/></clipPath><clipPath id="z"><path d="M0 0h1080v1080H0z"/></clipPath><clipPath id="s"><path d="M0 0h1080v1080H0z"/></clipPath><clipPath id="t"><path d="M0 0h1080v1080H0z"/></clipPath><clipPath id="v"><path d="M0 0h1080v1080H0z"/></clipPath><clipPath id="A"><path d="M0 0h1080v1080H0z"/></clipPath><mask id="fr" mask-type="alpha"><use xlink:href="#c"/></mask><mask id="fq" mask-type="alpha"><use xlink:href="#e"/></mask><mask id="fp" mask-type="alpha"><use xlink:href="#f"/></mask><mask id="bk" mask-type="alpha"><use xlink:href="#h"/></mask><mask id="bj" mask-type="alpha"><use xlink:href="#j"/></mask><mask id="fm" mask-type="alpha"><use xlink:href="#l"/></mask><mask id="fl" mask-type="alpha"><use xlink:href="#n"/></mask><mask id="dl" mask-type="alpha"><use xlink:href="#p"/></mask><mask id="dk" mask-type="alpha"><use xlink:href="#r"/></mask><mask id="D" mask-type="alpha"><use xlink:href="#u"/></mask><mask id="C" mask-type="alpha"><use xlink:href="#w"/></mask><mask id="B" mask-type="alpha"><use xlink:href="#x"/></mask><g clip-path="url(#a)" style="display:block" transform="matrix(.81106 -2.1938 2.19655 .8093 -1124.153 1148.93)" id="c"><path fill="#58CC02" d="M-60.186-15.561c2.241-28.773 8.944-50.837 23.807-51.724 10.014-.598 19.01 1.538 23.409 4.798 9.765 7.235 16.811 5.742 25.212 2.405 11.414-4.534 19.317-2.516 25.65.782 12.131 6.316 11.357 21.765 8.518 35.074-2.839 13.309-.601 28.394-.601 28.394 5.664 28.851-3.822 53.422-34.544 62.579-33.486 9.981-64.167-9.204-69.831-38.055 0 0-3.861-15.48-1.62-44.253z" transform="rotate(63.608 -113.283 561.428) scale(.6)" style="display:block"/></g><g clip-path="url(#b)" style="display:block" transform="matrix(.81106 -2.1938 2.19655 .8093 -1124.153 1148.93)" id="f"><path fill="#58CC02" d="M-60.186-15.561c2.241-28.773 8.944-50.837 23.807-51.724 10.014-.598 19.01 1.538 23.409 4.798 9.765 7.235 16.811 5.742 25.212 2.405 11.414-4.534 19.317-2.516 25.65.782 12.131 6.316 11.357 21.765 8.518 35.074-2.839 13.309-.601 28.394-.601 28.394 5.664 28.851-3.822 53.422-34.544 62.579-33.486 9.981-64.167-9.204-69.831-38.055 0 0-3.861-15.48-1.62-44.253z" transform="rotate(63.608 -113.283 561.428) scale(.6)" style="display:block"/></g><g clip-path="url(#d)" style="display:block" transform="matrix(.81106 -2.1938 2.19655 .8093 -1124.153 1148.93)" id="e"><path fill="#58CC02" d="M-60.186-15.561c2.241-28.773 8.944-50.837 23.807-51.724 10.014-.598 19.01 1.538 23.409 4.798 9.765 7.235 16.811 5.742 25.212 2.405 11.414-4.534 19.317-2.516 25.65.782 12.131 6.316 11.357 21.765 8.518 35.074-2.839 13.309-.601 28.394-.601 28.394 5.664 28.851-3.822 53.422-34.544 62.579-33.486 9.981-64.167-9.204-69.831-38.055 0 0-3.861-15.48-1.62-44.253z" transform="rotate(63.608 -113.283 561.428) scale(.6)" style="display:block"/></g><g clip-path="url(#g)" style="display:block" id="h"><path fill="#A41414" d="M-124.588-292.025c6.952-10.05 20.673-12.314 30.65-5.06 3.13 2.277 5.615 3.703 8.305 4.507 2.476.74 6.192 1.266 11.974 0 11.846-2.593 23.672 5.13 26.414 17.25 2.742 12.12-4.638 24.048-16.483 26.641-26.744 5.855-44.486-4.081-55.385-12.007-9.975-7.255-12.427-21.282-5.475-31.331z" transform="rotate(4 -8723.074 10268.47) scale(.98467)" style="display:block"/></g><g clip-path="url(#i)" style="display:block" id="j"><path fill="#A41414" d="M-124.588-292.025c6.952-10.05 20.673-12.314 30.65-5.06 3.13 2.277 5.615 3.703 8.305 4.507 2.476.74 6.192 1.266 11.974 0 11.846-2.593 23.672 5.13 26.414 17.25 2.742 12.12-4.638 24.048-16.483 26.641-26.744 5.855-44.486-4.081-55.385-12.007-9.975-7.255-12.427-21.282-5.475-31.331z" transform="rotate(4 -8723.074 10268.47) scale(.98467)" style="display:block"/></g><g clip-path="url(#k)" style="display:block" id="l"><path fill="#A41414" d="M-118.614-289.012c5.816-8.408 17.297-10.302 25.642-4.233 2.619 1.905 4.698 3.098 6.948 3.77 2.071.618 5.182 1.06 10.02 0 9.91-2.168 19.803 4.293 22.097 14.432 2.294 10.14-3.88 20.119-13.79 22.288-22.376 4.898-37.218-3.414-46.335-10.045-8.346-6.07-10.398-17.805-4.582-26.212z" transform="rotate(4 -8723.074 10268.47) scale(.98467)" style="display:block"/></g><g clip-path="url(#m)" style="display:block" id="n"><path fill="#A41414" d="M-118.614-289.012c5.816-8.408 17.297-10.302 25.642-4.233 2.619 1.905 4.698 3.098 6.948 3.77 2.071.618 5.182 1.06 10.02 0 9.91-2.168 19.803 4.293 22.097 14.432 2.294 10.14-3.88 20.119-13.79 22.288-22.376 4.898-37.218-3.414-46.335-10.045-8.346-6.07-10.398-17.805-4.582-26.212z" transform="rotate(4 -8723.074 10268.47) scale(.98467)" style="display:block"/></g><g clip-path="url(#o)" style="display:block" id="p"><path fill="#A41414" d="M-124.588-292.025c6.952-10.05 20.673-12.314 30.65-5.06 3.13 2.277 5.615 3.703 8.305 4.507 2.476.74 6.192 1.266 11.974 0 11.846-2.593 23.672 5.13 26.414 17.25 2.742 12.12-4.638 24.048-16.483 26.641-26.744 5.855-44.486-4.081-55.385-12.007-9.975-7.255-12.427-21.282-5.475-31.331z" transform="rotate(4 -8723.074 10268.47) scale(.98467)" style="display:block"/></g><g clip-path="url(#q)" style="display:block" id="r"><path fill="#A41414" d="M-124.588-292.025c6.952-10.05 20.673-12.314 30.65-5.06 3.13 2.277 5.615 3.703 8.305 4.507 2.476.74 6.192 1.266 11.974 0 11.846-2.593 23.672 5.13 26.414 17.25 2.742 12.12-4.638 24.048-16.483 26.641-26.744 5.855-44.486-4.081-55.385-12.007-9.975-7.255-12.427-21.282-5.475-31.331z" transform="rotate(4 -8723.074 10268.47) scale(.98467)" style="display:block"/></g><g clip-path="url(#s)" transform="matrix(1.05412 .11982 -.1144 1.05928 -14.145 -195.095)" style="display:block" id="u"><path fill="#58CC02" d="M-60.186-15.561c-.496-27.164 7.863-46.104 22.457-48.708 11.304-2.132 19.48.732 24.01 3.8 10.057 6.812 17.03 5.023 25.277 1.335 11.206-5.01 17.393-3.627 23.912-.736 14.068 6.163 12.475 20.48 11.804 35.704-1.11 5.208.224 31.341.224 31.341C49.714 36.361 29.44 62.799-2.288 64.749c-26.042 2.833-54.06-16.383-56.276-45.57 0 0-2.499-23.481-1.622-34.74z" transform="rotate(63.608 -113.283 561.428) scale(.6)" style="display:block"/></g><g clip-path="url(#t)" transform="matrix(1.05412 .11982 -.1144 1.05928 -14.145 -195.095)" style="display:block" id="x"><path fill="#58CC02" d="M-60.186-15.561c-.496-27.164 7.863-46.104 22.457-48.708 11.304-2.132 19.48.732 24.01 3.8 10.057 6.812 17.03 5.023 25.277 1.335 11.206-5.01 17.393-3.627 23.912-.736 14.068 6.163 12.475 20.48 11.804 35.704-1.11 5.208.224 31.341.224 31.341C49.714 36.361 29.44 62.799-2.288 64.749c-26.042 2.833-54.06-16.383-56.276-45.57 0 0-2.499-23.481-1.622-34.74z" transform="rotate(63.608 -113.283 561.428) scale(.6)" style="display:block"/></g><g clip-path="url(#v)" transform="matrix(1.05412 .11982 -.1144 1.05928 -14.145 -195.095)" style="display:block" id="w"><path fill="#58CC02" d="M-60.186-15.561c-.496-27.164 7.863-46.104 22.457-48.708 11.304-2.132 19.48.732 24.01 3.8 10.057 6.812 17.03 5.023 25.277 1.335 11.206-5.01 17.393-3.627 23.912-.736 14.068 6.163 12.475 20.48 11.804 35.704-1.11 5.208.224 31.341.224 31.341C49.714 36.361 29.44 62.799-2.288 64.749c-26.042 2.833-54.06-16.383-56.276-45.57 0 0-2.499-23.481-1.622-34.74z" transform="rotate(63.608 -113.283 561.428) scale(.6)" style="display:block"/></g></defs><g clip-path="url(#y)"><g clip-path="url(#dm)" style="display:block" transform="matrix(.95 0 0 .95 5 51)"><g clip-path="url(#dC)" style="display:block" transform="matrix(.85 0 0 .85 -36.5 7.5)"><g clip-path="url(#dD)" style="display:block" transform="translate(60 60)"><path fill="#58CC02" d="M-222-135c-4.632 1.563-7.795 6.464-10.343 12.149-2.548 5.685-4.482 12.154-6.657 16.851-1.972 4.258-5.423 9.898-8.281 15.403-2.858 5.505-5.122 10.876-4.719 14.597.601 5.556 5.293 8.48 11.488 10.428 6.195 1.948 13.894 2.919 20.512 4.572a4901.571 4901.571 0 0 1 30.352 7.696C-180.382-50.929-171.4-48.62-161-46c5.129 1.292 11.442 3.199 17.191 4.455 5.749 1.256 10.934 1.86 13.809.545 3.262-1.492 6.145-7.134 8.646-13.457 2.501-6.323 4.62-13.327 6.354-17.543 1.489-3.62 5.212-9.757 7.826-16.295 2.614-6.538 4.12-13.478 1.174-18.705-1.616-2.867-16.763-6.831-26-9-30.461-7.153-62.662-16.918-88-20-1.228-.149-1.447.813-2 1z" transform="translate(590.5 591)" style="display:block"/><g style="display:block"><path fill="#FFF" d="M368 457c-3.585 1.51-6.319 6.068-8.79 11.595-2.471 5.527-4.679 12.022-7.21 17.405-1.591 3.382-4.879 9.545-7.5 15.281-2.621 5.736-4.576 11.045-3.5 12.719.942 1.465 6.348 3.081 12.316 4.523 5.968 1.442 12.496 2.709 15.684 3.477 13.145 3.168 21.194 5.1 29.182 7.024 7.988 1.924 15.915 3.84 28.818 6.976 4.198 1.02 10.385 3.204 16.303 4.791 5.918 1.587 11.569 2.576 14.697 1.209 4.436-1.94 9.891-20.466 13-28 3.501-8.485 13.312-23.598 10-30-1.967-3.803-15.129-5.369-26-8-30.153-7.297-59.558-16.449-85-20-1.237-.173-1.429.76-2 1z"/><path stroke-linejoin="round" stroke="#89E219" stroke-width="9" d="M368 457c-3.585 1.51-6.319 6.068-8.79 11.595-2.471 5.527-4.679 12.022-7.21 17.405-1.591 3.382-4.879 9.545-7.5 15.281-2.621 5.736-4.576 11.045-3.5 12.719.942 1.465 6.348 3.081 12.316 4.523 5.968 1.442 12.496 2.709 15.684 3.477 13.145 3.168 21.194 5.1 29.182 7.024 7.988 1.924 15.915 3.84 28.818 6.976 4.198 1.02 10.385 3.204 16.303 4.791 5.918 1.587 11.569 2.576 14.697 1.209 4.436-1.94 9.891-20.466 13-28 3.501-8.485 13.312-23.598 10-30-1.967-3.803-15.129-5.369-26-8-30.153-7.297-59.558-16.449-85-20-1.237-.173-1.429.76-2 1z" fill="none"/></g><path fill="#89E219" d="M-220-125c-1.08.559-2.357 2.524-3.682 5.118-1.325 2.594-2.696 5.816-3.966 8.889-1.27 3.073-2.437 5.996-3.352 7.993-1.403 3.061-5.311 9.981-7.04 15.675-1.729 5.694-1.277 10.164 6.04 8.325 2.451-.616 4.501-4.563 6.288-9.133 1.787-4.57 3.312-9.762 4.712-12.867.737-1.632 5.502-9.971 7.825-16.732 2.323-6.761 2.206-11.945-6.825-7.268z" transform="translate(590 590)" style="display:block"/><path fill="#FF9600" d="M-191-111c-7.242 1.389-12.398 4.635-15.595 8.679-3.197 4.044-4.437 8.886-3.848 13.465.589 4.579 3.006 8.896 7.123 11.892 4.117 2.996 9.933 4.671 17.32 3.964 1.064-.102 3.522-.647 6.628-1.456a221.665 221.665 0 0 0 10.521-3.037c3.659-1.156 7.223-2.397 9.946-3.541 2.723-1.144 4.607-2.193 4.905-2.966 1.618-4.191-1.376-6.296-3.777-8.3-2.401-2.004-4.211-3.909-.223-7.7 4.047-3.847-1.029-7.206-8.703-9.299-7.674-2.093-17.948-2.919-24.297-1.701z" transform="translate(590 590)" style="display:block"/><path fill="#FFC800" d="M-194-101c-4.192 1.156-6.554 3.193-7.482 5.437-.928 2.244-.421 4.696 1.124 6.681 1.545 1.985 4.13 3.503 7.358 3.882 1.965.231 5.925-.693 9.413-1.712 3.488-1.019 6.505-2.135 6.587-2.288 1.842-3.448-1.399-6.727-5.605-9.004-4.206-2.277-9.376-3.553-11.395-2.996z" transform="translate(590 590)" style="display:block"/><path fill="#E1E1E1" d="M-122-102c-.89.335-2.606 3.013-4.612 6.886-2.006 3.873-4.301 8.94-6.35 14.054-2.049 5.114-3.85 10.276-4.869 14.335-1.019 4.059-1.254 7.017-.169 7.725 1.57 1.025 3.066-.003 4.483-2.113 1.417-2.11 2.756-5.303 4.011-8.608 1.255-3.305 2.425-6.721 3.506-9.279 1.321-3.124 4.938-9.859 6.917-15.321s2.319-9.65-2.917-7.679z" transform="translate(590 590)" style="display:block"/><path fill="#81DE3A" d="M-122-102c-.979.368-2.396 2.313-3.926 5.051-1.53 2.738-3.173 6.27-4.606 9.813-1.433 3.543-2.655 7.098-3.341 9.881-.686 2.783-.836 4.796-.127 5.255 1.826 1.181 5.154-2.28 8.317-7.246 3.163-4.966 6.163-11.437 7.332-16.275 1.169-4.838.508-8.043-3.649-6.479z" transform="translate(590 590)" style="display:block"/></g><g clip-path="url(#dE)" style="display:block" transform="translate(60 60)"><path fill="#58CC02" d="M-53-65c-.328.025-.665.001-1.002-.017-.337-.018-.673-.03-.998.017-23.331 3.394-44.467 7.684-65.953 12.48C-142.439-47.724-164.273-42.421-189-37c-10.888 2.387-20.994 4.486-31.7 6.689-10.706 2.203-22.012 4.509-35.3 7.311-8.565 1.806-21.968 3.376-33.904 6.459C-301.84-13.458-312.308-8.861-315-1c-2.341 6.836.689 22.314 2 33 2.967 24.177 6.253 42.616 9 65 1.469 11.971.62 24.447 4 34 8.477 23.956 27.03 18.388 52 13 61.879-13.352 114.261-25.679 176-39 16.113-3.477 60.477-7.552 67-19 5.127-8.999-.234-27.621-3-39-6.183-25.439-11.756-48.198-18-74-5.308-21.934-5.473-39.626-27-38z" transform="translate(590.5 591)" style="display:block"/><g style="display:block"><path fill="#FFF" d="M539 529c-11.099.099-22.366 2.459-33.6 5.364-11.234 2.905-22.435 6.356-33.4 8.636-21.667 4.505-43.492 8.948-65.488 13.418-21.996 4.47-44.162 8.968-66.512 13.582-8.236 1.7-22.138 3.613-34.53 6.644S282.196 583.825 280 590c-2.244 6.313 1.676 23.674 3 34 1.694 13.213 2.507 22.833 4 35 1.373 11.191 3.843 60.259 13 65 8.31 4.303 26.479-2.946 36-5 64.288-13.872 112.831-23.804 177-38 12.809-2.834 62.425-8.636 67-19 2.848-6.453-3.589-22.776-6-33-5.663-24.01-10.05-42.098-16-67-4.593-19.222-3.741-33.136-19-33z"/><path stroke-linejoin="round" stroke="#89E219" stroke-width="9" d="M539 529c-11.099.099-22.366 2.459-33.6 5.364-11.234 2.905-22.435 6.356-33.4 8.636-21.667 4.505-43.492 8.948-65.488 13.418-21.996 4.47-44.162 8.968-66.512 13.582-8.236 1.7-22.138 3.613-34.53 6.644S282.196 583.825 280 590c-2.244 6.313 1.676 23.674 3 34 1.694 13.213 2.507 22.833 4 35 1.373 11.191 3.843 60.259 13 65 8.31 4.303 26.479-2.946 36-5 64.288-13.872 112.831-23.804 177-38 12.809-2.834 62.425-8.636 67-19 2.848-6.453-3.589-22.776-6-33-5.663-24.01-10.05-42.098-16-67-4.593-19.222-3.741-33.136-19-33z" fill="none"/></g><path fill="#89E219" d="M-275 2c-1.103-.131-4.605.152-8.08.826-3.475.674-6.924 1.74-7.92 3.174-2.499 3.596-1.551 15.131.172 26.874C-289.105 44.617-286.606 56.569-286 61c1.147 8.383 3.99 49.485 9 53 2.03 1.424 19.042-.033 22-5 2.084-3.498-1.747-17.175-3-26-1.418-9.985-2.679-18.028-4-28-2.276-17.18-2.156-51.711-13-53z" transform="translate(590 590)" style="display:block"/><path fill="#FF9600" d="M-142-14c-.325.018-.665-.008-1.003-.025-.339-.017-.676-.025-.997.025-20.295 3.204-41.53 6.953-58.323 14.526C-219.116 8.099-231.469 19.497-234 38c-2.143 15.668 2.3 27.319 10.058 35.353C-216.184 81.387-205.113 85.803-194 87c18.089 1.948 31.135-3.348 41.761-11.233C-141.613 67.882-133.407 57.407-125 49c6.58-6.58 22.707-17.985 21-26-2.105-9.884-29.315-8.537-32-17-.926-2.92 8.909-10.757 5-18-2.244-4.158-7.694-2.176-11-2z" transform="translate(590 590)" style="display:block"/><path fill="#FFC800" d="M-197 24c-15.658 3.898-19.395 16.424-15.474 26.213 3.921 9.789 15.499 16.84 30.474 9.787 2.203-1.038 8.642-6.093 14.311-11.611C-162.02 42.871-157.122 36.89-158 34c-.327-1.078-2.62-2.238-5.31-3.299C-166 29.64-169.085 28.68-171 28c-8.79-3.121-16.687-6.318-26-4z" transform="translate(590 590)" style="display:block"/><path fill="#E1E1E1" d="M-60-43c-4.565 1.469-5.377 6.349-4.767 12.171.61 5.822 2.641 12.587 3.767 17.829.492 2.293 1.539 6.306 2.689 10.74C-57.161 2.174-55.907 7.027-55 11c2.153 9.431 6.879 44.599 13 47 5.219 2.047 10.839-1.806 11-2 3.2-3.851-1.22-18.269-3-26-4.711-20.458-7.424-32.472-12-52-2.851-12.167-3.846-24.269-14-21z" transform="translate(590 590)" style="display:block"/><path fill="#81DE3A" d="M-60-43c-4.549 1.465-5.489 4.736-5.071 8.631.417 3.895 2.192 8.413 3.071 12.369 1.38 6.212 3.047 17.645 5.16 27.933S-52.166 25.365-49 27c5.337 2.755 10.982-.831 12-3 2.995-6.384-4.342-24.756-7-36-3.284-13.893-4.09-34.834-16-31z" transform="translate(590 590)" style="display:block"/></g><g clip-path="url(#dF)" style="display:block" transform="translate(60 60)"><path fill="#58CC02" d="M73-87c-4.977.886-9.391 2.963-13.478 5.655S51.674-75.345 48-72A37055.757 37055.757 0 0 1-79.418 43.516 31731.847 31731.847 0 0 1-207 158c-5.325 4.752-13.528 10.442-20.798 16.974-7.27 6.532-13.608 13.906-15.202 22.026-1.711 8.718.896 27.799 5 37 3.621 8.116 17.869 17.484 26 24 48.239 38.655 90.761 74.35 138 112 14.744 11.751 39.304 38.581 63 38 23.847-.584 35.29-21.975 50-38 74.746-81.429 143.681-163.729 215-243 10.428-11.591 29.458-28.445 36-41 4.826-9.261 9.93-29.246 9-36-2.474-17.97-33.346-29.864-48-39-40.761-25.412-71.331-44.524-108-67-17.16-10.518-44.032-35.619-70-31z" transform="translate(590.5 591)" style="display:block"/><g style="display:block"><path fill="#FFF" d="M666 509c-5.474.953-9.313 3.262-12.74 6.178-3.427 2.916-6.44 6.44-10.26 9.822-43.59 38.592-85.563 76.428-127.277 114.074S432.554 714.174 390 752c-2.867 2.548-11.465 9.034-19.298 16.64-7.833 7.606-14.899 16.332-14.702 23.36.296 10.553 14.654 20.258 23 27 57.448 46.409 111.447 86.314 168 132 10.412 8.412 18.809 18.322 33 18 19.312-.438 33.775-24.682 46-38 76.097-82.9 146.566-161.26 221-245 9.442-10.623 33.948-31.881 33-45-1.105-15.303-35.412-30.208-48-38-38.581-23.884-70.091-44.083-106-66-14.103-8.608-41.349-31.248-60-28z"/><path stroke-linejoin="round" stroke="#89E219" stroke-width="9" d="M666 509c-5.474.953-9.313 3.262-12.74 6.178-3.427 2.916-6.44 6.44-10.26 9.822-43.59 38.592-85.563 76.428-127.277 114.074S432.554 714.174 390 752c-2.867 2.548-11.465 9.034-19.298 16.64-7.833 7.606-14.899 16.332-14.702 23.36.296 10.553 14.654 20.258 23 27 57.448 46.409 111.447 86.314 168 132 10.412 8.412 18.809 18.322 33 18 19.312-.438 33.775-24.682 46-38 76.097-82.9 146.566-161.26 221-245 9.442-10.623 33.948-31.881 33-45-1.105-15.303-35.412-30.208-48-38-38.581-23.884-70.091-44.083-106-66-14.103-8.608-41.349-31.248-60-28z" fill="none"/></g><path fill="#89E219" d="M-166 176c-4.719.654-11.421 4.644-16.842 9.6-5.421 4.956-9.562 10.879-9.158 15.4.518 5.792 13.522 12.941 20 18 45.946 35.882 86.366 68.237 131 103 7.909 6.16 16.016 14.73 25 14 8.633-.701 25.504-18.192 25-27-.559-9.781-27.769-26.918-40-36-32.103-23.839-59.594-44.264-88-66-9.91-7.583-34.965-32.668-47-31z" transform="translate(590 590)" style="display:block"/><path fill="#A6A6A6" d="M15 40c-.282.067-.653.004-1.019-.045-.366-.049-.725-.082-.981.045C5.419 43.758-1.587 50.047-8.445 57.002-15.303 63.957-22.012 71.577-29 78c-20.463 18.809-44.26 35.106-44 70 .608 81.535 123.789 103.475 170 50 18.282-21.156 17-46.595 17-87 0-11.263 2.522-38.18-3-47-6.611-10.559-20.447-6.05-33-4-5.474.894-29.394 8.263-35 6-3.048-1.23-5.442-10.601-8-15-4.616-7.94-10.718-13.231-20-11z" transform="translate(590 590)" style="display:block"/><path fill="#E1E1E1" d="M39 118c-14.756.805-32.51 3.414-46.448 9.642C-21.386 133.87-31.508 143.717-31 159c.728 21.891 19.451 32.442 38.755 32.869C27.06 192.296 46.946 182.601 50 164c.66-4.022 1.58-14.062 1.999-23.577.419-9.515.339-18.504-.999-20.423-2.764-3.964-8.96-2.166-12-2zM86-55c-3.02.459-5.691 1.101-7.521 2.557S75.659-48.716 76-45c.25 2.728 3.068 5.437 6.664 7.984C86.26-34.469 90.636-32.083 94-30c42.344 26.213 80.54 53.022 124 78 5.705 3.279 20.608 9.191 24 0 3.492-9.461-6.307-13.149-14-18-32.895-20.741-67.084-42.862-98-62-11.772-7.287-33.063-24.662-44-23z" transform="translate(590 590)" style="display:block"/><path fill="#81DE3A" d="M86-55c-7.19 1.093-10.638 3.036-10 10 .716 7.806 16.821 13.39 24 18 19.9 12.779 34.656 21.862 52 33 7.858 5.046 33.498 27.216 41 11C198.005 6.181 180.755.099 171-6c-18.25-11.41-35.951-22.994-52-33-10.052-6.266-23.085-17.507-33-16z" transform="translate(590 590)" style="display:block"/></g><g clip-path="url(#dG)" style="display:block" transform="translate(60 60)"><path fill="#58CC02" d="M285 590c10.875-19.014 23.05-37.959 35.168-57.178C332.286 513.603 344.349 494.11 355 474c26.345-49.74 51.138-100.787 75.823-152.501C455.508 269.785 480.085 217.404 506 165a1495.42 1495.42 0 0 0 6.875-14.139c2.48-5.151 5.169-10.755 8.125-16.861 1.847-3.815 5.821-10.537 9.221-16.819 3.4-6.282 6.226-12.123 5.779-14.181-.3-1.38-7.672-6.083-15.408-10.34S504.756 84.593 503 85c-2.125.493-5.097 5.666-8.176 11.879-3.079 6.213-6.266 13.467-8.824 18.121-38.781 70.582-76.877 142-114.48 213.938C333.917 400.876 296.808 473.335 260 546c-4.912 9.698-16.043 24.438-16 30 .051 6.566 11.544 7.836 17 14h24z" transform="translate(590.5 591)" style="display:block"/><g style="display:block"><path fill="#FFF" d="M849 1139a5456.604 5456.604 0 0 0 29.615-53.234 6297.356 6297.356 0 0 0 29.263-53.921 7295.03 7295.03 0 0 0 28.91-54.446 8570.91 8570.91 0 0 0 28.556-54.806c9.459-18.311 18.86-36.656 28.201-55.006 9.341-18.35 18.621-36.707 27.843-55.043 9.222-18.336 18.384-36.65 27.486-54.916A23486.118 23486.118 0 0 0 1076 703a9859.396 9859.396 0 0 0-33.259 61.456 11386.339 11386.339 0 0 0-33.059 62.065 12961.374 12961.374 0 0 0-32.811 62.474 15077.843 15077.843 0 0 0-32.52 62.684 17787.391 17787.391 0 0 0-32.181 62.695 21346.263 21346.263 0 0 0-31.799 62.506A26135.956 26135.956 0 0 0 849 1139z"/><path stroke-linejoin="round" stroke="#89E219" stroke-width="9" d="M849 1139a5456.604 5456.604 0 0 0 29.615-53.234 6297.356 6297.356 0 0 0 29.263-53.921 7295.03 7295.03 0 0 0 28.91-54.446 8570.91 8570.91 0 0 0 28.556-54.806c9.459-18.311 18.86-36.656 28.201-55.006 9.341-18.35 18.621-36.707 27.843-55.043 9.222-18.336 18.384-36.65 27.486-54.916A23486.118 23486.118 0 0 0 1076 703a9859.396 9859.396 0 0 0-33.259 61.456 11386.339 11386.339 0 0 0-33.059 62.065 12961.374 12961.374 0 0 0-32.811 62.474 15077.843 15077.843 0 0 0-32.52 62.684 17787.391 17787.391 0 0 0-32.181 62.695 21346.263 21346.263 0 0 0-31.799 62.506A26135.956 26135.956 0 0 0 849 1139z" fill="none"/></g><path fill="#89E219" d="M316 442c-2.302 4.698-4.805 9.408-7.409 14.119s-5.307 9.424-8.01 14.126c-2.703 4.702-5.406 9.395-8.006 14.066-2.6 4.671-5.099 9.322-7.395 13.941-2.296 4.619-4.39 9.205-6.18 13.748 2.882-5.868 6.085-11.748 9.406-17.625 3.321-5.877 6.761-11.75 10.115-17.604 3.354-5.854 6.624-11.689 9.605-17.489 2.981-5.8 5.673-11.566 7.874-17.282z" transform="translate(590 590)" style="display:block"/><path fill="#A6A6A6" d="M409 260a1938.8 1938.8 0 0 1-10.218 19.63 3737.242 3737.242 0 0 1-10.476 19.707c-3.519 6.579-7.059 13.169-10.593 19.763a5239.893 5239.893 0 0 0-10.566 19.797 2339.398 2339.398 0 0 0-10.397 19.81 1478.571 1478.571 0 0 0-10.085 19.801 1066.472 1066.472 0 0 0-9.631 19.772A808.486 808.486 0 0 0 328 418c6.75-13 13.763-26.07 20.842-39.189 7.079-13.119 14.223-26.288 21.236-39.483 7.013-13.195 13.894-26.417 20.447-39.646C397.078 286.453 403.302 273.219 409 260z" transform="translate(590 590)" style="display:block"/><path fill="#E1E1E1" d="M366 343c-.147.65-.669 1.672-1.304 2.806-.635 1.134-1.382 2.38-1.981 3.478-.599 1.098-1.048 2.046-1.088 2.586-.04.539.33.67 1.373.13-.047-1.174.471-2.359 1.115-3.485s1.415-2.194 1.875-3.136c.46-.942.609-1.757.01-2.379z" transform="translate(590 590)" style="display:block"/></g></g><g clip-path="url(#ev)" style="display:block" transform="matrix(.85 0 0 .85 -70.5 -26.5)"><g clip-path="url(#ew)" style="display:block" transform="scale(1.02626) rotate(-.393 2792.687 1930.71)"><path stroke-linecap="round" stroke="#FF4B4B" stroke-width="12" d="M-23.402 22.94c-10.839 5.925-20.275 3.896-20.275 3.896" fill="none" transform="rotate(4.148 -8268.192 9707.944) scale(.97441)" style="display:block"/></g><g style="display:block"><path fill="#FFB100" d="m753.199 382.807-3.742.32 3.742-.32a3.754 3.754 0 0 0-4.062-3.422L464.48 403.75a3.755 3.755 0 0 0-3.421 4.062l3.741-.322v.001l-3.741.32c2.388 27.898 26.94 48.58 54.838 46.191l191.112-16.355c27.897-2.388 48.579-26.941 46.19-54.839z"/><path fill="#FFB100" d="M489.222 284.88c-2.438-16.628 5.868-29.959 16.371-37.614 10.504-7.656 21.93-13.729 21.93-13.729 12.007-7.233 25.854-11.678 39.455-15.08 45.603-11.41 81.853-11.476 103.044-9.454 14.577 1.417 26.346 10.188 31.243 23.683 26.215 72.25 37.767 184.962 37.767 184.962s-285.61 67.14-252.116-15.819c20.096-1.72 8.33-76.549 2.306-116.95z"/><path fill="#FFB100" d="M549.185 241.113c14.755 20.684 43.484 25.492 64.169 10.737 20.685-14.754 25.492-43.484 10.738-64.169-14.755-20.684-43.485-25.492-64.17-10.737-20.684 14.754-25.491 43.484-10.737 64.169z"/><path fill="#FFB100" d="M522.063 214.926c-2.441 16.432 6.475 33.249 22.351 41.443 15.876 8.192 34.764 5.721 46.763-5.78 2.496-2.393 1.753-6.553-1.467-8.217 0 0-42.758-28.12-47.683-27.991-4.926.13-9.739-1.423-12.408-3.016-2.67-1.592-7.047.141-7.556 3.561z"/><path fill="#FFB100" d="m525.81 215.078 12.91 5.63 6.865-14.412-3.237-.604c-2.366 4.392-5.611 9.115-14.07 5.26-1.262 2.77-2.314 3.785-2.468 4.126z"/></g><g clip-path="url(#ex)" style="display:block" transform="rotate(.654 -1255.002 -152.445) scale(1.01557)"><path fill="#FFC6B7" d="M57.813 4.033c1.389-10.206 2.988-12.685 1.42-20.224-2.011-8.485-24.614-21.673-24.614-21.673-11.525.104-24.598 2.72-33.043 3.742-6.633.885-18.435-.023-24.188 2.115l15.48 28.932S-13.384.697-18.79 4.741c-3.069 1.426-11.56 5.794-11.577 13.847-.368 7.969 9.654 13.421 14.552 14.304 7.542 1.692 43.379-11.362 55.479-15.073 12.1-3.711 17.822-6.591 18.149-13.786z" transform="rotate(3.1 -11164.036 13018.077) scale(.98467)" style="display:block"/></g><g clip-path="url(#ey)" style="display:block" transform="rotate(.654 -1255.002 -152.445) scale(1.01557)"><path fill="#D22121" d="M-31.296-16.79C-33.641-13.472-24.307 8.263.868 10.978 25.327 7.19 46.382 8.68 59.229-3.879c4.896-18.902 18.118-57.526 18.118-57.526L9.919-56.76S.679-53.854-6.513-46.751c-8.946 9.494-22.115 26.185-24.783 29.961z" transform="rotate(3.1 -11164.033 13018.074) scale(.98467)" style="display:block"/></g><g clip-path="url(#ez)" style="display:block" transform="rotate(.66 -1255.08 -152.323) scale(1.01557)"><path stroke-linecap="round" stroke="#FF4B4B" stroke-width="30.887" d="M36.919 138.64c20.709-7.36 25.39-20.864 25.39-20.864" fill="none" transform="rotate(3.1 -11164.05 13018.055) scale(.98467)" style="display:block"/></g><g clip-path="url(#eA)" style="display:block" transform="rotate(-.119 5320.905 789.345) scale(1.0006)"><path fill="#FFC6B7" d="M.365 80.563c-1.106-4.877-10.08-29.897-12.621-40.492-21.938-5.976-28.098-15.281-29.679-25.193-1.581-9.912-.621-17.5 4.074-25.753 8.269-14.536 27.148-26.864 36.692-29.929 9.544-3.065 23.991-4.477 33.674 1.998 10.459 7.212 17.151 20.453 19.346 34.774 4.836 24.268 12.669 69.811 13.391 73.873 7.591 44.29-54.747 55.331-64.877 10.722z" transform="rotate(3.874 -9187.753 10510.858) scale(.9994)" style="display:block"/></g><path fill="#D22121" d="M-124.16-20.606c.85 10.963 14.737 40.215 26.073 53.287 11.311 13.043 39.31 35.005 85.839 9.126 7.336-2.399 5.721-19.391 5.721-19.391l3.281-11.934c-7.919-6.685-41.284-27.534-47.901-32.749-10.209-8.046-24.422-14.402-37.55-13.347-12.875.331-21.204-3.587-27.623 1.558-6.019 4.691-8.418 5.628-7.84 13.45z" transform="rotate(3.755 -9642.642 10845.502)" style="display:block"/><path fill="#FFC6B7" d="M133.122-232.45c1.601-5.857 20.521-6.932 26.378-5.331 5.857 1.601 9.307 7.645 7.706 13.502v.001c-1.601 5.857-7.645 9.307-13.502 7.706h-.001c-2.163-.591-23.873-6.789-25.246-8.359-2.345-2.681 4.665-7.519 4.665-7.519z" transform="matrix(-1.49492 .6701 -.6701 -1.49492 847.88 16.928)" style="display:block"/><path fill="#D22121" d="M25.444-21.865C46.004-46.457-17.62-131.17-55.32-131.17c-37.7 0-68.261 30.56-68.261 68.26S-89.108 4.33-52.54 2.357C-12.04-.197 6.515-8.93 25.444-21.865z" transform="rotate(3.755 -9642.394 10840.715)" style="display:block"/><path fill="#FF4B4B" d="m89.477-261.209.503 17.609c1.341 9.171 8.971 19.232 18.601 23.783l-30.779 7.038c-19.351 1.268-36.066-13.392-37.334-32.743-1.268-19.351 13.393-36.066 32.744-37.334l33.916-4.279c-12.422 7.281-16.229 12.947-17.651 25.926z" transform="scale(-1.34281) rotate(-24.144 -491.79 1374.41)" style="display:block"/><path fill="#FF4B4B" d="M37.285-160.191a39.669 39.669 0 0 1-18.137-15.02c-12.057-18.42-8.225-46.219 11.14-56.17 32.861-16.724 91.782-33.42 108.984-38.022 21.13-6.817 42.657 9.377 47.13 30.933 4.471 21.557-9.378 42.658-30.934 47.13-.08.018-63.356 16.016-81.137 27.655-11.436 7.484-25.297 8.333-37.046 3.494z" transform="rotate(10.092 -3326.591 4085.829)" style="display:block"/><path fill="#FF4B4B" d="M-183.853-95.925c-16.425-29.367 17.203-59.041 43.875-68.16 24.153-8.258 46.328-12.338 63.344-15.484l97.561-18.038c43.684-8.077 100.637 21.332 97.548 65.647l-.114 2.51c-1.912 41.975-31.846 83.585-65.143 94.906C34.423-23.057-27.474-7.784-49.76-5.822c-47.483 2.95-86.26-18.509-113.079-58.012l-21.015-32.09z" transform="rotate(1.673 -22048.706 23973.744)" style="display:block"/><path fill="#D22121" d="M-28.625-23.375-64.625-3l20.875 15.75 20.5-21.5-5.375-14.625z" transform="rotate(-.345 108780.818 -114616.75)" style="display:block"/><path fill="#FFC6B7" d="M-146.295-184.883c-17.26-43.81-38.605-88.285-59.598-115.409l43.37-29.452 129.662-62.724C-2.57-344.61 18.32-297.533 34.621-256.16a1229.845 1229.845 0 0 1 22.78 62.868 1031.013 1031.013 0 0 1 6.158 19.163c.716 2.316 1.279 4.16 1.677 5.484.199.663.355 1.195.473 1.59.059.197.106.361.145.489l.076.256c.003.013.006.023-93.318 27.287s-93.321 27.274-93.317 27.285l-.026-.081-.253-.849c-.245-.819-.645-2.136-1.193-3.9a822.986 822.986 0 0 0-4.986-15.51 1032.374 1032.374 0 0 0-19.132-52.804z" transform="rotate(14.586 -2184.152 2827.295)" style="display:block"/><g style="display:block"><path fill="#FFB100" d="M520.586 274.164c15.596-2.626 30.367 7.887 32.993 23.483l4.115 24.44c2.626 15.596-7.887 30.366-23.483 32.992-15.596 2.626-30.368-7.886-32.994-23.482l-4.114-24.44c-2.626-15.596 7.887-30.367 23.483-32.993z"/><path fill="#FFC6B7" d="M533.325 337.014c9.615-1.515 17.975 5.022 19.93 13.6 1.954 8.56-3.65 18.884-12.91 20.738-9.741 1.951-19.406-6.207-20.807-15.4-1.23-8.072 3.335-17.292 13.787-18.938z"/><path fill="#FF4B4B" d="M490.702 291.737c-2.565.981-5.964 3.843-5.562 8.203.364 3.933.72 9.48 1.194 14.06.556 5.36 7.206 7.297 11.845 6.582 1.243-1.442 33.25-18.94 33.25-18.94 29.576-10.664 45.057-11.27 77.178-19.22 23.675-5.467 46.876-10.014 66.903-13.556 20.557-3.862 31.08-3.394 38.554-2.737 2.478.265 4.424-2.828 3.708-5.466-1.863-6.772-4.108-14.216-5.728-18.703-.257-.71-2.127-3.789-4.066-3.595-3.626-1.045-16.767-1.324-34.764 1.597-23.947 4.432-44.79 7.943-69.439 13.767-36.212 8.952-49.663 11.305-83.153 21.932-6.306-1.336-29.106 15.032-29.92 16.076z"/></g><path fill="#FFF" d="M-82.999-348.152c-4.758-12.721 1.777-26.921 14.597-31.716 12.82-4.795 27.069 1.631 31.827 14.352l5.241 14.011c4.758 12.721-1.777 26.92-14.597 31.715-12.82 4.795-27.07-1.63-31.828-14.351l-5.24-14.011z" transform="rotate(9.847 -3536.307 4281.137)" style="display:block"/><path fill="#EE9583" d="M-78.436-327.331c.324-.33 8.357 1.837 16.696 4.202 8.299 2.353 11.741 12.615 6.182 18.274-5.559 5.659-15.881 2.399-18.381-5.857-2.512-8.296-4.821-16.289-4.497-16.619z" transform="rotate(9.847 -3536.31 4281.137)" style="display:block"/><path fill="#3D3D3D" d="M-73.644-351.536c4.651-1.74 7.097-6.692 5.463-11.061a8.014 8.014 0 0 0-.753-1.508c5.682-1.491 11.572 1.269 13.55 6.558l4.605 12.312c2.119 5.666-1.054 12.089-7.087 14.345-6.033 2.256-12.641-.508-14.76-6.174l-4.605-12.312a10.37 10.37 0 0 1-.453-1.581 9.439 9.439 0 0 0 4.04-.579z" transform="rotate(9.847 -3536.306 4281.14)" style="display:block"/><path fill="#FFF" d="M-123.167-359.594c-12.781 4.798-19.251 19.051-14.452 31.836l5.285 14.081a24.69 24.69 0 0 0 4.78 7.872 19.846 19.846 0 0 1 12.986-3.055l10.083 1.102c4.835.529 9.685.838 14.534.927 5.304-6.586 7.089-15.727 3.901-24.22l-5.285-14.081c-4.799-12.785-19.051-19.26-31.832-14.462z" transform="rotate(9.847 -3536.307 4281.14)" style="display:block"/><path fill="#3D3D3D" d="M-114.607-336.215c4.651-1.74 7.098-6.692 5.464-11.061a8.014 8.014 0 0 0-.753-1.508c5.682-1.491 11.571 1.269 13.549 6.558l4.605 12.312c2.119 5.666-1.053 12.089-7.086 14.345-6.033 2.256-12.641-.507-14.76-6.173l-4.606-12.313a10.367 10.367 0 0 1-.452-1.581 9.434 9.434 0 0 0 4.039-.579z" transform="rotate(9.847 -3536.307 4281.135)" style="display:block"/><path fill="#FF4B4B" d="M-120.859-110.669c.123.41 187.792-55.254 187.789-55.267 0 0-6.624-20.102-9.279-28.107-4.599-13.867-7.991-22.686-15.76-43.802 3.018 12.083-17.321 39.92-64.105 59.666-63.464 25.715-113.867 16.774-119.44 4.946 1.406 3.868 3.728 10.29 7.241 20.904 4.163 12.579 13.309 40.841 13.554 41.66z" transform="rotate(14.586 -2184.152 2827.295)" style="display:block"/><path fill="#FF4B4B" d="M-130.26-209.448c-16.43.946-85.551 4.596-104.886 6.463-6.03 10.02-18.532 60.341-17.878 71.467 3.735 3.114 18.743 10.684 18.743 10.684l109.651 19.367s10.798-108.927-5.63-107.981z" transform="rotate(-3.427 11246.71 -11273.964)" style="display:block"/><path fill="#FFC6B7" d="m-200.123-120.495-.693-16.324c-1.056-24.877 18.254-45.9 43.131-46.956l16.325-.694c24.877-1.056 45.9 18.254 46.956 43.131l.693 16.325c1.056 24.877-18.254 45.9-43.131 46.956l-16.324.693c-24.877 1.056-45.901-18.254-46.957-43.131z" transform="matrix(-.48669 .3877 -.3877 -.48669 278.748 549.989)" style="display:block"/><path fill="#FFC6B7" d="M-166.261-199.398c10.438-3.277 21.557 2.528 24.834 12.966 3.277 10.438-2.527 21.557-12.965 24.834-10.438 3.277-21.558-2.528-24.835-12.966-3.277-10.438 2.528-21.557 12.966-24.834z" transform="matrix(-.48669 .3877 -.3877 -.48669 278.748 549.989)" style="display:block"/><path fill="#FF4B4B" d="M-113.102-136.836c4.881 28.098-13.717 54.749-35.395 58.564l-110.029 19.986c-28.098 4.881-54.834-13.94-59.715-42.038s13.94-54.833 42.038-59.714l107.084-17.658c24.583-1.823 51.136 12.762 56.017 40.86z" transform="matrix(-.48669 .3877 -.3877 -.48669 282.755 545.327)" style="display:block"/><path fill="#FFC6B7" d="m141.219-280.736 9.068.045c13.818.069 24.963 11.325 24.894 25.143l-.046 9.068c-.069 13.818-11.325 24.963-25.143 24.894l-9.067-.046c-13.818-.069-24.963-11.325-24.894-25.143l.045-9.067c.069-13.817 11.325-24.963 25.143-24.894z" transform="matrix(-1.49492 .6701 -.6701 -1.49492 847.88 16.928)" style="display:block"/><path fill="#EBE3E3" d="M-27.753-183.264a4.692 4.692 0 0 1-1.679-5.636l4.639-11.359a4.693 4.693 0 0 1 5.023-2.873l35.415 5.16c3.018.439 4.822 3.596 3.67 6.421L8.53-165.138c-1.134 2.777-4.545 3.792-7.013 2.088l-29.27-20.214z" transform="rotate(-39.013 1244.168 -847.277)" style="display:block"/><path stroke="#EBE3E3" stroke-width="9.719" d="M-21.228-188.758s20.119 49.733 25.67 77.34c5.153 25.96 10.897 85.94 10.897 85.94" fill="none" transform="rotate(1.673 -22048.706 23973.744)" style="display:block"/><g clip-path="url(#eC)" style="display:block" transform="rotate(-.119 5320.905 789.345) scale(1.0006)"><path fill="#FFC6B7" d="M.365 80.563c-1.106-4.877-10.08-29.897-12.621-40.492-21.938-5.976-28.098-15.281-29.679-25.193-1.581-9.912-.621-17.5 4.074-25.753 8.269-14.536 27.148-26.864 36.692-29.929 9.544-3.065 23.991-4.477 33.674 1.998 10.459 7.212 17.151 20.453 19.346 34.774 4.836 24.268 12.669 69.811 13.391 73.873 7.591 44.29-54.747 55.331-64.877 10.722z" transform="rotate(3.874 -9187.753 10510.858) scale(.9994)" style="display:block"/></g><g clip-path="url(#eE)" style="display:block" transform="rotate(.66 -1344.007 -130.357) scale(1.01557)" opacity=".02"><path stroke-linecap="round" stroke="#FF4B4B" stroke-width="30.887" d="M36.919 138.64c20.709-7.36 25.39-20.864 25.39-20.864" fill="none" transform="rotate(3.1 -11164.05 13018.055) scale(.98467)" opacity="1" style="display:block"/></g></g><g clip-path="url(#fj)" style="display:block" transform="rotate(4.084 709.815 -703.2) scale(.86889)"><g clip-path="url(#fk)" style="display:block"><path fill="#A41414" d="M-118.614-289.012c5.816-8.408 17.297-10.302 25.642-4.233 2.619 1.905 4.698 3.098 6.948 3.77 2.071.618 5.182 1.06 10.02 0 9.91-2.168 19.803 4.293 22.097 14.432 2.294 10.14-3.88 20.119-13.79 22.288-22.376 4.898-37.218-3.414-46.335-10.045-8.346-6.07-10.398-17.805-4.582-26.212z" transform="rotate(4 -8723.074 10268.47) scale(.98467)" style="display:block"/></g><g mask="url(#fl)" style="display:block"><path fill="#FFF" d="M641.761 342.39a9.02 9.02 0 0 0-.16.023c-5.323.781-8.66.067-10.858-.76-2.389-.9-4.551-2.351-7.245-4.613-8.585-7.211-21.17-6.027-28.11 2.644-3.432 4.286-4.84 9.602-4.351 14.751 2.215 2.82 5.847 4.182 9.305 3.157l11.122-3.296c2.928-.868 5.029-3.24 5.798-6.114 2.211 1.992 5.266 2.836 8.194 1.968l11.122-3.296c2.345-.695 4.158-2.354 5.183-4.464z"/></g><g mask="url(#fm)" style="display:block"><path fill="#E64340" d="M664.413 359.46c.015.09.03.179.043.269 1.717 11.163-5.73 21.51-16.635 23.11-5.128.753-9.859.91-14.22.613 3.372-10.656 11.49-19.358 22.605-22.652a32.823 32.823 0 0 1 8.207-1.34z"/></g></g></g></g></svg>