<svg xmlns="http://www.w3.org/2000/svg" xmlns:xlink="http://www.w3.org/1999/xlink" width="1080" height="1080" style="width:100%;height:100%;transform:translate3d(0,0,0);content-visibility:visible"><defs><clipPath id="t"><path d="M0 0h1080v1080H0z"/></clipPath><clipPath id="cf"><path d="M0 0h1080v1080H0z"/></clipPath><clipPath id="fe"><path d="M0 0h2095v1455H0z"/></clipPath><clipPath id="fi"><path d="M0 0h526v535H0z"/></clipPath><clipPath id="fg"><path d="M0 0h2095v1416H0z"/></clipPath><clipPath id="eX"><path d="M0 0h2095v1455H0z"/></clipPath><clipPath id="eY"><path fill="#fff" d="M91.656 57.37S-342.11 67.76-147.305 701.526s688.312 774.026 992.208 709.09c276.442-59.068-102.568-651.62-74.413-780.227 3.795-17.337 8.575-30.528 6.718-30.811-24.514-3.734-31.656-27.435-37.317-40.26-3.518-7.969-5.13-13.759-7.029-18.733-2.082-5.455-.316-14.83.982-19.375 1.298-4.546 6.393-10.233 11.844-16.177 1.69-1.843-10.851-9.351-22.681-8.763C605.33 502.123 91.656 57.37 91.656 57.37"/></clipPath><clipPath id="fc"><path d="M0 0h526v535H0z"/></clipPath><clipPath id="fa"><path d="M0 0h2095v1416H0z"/></clipPath><clipPath id="cm"><path d="M0 0h1080v1080H0z"/></clipPath><clipPath id="eV"><path d="M0 0h1080v1080H0z"/></clipPath><clipPath id="eW"><path d="M0 0h1080v1080H0z"/></clipPath><clipPath id="eT"><path d="M0 0h1080v1080H0z"/></clipPath><clipPath id="eU"><path d="M0 0h1080v1080H0z"/></clipPath><clipPath id="eR"><path d="M0 0h1080v1080H0z"/></clipPath><clipPath id="eS"><path d="M0 0h1080v1080H0z"/></clipPath><clipPath id="eP"><path d="M0 0h1080v1080H0z"/></clipPath><clipPath id="eQ"><path d="M0 0h1080v1080H0z"/></clipPath><clipPath id="eN"><path d="M0 0h1080v1080H0z"/></clipPath><clipPath id="eO"><path d="M0 0h1080v1080H0z"/></clipPath><clipPath id="eL"><path d="M0 0h1080v1080H0z"/></clipPath><clipPath id="eM"><path d="M0 0h1080v1080H0z"/></clipPath><clipPath id="eJ"><path d="M0 0h1080v1080H0z"/></clipPath><clipPath id="eK"><path d="M0 0h1080v1080H0z"/></clipPath><clipPath id="eH"><path d="M0 0h1080v1080H0z"/></clipPath><clipPath id="eI"><path d="M0 0h1080v1080H0z"/></clipPath><clipPath id="eG"><path d="M0 0h1080v1080H0z"/></clipPath><clipPath id="eF"><path d="M0 0h1080v1080H0z"/></clipPath><clipPath id="eE"><path d="M0 0h1080v1080H0z"/></clipPath><clipPath id="eD"><path d="M0 0h1080v1080H0z"/></clipPath><clipPath id="eg"><path d="M0 0h1080v1080H0z"/></clipPath><clipPath id="ei"><path d="M0 0h1080v1080H0z"/></clipPath><clipPath id="et"><path d="M0 0h1080v1080H0z"/></clipPath><clipPath id="eC"><path d="M0 0h1080v1080H0z"/></clipPath><clipPath id="eB"><path d="M0 0h1080v1080H0z"/></clipPath><clipPath id="eA"><path d="M0 0h1080v1080H0z"/></clipPath><clipPath id="ez"><path d="M0 0h1080v1080H0z"/></clipPath><clipPath id="ey"><path d="M0 0h1080v1080H0z"/></clipPath><clipPath id="ex"><path d="M0 0h1080v1080H0z"/></clipPath><clipPath id="ew"><path d="M0 0h1080v1080H0z"/></clipPath><clipPath id="ev"><path d="M0 0h1080v1080H0z"/></clipPath><clipPath id="eu"><path d="M0 0h1080v1080H0z"/></clipPath><clipPath id="ej"><path d="M0 0h1080v1080H0z"/></clipPath><clipPath id="es"><path d="M0 0h1080v1080H0z"/></clipPath><clipPath id="er"><path d="M0 0h1080v1080H0z"/></clipPath><clipPath id="eq"><path d="M0 0h1080v1080H0z"/></clipPath><clipPath id="ep"><path d="M0 0h1080v1080H0z"/></clipPath><clipPath id="eo"><path d="M0 0h1080v1080H0z"/></clipPath><clipPath id="en"><path d="M0 0h1080v1080H0z"/></clipPath><clipPath id="em"><path d="M0 0h1080v1080H0z"/></clipPath><clipPath id="el"><path d="M0 0h1080v1080H0z"/></clipPath><clipPath id="ek"><path d="M0 0h1080v1080H0z"/></clipPath><clipPath id="dJ"><path d="M0 0h1080v1080H0z"/></clipPath><clipPath id="dL"><path d="M0 0h1080v1080H0z"/></clipPath><clipPath id="dW"><path d="M0 0h1080v1080H0z"/></clipPath><clipPath id="ef"><path d="M0 0h1080v1080H0z"/></clipPath><clipPath id="ee"><path d="M0 0h1080v1080H0z"/></clipPath><clipPath id="ed"><path d="M0 0h1080v1080H0z"/></clipPath><clipPath id="ec"><path d="M0 0h1080v1080H0z"/></clipPath><clipPath id="eb"><path d="M0 0h1080v1080H0z"/></clipPath><clipPath id="ea"><path d="M0 0h1080v1080H0z"/></clipPath><clipPath id="dZ"><path d="M0 0h1080v1080H0z"/></clipPath><clipPath id="dY"><path d="M0 0h1080v1080H0z"/></clipPath><clipPath id="dX"><path d="M0 0h1080v1080H0z"/></clipPath><clipPath id="dM"><path d="M0 0h1080v1080H0z"/></clipPath><clipPath id="dV"><path d="M0 0h1080v1080H0z"/></clipPath><clipPath id="dU"><path d="M0 0h1080v1080H0z"/></clipPath><clipPath id="dT"><path d="M0 0h1080v1080H0z"/></clipPath><clipPath id="dS"><path d="M0 0h1080v1080H0z"/></clipPath><clipPath id="dR"><path d="M0 0h1080v1080H0z"/></clipPath><clipPath id="dQ"><path d="M0 0h1080v1080H0z"/></clipPath><clipPath id="dP"><path d="M0 0h1080v1080H0z"/></clipPath><clipPath id="dO"><path d="M0 0h1080v1080H0z"/></clipPath><clipPath id="dN"><path d="M0 0h1080v1080H0z"/></clipPath><clipPath id="dm"><path d="M0 0h1080v1080H0z"/></clipPath><clipPath id="do"><path d="M0 0h1080v1080H0z"/></clipPath><clipPath id="dz"><path d="M0 0h1080v1080H0z"/></clipPath><clipPath id="dI"><path d="M0 0h1080v1080H0z"/></clipPath><clipPath id="dH"><path d="M0 0h1080v1080H0z"/></clipPath><clipPath id="dG"><path d="M0 0h1080v1080H0z"/></clipPath><clipPath id="dF"><path d="M0 0h1080v1080H0z"/></clipPath><clipPath id="dE"><path d="M0 0h1080v1080H0z"/></clipPath><clipPath id="dD"><path d="M0 0h1080v1080H0z"/></clipPath><clipPath id="dC"><path d="M0 0h1080v1080H0z"/></clipPath><clipPath id="dB"><path d="M0 0h1080v1080H0z"/></clipPath><clipPath id="dA"><path d="M0 0h1080v1080H0z"/></clipPath><clipPath id="dp"><path d="M0 0h1080v1080H0z"/></clipPath><clipPath id="dy"><path d="M0 0h1080v1080H0z"/></clipPath><clipPath id="dx"><path d="M0 0h1080v1080H0z"/></clipPath><clipPath id="dw"><path d="M0 0h1080v1080H0z"/></clipPath><clipPath id="dv"><path d="M0 0h1080v1080H0z"/></clipPath><clipPath id="du"><path d="M0 0h1080v1080H0z"/></clipPath><clipPath id="dt"><path d="M0 0h1080v1080H0z"/></clipPath><clipPath id="ds"><path d="M0 0h1080v1080H0z"/></clipPath><clipPath id="dr"><path d="M0 0h1080v1080H0z"/></clipPath><clipPath id="dq"><path d="M0 0h1080v1080H0z"/></clipPath><clipPath id="cP"><path d="M0 0h1080v1080H0z"/></clipPath><clipPath id="cR"><path d="M0 0h1080v1080H0z"/></clipPath><clipPath id="dc"><path d="M0 0h1080v1080H0z"/></clipPath><clipPath id="dl"><path d="M0 0h1080v1080H0z"/></clipPath><clipPath id="dk"><path d="M0 0h1080v1080H0z"/></clipPath><clipPath id="dj"><path d="M0 0h1080v1080H0z"/></clipPath><clipPath id="di"><path d="M0 0h1080v1080H0z"/></clipPath><clipPath id="dh"><path d="M0 0h1080v1080H0z"/></clipPath><clipPath id="dg"><path d="M0 0h1080v1080H0z"/></clipPath><clipPath id="df"><path d="M0 0h1080v1080H0z"/></clipPath><clipPath id="de"><path d="M0 0h1080v1080H0z"/></clipPath><clipPath id="dd"><path d="M0 0h1080v1080H0z"/></clipPath><clipPath id="cS"><path d="M0 0h1080v1080H0z"/></clipPath><clipPath id="db"><path d="M0 0h1080v1080H0z"/></clipPath><clipPath id="da"><path d="M0 0h1080v1080H0z"/></clipPath><clipPath id="cZ"><path d="M0 0h1080v1080H0z"/></clipPath><clipPath id="cY"><path d="M0 0h1080v1080H0z"/></clipPath><clipPath id="cX"><path d="M0 0h1080v1080H0z"/></clipPath><clipPath id="cW"><path d="M0 0h1080v1080H0z"/></clipPath><clipPath id="cV"><path d="M0 0h1080v1080H0z"/></clipPath><clipPath id="cU"><path d="M0 0h1080v1080H0z"/></clipPath><clipPath id="cT"><path d="M0 0h1080v1080H0z"/></clipPath><clipPath id="cL"><path d="M0 0h1080v1080H0z"/></clipPath><clipPath id="cM"><path d="M0 0h1080v1080H0z"/></clipPath><clipPath id="cO"><path d="M0 0h1080v1080H0z"/></clipPath><clipPath id="cN"><path d="M0 0h1080v1080H0z"/></clipPath><clipPath id="cI"><path d="M0 0h1080v1080H0z"/></clipPath><clipPath id="cJ"><path d="M0 0h1080v1080H0z"/></clipPath><clipPath id="cK"><path d="M0 0h1080v1080H0z"/></clipPath><clipPath id="cF"><path d="M0 0h1080v1080H0z"/></clipPath><clipPath id="cG"><path d="M0 0h1080v1080H0z"/></clipPath><clipPath id="cH"><path d="M0 0h1080v1080H0z"/></clipPath><clipPath id="cC"><path d="M0 0h1080v1080H0z"/></clipPath><clipPath id="cD"><path d="M0 0h1080v1080H0z"/></clipPath><clipPath id="cE"><path d="M0 0h1080v1080H0z"/></clipPath><clipPath id="cn"><path d="M0 0h1080v1080H0z"/></clipPath><clipPath id="cB"><path d="M0 0h1080v1080H0z"/></clipPath><clipPath id="cA"><path d="M0 0h1080v1080H0z"/></clipPath><clipPath id="cp"><path d="M0 0h1080v1080H0z"/></clipPath><clipPath id="cv"><path d="M0 0h1080v1080H0z"/></clipPath><clipPath id="cz"><path d="M0 0h1080v1080H0z"/></clipPath><clipPath id="cy"><path d="M0 0h1080v1080H0z"/></clipPath><clipPath id="cx"><path d="M0 0h1080v1080H0z"/></clipPath><clipPath id="cw"><path d="M0 0h1080v1080H0z"/></clipPath><clipPath id="cq"><path d="M0 0h1080v1080H0z"/></clipPath><clipPath id="cu"><path d="M0 0h1080v1080H0z"/></clipPath><clipPath id="ct"><path d="M0 0h1080v1080H0z"/></clipPath><clipPath id="cs"><path d="M0 0h1080v1080H0z"/></clipPath><clipPath id="cr"><path d="M0 0h1080v1080H0z"/></clipPath><clipPath id="cg"><path d="M0 0h2095v1455H0z"/></clipPath><clipPath id="ck"><path d="M0 0h526v535H0z"/></clipPath><clipPath id="ci"><path d="M0 0h2095v1416H0z"/></clipPath><clipPath id="u"><path d="M0 0h1080v1080H0z"/></clipPath><clipPath id="cd"><path d="M0 0h1080v1080H0z"/></clipPath><clipPath id="ce"><path d="M0 0h1080v1080H0z"/></clipPath><clipPath id="cb"><path d="M0 0h1080v1080H0z"/></clipPath><clipPath id="cc"><path d="M0 0h1080v1080H0z"/></clipPath><clipPath id="bZ"><path d="M0 0h1080v1080H0z"/></clipPath><clipPath id="ca"><path d="M0 0h1080v1080H0z"/></clipPath><clipPath id="bX"><path d="M0 0h1080v1080H0z"/></clipPath><clipPath id="bY"><path d="M0 0h1080v1080H0z"/></clipPath><clipPath id="bV"><path d="M0 0h1080v1080H0z"/></clipPath><clipPath id="bW"><path d="M0 0h1080v1080H0z"/></clipPath><clipPath id="bT"><path d="M0 0h1080v1080H0z"/></clipPath><clipPath id="bU"><path d="M0 0h1080v1080H0z"/></clipPath><clipPath id="bR"><path d="M0 0h1080v1080H0z"/></clipPath><clipPath id="bS"><path d="M0 0h1080v1080H0z"/></clipPath><clipPath id="bP"><path d="M0 0h1080v1080H0z"/></clipPath><clipPath id="bQ"><path d="M0 0h1080v1080H0z"/></clipPath><clipPath id="bO"><path d="M0 0h1080v1080H0z"/></clipPath><clipPath id="bN"><path d="M0 0h1080v1080H0z"/></clipPath><clipPath id="bM"><path d="M0 0h1080v1080H0z"/></clipPath><clipPath id="bL"><path d="M0 0h1080v1080H0z"/></clipPath><clipPath id="bo"><path d="M0 0h1080v1080H0z"/></clipPath><clipPath id="bq"><path d="M0 0h1080v1080H0z"/></clipPath><clipPath id="bB"><path d="M0 0h1080v1080H0z"/></clipPath><clipPath id="bK"><path d="M0 0h1080v1080H0z"/></clipPath><clipPath id="bJ"><path d="M0 0h1080v1080H0z"/></clipPath><clipPath id="bI"><path d="M0 0h1080v1080H0z"/></clipPath><clipPath id="bH"><path d="M0 0h1080v1080H0z"/></clipPath><clipPath id="bG"><path d="M0 0h1080v1080H0z"/></clipPath><clipPath id="bF"><path d="M0 0h1080v1080H0z"/></clipPath><clipPath id="bE"><path d="M0 0h1080v1080H0z"/></clipPath><clipPath id="bD"><path d="M0 0h1080v1080H0z"/></clipPath><clipPath id="bC"><path d="M0 0h1080v1080H0z"/></clipPath><clipPath id="br"><path d="M0 0h1080v1080H0z"/></clipPath><clipPath id="bA"><path d="M0 0h1080v1080H0z"/></clipPath><clipPath id="bz"><path d="M0 0h1080v1080H0z"/></clipPath><clipPath id="by"><path d="M0 0h1080v1080H0z"/></clipPath><clipPath id="bx"><path d="M0 0h1080v1080H0z"/></clipPath><clipPath id="bw"><path d="M0 0h1080v1080H0z"/></clipPath><clipPath id="bv"><path d="M0 0h1080v1080H0z"/></clipPath><clipPath id="bu"><path d="M0 0h1080v1080H0z"/></clipPath><clipPath id="bt"><path d="M0 0h1080v1080H0z"/></clipPath><clipPath id="bs"><path d="M0 0h1080v1080H0z"/></clipPath><clipPath id="aR"><path d="M0 0h1080v1080H0z"/></clipPath><clipPath id="aT"><path d="M0 0h1080v1080H0z"/></clipPath><clipPath id="be"><path d="M0 0h1080v1080H0z"/></clipPath><clipPath id="bn"><path d="M0 0h1080v1080H0z"/></clipPath><clipPath id="bm"><path d="M0 0h1080v1080H0z"/></clipPath><clipPath id="bl"><path d="M0 0h1080v1080H0z"/></clipPath><clipPath id="bk"><path d="M0 0h1080v1080H0z"/></clipPath><clipPath id="bj"><path d="M0 0h1080v1080H0z"/></clipPath><clipPath id="bi"><path d="M0 0h1080v1080H0z"/></clipPath><clipPath id="bh"><path d="M0 0h1080v1080H0z"/></clipPath><clipPath id="bg"><path d="M0 0h1080v1080H0z"/></clipPath><clipPath id="bf"><path d="M0 0h1080v1080H0z"/></clipPath><clipPath id="aU"><path d="M0 0h1080v1080H0z"/></clipPath><clipPath id="bd"><path d="M0 0h1080v1080H0z"/></clipPath><clipPath id="bc"><path d="M0 0h1080v1080H0z"/></clipPath><clipPath id="bb"><path d="M0 0h1080v1080H0z"/></clipPath><clipPath id="ba"><path d="M0 0h1080v1080H0z"/></clipPath><clipPath id="aZ"><path d="M0 0h1080v1080H0z"/></clipPath><clipPath id="aY"><path d="M0 0h1080v1080H0z"/></clipPath><clipPath id="aX"><path d="M0 0h1080v1080H0z"/></clipPath><clipPath id="aW"><path d="M0 0h1080v1080H0z"/></clipPath><clipPath id="aV"><path d="M0 0h1080v1080H0z"/></clipPath><clipPath id="au"><path d="M0 0h1080v1080H0z"/></clipPath><clipPath id="aw"><path d="M0 0h1080v1080H0z"/></clipPath><clipPath id="aH"><path d="M0 0h1080v1080H0z"/></clipPath><clipPath id="aQ"><path d="M0 0h1080v1080H0z"/></clipPath><clipPath id="aP"><path d="M0 0h1080v1080H0z"/></clipPath><clipPath id="aO"><path d="M0 0h1080v1080H0z"/></clipPath><clipPath id="aN"><path d="M0 0h1080v1080H0z"/></clipPath><clipPath id="aM"><path d="M0 0h1080v1080H0z"/></clipPath><clipPath id="aL"><path d="M0 0h1080v1080H0z"/></clipPath><clipPath id="aK"><path d="M0 0h1080v1080H0z"/></clipPath><clipPath id="aJ"><path d="M0 0h1080v1080H0z"/></clipPath><clipPath id="aI"><path d="M0 0h1080v1080H0z"/></clipPath><clipPath id="ax"><path d="M0 0h1080v1080H0z"/></clipPath><clipPath id="aG"><path d="M0 0h1080v1080H0z"/></clipPath><clipPath id="aF"><path d="M0 0h1080v1080H0z"/></clipPath><clipPath id="aE"><path d="M0 0h1080v1080H0z"/></clipPath><clipPath id="aD"><path d="M0 0h1080v1080H0z"/></clipPath><clipPath id="aC"><path d="M0 0h1080v1080H0z"/></clipPath><clipPath id="aB"><path d="M0 0h1080v1080H0z"/></clipPath><clipPath id="aA"><path d="M0 0h1080v1080H0z"/></clipPath><clipPath id="az"><path d="M0 0h1080v1080H0z"/></clipPath><clipPath id="ay"><path d="M0 0h1080v1080H0z"/></clipPath><clipPath id="X"><path d="M0 0h1080v1080H0z"/></clipPath><clipPath id="Z"><path d="M0 0h1080v1080H0z"/></clipPath><clipPath id="ak"><path d="M0 0h1080v1080H0z"/></clipPath><clipPath id="at"><path d="M0 0h1080v1080H0z"/></clipPath><clipPath id="as"><path d="M0 0h1080v1080H0z"/></clipPath><clipPath id="ar"><path d="M0 0h1080v1080H0z"/></clipPath><clipPath id="aq"><path d="M0 0h1080v1080H0z"/></clipPath><clipPath id="ap"><path d="M0 0h1080v1080H0z"/></clipPath><clipPath id="ao"><path d="M0 0h1080v1080H0z"/></clipPath><clipPath id="an"><path d="M0 0h1080v1080H0z"/></clipPath><clipPath id="am"><path d="M0 0h1080v1080H0z"/></clipPath><clipPath id="al"><path d="M0 0h1080v1080H0z"/></clipPath><clipPath id="aa"><path d="M0 0h1080v1080H0z"/></clipPath><clipPath id="aj"><path d="M0 0h1080v1080H0z"/></clipPath><clipPath id="ai"><path d="M0 0h1080v1080H0z"/></clipPath><clipPath id="ah"><path d="M0 0h1080v1080H0z"/></clipPath><clipPath id="ag"><path d="M0 0h1080v1080H0z"/></clipPath><clipPath id="af"><path d="M0 0h1080v1080H0z"/></clipPath><clipPath id="ae"><path d="M0 0h1080v1080H0z"/></clipPath><clipPath id="ad"><path d="M0 0h1080v1080H0z"/></clipPath><clipPath id="ac"><path d="M0 0h1080v1080H0z"/></clipPath><clipPath id="ab"><path d="M0 0h1080v1080H0z"/></clipPath><clipPath id="T"><path d="M0 0h1080v1080H0z"/></clipPath><clipPath id="U"><path d="M0 0h1080v1080H0z"/></clipPath><clipPath id="W"><path d="M0 0h1080v1080H0z"/></clipPath><clipPath id="V"><path d="M0 0h1080v1080H0z"/></clipPath><clipPath id="Q"><path d="M0 0h1080v1080H0z"/></clipPath><clipPath id="R"><path d="M0 0h1080v1080H0z"/></clipPath><clipPath id="S"><path d="M0 0h1080v1080H0z"/></clipPath><clipPath id="N"><path d="M0 0h1080v1080H0z"/></clipPath><clipPath id="O"><path d="M0 0h1080v1080H0z"/></clipPath><clipPath id="P"><path d="M0 0h1080v1080H0z"/></clipPath><clipPath id="K"><path d="M0 0h1080v1080H0z"/></clipPath><clipPath id="L"><path d="M0 0h1080v1080H0z"/></clipPath><clipPath id="M"><path d="M0 0h1080v1080H0z"/></clipPath><clipPath id="v"><path d="M0 0h1080v1080H0z"/></clipPath><clipPath id="J"><path d="M0 0h1080v1080H0z"/></clipPath><clipPath id="I"><path d="M0 0h1080v1080H0z"/></clipPath><clipPath id="x"><path d="M0 0h1080v1080H0z"/></clipPath><clipPath id="D"><path d="M0 0h1080v1080H0z"/></clipPath><clipPath id="H"><path d="M0 0h1080v1080H0z"/></clipPath><clipPath id="G"><path d="M0 0h1080v1080H0z"/></clipPath><clipPath id="F"><path d="M0 0h1080v1080H0z"/></clipPath><clipPath id="E"><path d="M0 0h1080v1080H0z"/></clipPath><clipPath id="y"><path d="M0 0h1080v1080H0z"/></clipPath><clipPath id="C"><path d="M0 0h1080v1080H0z"/></clipPath><clipPath id="B"><path d="M0 0h1080v1080H0z"/></clipPath><clipPath id="A"><path d="M0 0h1080v1080H0z"/></clipPath><clipPath id="z"><path d="M0 0h1080v1080H0z"/></clipPath><mask id="fj" mask-type="alpha"><use xlink:href="#a"/></mask><mask id="fh" mask-type="alpha"><use xlink:href="#b"/></mask><mask id="ff" mask-type="alpha"><use xlink:href="#c"/></mask><mask id="fd" mask-type="alpha"><use xlink:href="#d"/></mask><mask id="fb" mask-type="alpha"><use xlink:href="#e"/></mask><mask id="eZ" mask-type="alpha"><use xlink:href="#f"/></mask><mask id="eh" mask-type="alpha"><use xlink:href="#g"/></mask><mask id="dK" mask-type="alpha"><use xlink:href="#h"/></mask><mask id="dn" mask-type="alpha"><use xlink:href="#i"/></mask><mask id="cQ" mask-type="alpha"><use xlink:href="#j"/></mask><mask id="co" mask-type="alpha"><use xlink:href="#k"/></mask><mask id="cl" mask-type="alpha"><use xlink:href="#l"/></mask><mask id="cj" mask-type="alpha"><use xlink:href="#m"/></mask><mask id="ch" mask-type="alpha"><use xlink:href="#n"/></mask><mask id="bp" mask-type="alpha"><use xlink:href="#o"/></mask><mask id="aS" mask-type="alpha"><use xlink:href="#p"/></mask><mask id="av" mask-type="alpha"><use xlink:href="#q"/></mask><mask id="Y" mask-type="alpha"><use xlink:href="#r"/></mask><mask id="w" mask-type="alpha"><use xlink:href="#s"/></mask><path fill="#58CC02" d="M-30.186-70.079c-5.416 3.316-12.493 8.881-15.558 11.319-3.117 2.477-8.713 8.114-12.373 12.521-5.661 7.616-7.411 13.816-7.285 19.345.062 3.07.796 5.994 1.657 8.83 1.828 5.995 6.098 19.973 31.093 24.862C-6.122 27.213.849 50.609 19.097 45.334c18.761-2.121 53.435-18.99 47.207-64.25-2.356-17.192-10.945-30.872-10.945-30.872-9.884-15.166-32.894-31.025-49.74-31.306-5.719-.096-13.497 1.021-18.449 2.64-3.812 1.247-10.652 4.282-17.356 8.375z" transform="scale(-1.82873) rotate(24.719 540.281 -807.567)" style="display:block" id="b"/><path fill="#AC6C0F" d="M0-33.986c-16.04 0-29.042 13.003-29.042 29.043v9.886c0 16.04 13.002 29.043 29.042 29.043S29.042 20.983 29.042 4.943v-9.886c0-16.04-13.002-29.043-29.042-29.043z" transform="matrix(.78 0 0 .3952 261.688 223.056)" style="display:block" id="a"/><path fill="#58CC02" d="M-30.186-70.079c-5.416 3.316-12.493 8.881-15.558 11.319-3.117 2.477-8.713 8.114-12.373 12.521-5.661 7.616-7.411 13.816-7.285 19.345.062 3.07.796 5.994 1.657 8.83 1.828 5.995 6.098 19.973 31.093 24.862C-6.122 27.213.849 50.609 19.097 45.334c18.761-2.121 53.435-18.99 47.207-64.25-2.356-17.192-10.945-30.872-10.945-30.872-9.884-15.166-32.894-31.025-49.74-31.306-5.719-.096-13.497 1.021-18.449 2.64-3.812 1.247-10.652 4.282-17.356 8.375z" transform="scale(-1.82873) rotate(24.719 540.281 -807.567)" style="display:block" id="c"/><path fill="#58CC02" d="M-110.095-59.461c-2.973 6.127-6.251 10.23-9.953 13.867-3.379 3.32-6.611 6.496-8.872 11.157-4.875 10.047-.374 19.221 5.019 25.181 2.995 3.31 6.265 5.63 8.357 6.556l41.023 19.903C-34.49 36.625-7.884 9.311.05-6.022c7.133-15.722 12.119-53.524-27.912-72.946l-41.023-19.903c-5.663-2.995-25.624-6.492-33.206 9.136-2.261 4.661-2.756 9.166-3.273 13.875-.566 5.159-1.758 10.272-4.731 16.399z" transform="rotate(96.563 131.52 614.906) scale(1.00552)" style="display:block" id="e"/><path fill="#AC6C0F" d="M0-33.986c-16.04 0-29.042 13.003-29.042 29.043v9.886c0 16.04 13.002 29.043 29.042 29.043S29.042 20.983 29.042 4.943v-9.886c0-16.04-13.002-29.043-29.042-29.043z" transform="matrix(.78 0 0 .3952 261.688 223.056)" style="display:block" id="d"/><path fill="#58CC02" d="M-110.095-59.461c-2.973 6.127-6.251 10.23-9.953 13.867-3.379 3.32-6.611 6.496-8.872 11.157-4.875 10.047-.374 19.221 5.019 25.181 2.995 3.31 6.265 5.63 8.357 6.556l41.023 19.903C-34.49 36.625-7.884 9.311.05-6.022c7.133-15.722 12.119-53.524-27.912-72.946l-41.023-19.903c-5.663-2.995-25.624-6.492-33.206 9.136-2.261 4.661-2.756 9.166-3.273 13.875-.566 5.159-1.758 10.272-4.731 16.399z" transform="rotate(96.563 131.52 614.906) scale(1.00552)" style="display:block" id="f"/><path fill="#FFF" d="M154.555 220.745c18.904 3.882 37.444-8.34 41.326-27.244l73.89-344.889c1.664-8.102-6.512-16.65-14.614-18.314L6.419-220.784c-11.132-2.286-25.38 1.215-32.454 10.111L-259.084 61.673c-10.9 13.708-13.84 31.719-7.863 48.181 5.976 16.461 19.785 28.393 36.94 31.916l384.562 78.975z" transform="translate(286.67 628.873)" style="display:block" id="g"/><path fill="#FFF" d="M154.555 220.745c18.904 3.882 37.444-8.34 41.326-27.244l73.89-344.889c1.664-8.102-6.512-16.65-14.614-18.314L6.419-220.784c-11.132-2.286-25.38 1.215-32.454 10.111L-259.084 61.673c-10.9 13.708-13.84 31.719-7.863 48.181 5.976 16.461 19.785 28.393 36.94 31.916l384.562 78.975z" transform="translate(286.67 628.873)" style="display:block" id="h"/><path fill="#FFF" d="M154.555 220.745c18.904 3.882 37.444-8.34 41.326-27.244l73.89-344.889c1.664-8.102-6.512-16.65-14.614-18.314L6.419-220.784c-11.132-2.286-25.38 1.215-32.454 10.111L-259.084 61.673c-10.9 13.708-13.84 31.719-7.863 48.181 5.976 16.461 19.785 28.393 36.94 31.916l384.562 78.975z" transform="translate(286.67 628.873)" style="display:block" id="i"/><path fill="#FFF" d="M154.555 220.745c18.904 3.882 37.444-8.34 41.326-27.244l73.89-344.889c1.664-8.102-6.512-16.65-14.614-18.314L6.419-220.784c-11.132-2.286-25.38 1.215-32.454 10.111L-259.084 61.673c-10.9 13.708-13.84 31.719-7.863 48.181 5.976 16.461 19.785 28.393 36.94 31.916l384.562 78.975z" transform="translate(286.67 628.873)" style="display:block" id="j"/><path fill="#FFF" d="M-152.821 221.25c-18.877 4.012-37.5-8.081-41.512-26.958l-76.266-344.372c-1.72-8.091 6.398-16.695 14.488-18.415l248.38-52.795c11.116-2.363 25.388 1.041 32.523 9.888l234.92 270.733c10.994 13.632 14.058 31.624 8.195 48.126-5.862 16.502-19.59 28.528-36.72 32.169l-384.008 81.624z" transform="translate(792.114 679.555)" style="display:block" id="k"/><path fill="#58CC02" d="M0-58.205c-6.81 0-11.932-1.158-16.82-2.901-4.462-1.591-8.772-2.49-13.911-3.113-10.148-1.22-15.364 3.787-18.613 11.403-1.805 4.23-3.003 9.264-4.102 14.485-4.908 22.23 0 45.596 0 45.596C-45.656 51.793-17.259 63.774 0 64.219c17.258-.445 54.118-12.855 47.854-56.52.572-21.744 3.68-35.83 5.592-46.03 1.637-9.21-5.345-25.888-22.715-25.888-5.181 0-9.449 1.522-13.911 3.113C11.932-59.363 6.81-58.205 0-58.205z" transform="rotate(161.394 743.262 450.152) scale(1.64752)" style="display:block" id="m"/><path fill="#58CC02" d="M0-58.205c-6.81 0-11.932-1.158-16.82-2.901-4.462-1.591-8.772-2.49-13.911-3.113-10.148-1.22-15.364 3.787-18.613 11.403-1.805 4.23-3.003 9.264-4.102 14.485-4.908 22.23 0 45.596 0 45.596C-45.656 51.793-17.259 63.774 0 64.219c17.258-.445 54.118-12.855 47.854-56.52.572-21.744 3.68-35.83 5.592-46.03 1.637-9.21-5.345-25.888-22.715-25.888-5.181 0-9.449 1.522-13.911 3.113C11.932-59.363 6.81-58.205 0-58.205z" transform="rotate(161.394 743.262 450.152) scale(1.64752)" style="display:block" id="n"/><path fill="#FFF" d="M154.555 220.745c18.904 3.882 37.444-8.34 41.326-27.244l73.89-344.889c1.664-8.102-6.512-16.65-14.614-18.314L6.419-220.784c-11.132-2.286-25.38 1.215-32.454 10.111L-259.084 61.673c-10.9 13.708-13.84 31.719-7.863 48.181 5.976 16.461 19.785 28.393 36.94 31.916l384.562 78.975z" transform="translate(286.67 628.873)" style="display:block" id="o"/><path fill="#FFF" d="M154.555 220.745c18.904 3.882 37.444-8.34 41.326-27.244l73.89-344.889c1.664-8.102-6.512-16.65-14.614-18.314L6.419-220.784c-11.132-2.286-25.38 1.215-32.454 10.111L-259.084 61.673c-10.9 13.708-13.84 31.719-7.863 48.181 5.976 16.461 19.785 28.393 36.94 31.916l384.562 78.975z" transform="translate(286.67 628.873)" style="display:block" id="p"/><path fill="#FFF" d="M154.555 220.745c18.904 3.882 37.444-8.34 41.326-27.244l73.89-344.889c1.664-8.102-6.512-16.65-14.614-18.314L6.419-220.784c-11.132-2.286-25.38 1.215-32.454 10.111L-259.084 61.673c-10.9 13.708-13.84 31.719-7.863 48.181 5.976 16.461 19.785 28.393 36.94 31.916l384.562 78.975z" transform="translate(286.67 628.873)" style="display:block" id="q"/><path fill="#FFF" d="M154.555 220.745c18.904 3.882 37.444-8.34 41.326-27.244l73.89-344.889c1.664-8.102-6.512-16.65-14.614-18.314L6.419-220.784c-11.132-2.286-25.38 1.215-32.454 10.111L-259.084 61.673c-10.9 13.708-13.84 31.719-7.863 48.181 5.976 16.461 19.785 28.393 36.94 31.916l384.562 78.975z" transform="translate(286.67 628.873)" style="display:block" id="r"/><path fill="#FFF" d="M-152.821 221.25c-18.877 4.012-37.5-8.081-41.512-26.958l-76.266-344.372c-1.72-8.091 6.398-16.695 14.488-18.415l248.38-52.795c11.116-2.363 25.388 1.041 32.523 9.888l234.92 270.733c10.994 13.632 14.058 31.624 8.195 48.126-5.862 16.502-19.59 28.528-36.72 32.169l-384.008 81.624z" transform="translate(792.114 679.555)" style="display:block" id="s"/></defs><g clip-path="url(#t)"><g clip-path="url(#u)" style="display:block"><g clip-path="url(#v)" style="display:block" transform="matrix(.77 0 0 .77 124.2 124.2)"><g style="display:block"><path fill="#00448E" d="m1075.04 789.575-26.565 5.646a66.501 66.501 0 0 0-6.824-10.276L837.22 514.134a45 45 0 0 0-44.384-15.767l-248.379 52.794c-16.206 3.445-26.552 19.376-23.107 35.582l72.029 338.87c5.741 27.011 32.292 44.253 59.303 38.512l351.888-74.796c23.147-4.92 39.778-20.919 47.205-40.396l23.265-59.358z"/><path fill="#9ADFFF" d="m1026.345 831.752-384.008 81.623c-27.011 5.741-53.562-11.501-59.303-38.512l-72.029-338.87c-3.445-16.206 6.901-32.137 23.107-35.582l248.379-52.794a45 45 0 0 1 44.384 15.767l236.552 263.983c30.433 37.736 10.337 94.306-37.082 104.385z"/><path fill="#FFF" d="M639.293 900.805c-18.877 4.012-37.5-8.081-41.512-26.958l-76.266-344.372c-1.72-8.091 6.398-16.695 14.488-18.415l248.38-52.795c11.116-2.363 25.388 1.041 32.523 9.888l234.92 270.733c10.994 13.632 14.058 31.624 8.195 48.126-5.862 16.502-19.59 28.528-36.72 32.169l-384.008 81.624z"/></g><g mask="url(#w)" style="display:block"><g clip-path="url(#x)"><g clip-path="url(#y)" style="display:block"><g clip-path="url(#z)" style="display:block"><g style="display:block"><path fill="#E6A000" d="M873.82 733.08c-.253-27.314-35.03-49.134-77.676-48.739-42.646.395-77.012 22.857-76.758 50.17.254 27.314 35.03 49.134 77.675 48.74 42.647-.396 77.013-22.858 76.76-50.171zm-.14-15.084-154.435 1.432.14 15.084 154.436-1.432-.14-15.084z"/><path fill="#FFC700" d="M873.681 717.995c.254 27.313-34.113 49.776-76.759 50.171-42.646.395-77.423-21.425-77.677-48.738-.253-27.312 34.113-49.775 76.76-50.17 42.646-.395 77.423 21.425 77.676 48.737z"/><path fill="#FFE700" d="M811.73 759.308c11.356-1.646 21.85-5.049 30.662-9.987 1.88-1.053 2.152-3.423.574-4.817l-71.223-62.915c-.908-.802-2.234-1.08-3.45-.736-8.049 2.278-15.414 5.52-21.722 9.642a58.315 58.315 0 0 0-5.213 3.823c-1.45 1.197-1.485 3.242-.083 4.481l67.54 59.663c.768.679 1.85 1 2.916.846zm34.095-69.734c-13.223-8.296-30.89-12.769-49.749-12.594-.45.004-.9.01-1.35.02-3.04.067-4.511 3.384-2.343 5.3l61.092 53.965c1.503 1.328 3.999 1.147 5.2-.415 4.261-5.545 6.485-11.593 6.427-17.774-.098-10.64-6.945-20.763-19.277-28.502z"/></g></g></g><g clip-path="url(#D)" style="display:block"><g style="display:block"><path stroke-linecap="round" stroke-miterlimit="10" stroke="#3DB9B8" stroke-width="10" d="M28.137 15.456c-.426-12.17-.082-39.42-.239-54.03" fill="none" transform="matrix(.74834 0 0 .77695 574.423 663.156)"/><path fill="#CC348D" d="M595.972 649.313c5.567-.795 9.723-5.71 10.642-11.837.23-.018.458-.024.688-.057 6.995-.998 11.78-8.492 10.69-16.738-1.092-8.246-7.648-14.12-14.643-13.123-.197.029-.386.08-.58.118-2.417-5.823-7.795-9.53-13.464-8.721-5.669.809-9.885 5.886-10.7 12.17-.196.017-.39.02-.588.048-6.995.998-11.78 8.492-10.689 16.738 1.092 8.247 7.648 14.121 14.643 13.123.23-.033.451-.09.677-.137 2.478 5.643 7.757 9.21 13.324 8.416zm-4.014-35.564c-6.39.593-11.151 5.814-10.646 11.654.505 5.84 6.092 10.093 12.482 9.5 6.38-.602 11.152-5.815 10.647-11.655-.506-5.84-6.093-10.093-12.483-9.5z"/><path fill="#FFF" d="M591.96 613.749c-6.389.596-11.156 5.814-10.65 11.655.505 5.841 6.093 10.093 12.481 9.497 6.388-.596 11.156-5.815 10.65-11.656-.505-5.84-6.093-10.093-12.482-9.496z"/></g><g clip-path="url(#E)" style="display:block"><g style="display:block"><path fill="#E6A000" d="M609.903 452.292c-.225-24.162-30.989-43.465-68.714-43.115-37.726.35-68.126 20.22-67.902 44.382.225 24.162 30.988 43.464 68.713 43.115 37.726-.35 68.127-20.22 67.903-44.382zm-.124-13.343-136.616 1.267.124 13.343 136.616-1.267-.124-13.343z"/><path fill="#FFC700" d="M609.78 438.948c.224 24.161-30.177 44.032-67.903 44.382-37.725.35-68.49-18.953-68.714-43.114-.224-24.161 30.177-44.032 67.903-44.382 37.725-.35 68.49 18.953 68.714 43.114z"/><path fill="#FFE700" d="M554.977 475.494c10.045-1.456 19.328-4.466 27.123-8.834 1.664-.932 1.904-3.03.508-4.262l-63.005-55.655c-.803-.71-1.976-.956-3.052-.652-7.12 2.016-13.635 4.883-19.215 8.53a51.587 51.587 0 0 0-4.612 3.382c-1.283 1.059-1.314 2.868-.073 3.964l59.746 52.778c.68.601 1.638.885 2.58.75zm30.16-61.688c-11.697-7.338-27.326-11.295-44.008-11.14-.4.003-.797.008-1.194.018-2.69.059-3.991 2.992-2.073 4.687l54.043 47.739c1.33 1.175 3.537 1.015 4.599-.367 3.77-4.906 5.737-10.255 5.686-15.723-.087-9.413-6.143-18.368-17.053-25.214z"/></g></g><g clip-path="url(#F)" style="display:block"><g style="display:block"><path fill="#E6A000" d="M609.903 452.292c-.225-24.162-30.989-43.465-68.714-43.115-37.726.35-68.126 20.22-67.902 44.382.225 24.162 30.988 43.464 68.713 43.115 37.726-.35 68.127-20.22 67.903-44.382zm-.124-13.343-136.616 1.267.124 13.343 136.616-1.267-.124-13.343z"/><path fill="#FFC700" d="M609.78 438.948c.224 24.161-30.177 44.032-67.903 44.382-37.725.35-68.49-18.953-68.714-43.114-.224-24.161 30.177-44.032 67.903-44.382 37.725-.35 68.49 18.953 68.714 43.114z"/><path fill="#FFE700" d="M554.977 475.494c10.045-1.456 19.328-4.466 27.123-8.834 1.664-.932 1.904-3.03.508-4.262l-63.005-55.655c-.803-.71-1.976-.956-3.052-.652-7.12 2.016-13.635 4.883-19.215 8.53a51.587 51.587 0 0 0-4.612 3.382c-1.283 1.059-1.314 2.868-.073 3.964l59.746 52.778c.68.601 1.638.885 2.58.75zm30.16-61.688c-11.697-7.338-27.326-11.295-44.008-11.14-.4.003-.797.008-1.194.018-2.69.059-3.991 2.992-2.073 4.687l54.043 47.739c1.33 1.175 3.537 1.015 4.599-.367 3.77-4.906 5.737-10.255 5.686-15.723-.087-9.413-6.143-18.368-17.053-25.214z"/></g></g><g clip-path="url(#G)" style="display:block"><g style="display:block"><path fill="#E6A000" d="M662.875 480.554c-.234-25.212-32.335-45.354-71.701-44.989-39.366.365-71.088 21.099-70.854 46.311.234 25.213 32.335 45.355 71.7 44.99 39.366-.365 71.09-21.1 70.855-46.312zm-.13-13.922-142.554 1.321.13 13.923 142.554-1.322-.13-13.922z"/><path fill="#FFC700" d="M662.747 466.63c.234 25.212-31.49 45.947-70.855 46.312-39.366.365-71.467-19.777-71.701-44.989-.235-25.211 31.489-45.946 70.854-46.31 39.366-.366 71.468 19.776 71.702 44.988z"/><path fill="#FFE700" d="M605.562 504.766c10.482-1.52 20.168-4.661 28.302-9.22 1.736-.972 1.986-3.16.53-4.446l-65.744-58.075c-.839-.74-2.063-.998-3.185-.68-7.43 2.104-14.228 5.095-20.05 8.9a53.83 53.83 0 0 0-4.813 3.53c-1.339 1.104-1.37 2.993-.077 4.136l62.345 55.073c.71.627 1.708.924 2.692.782zm31.471-64.37c-12.205-7.658-28.514-11.787-45.921-11.626-.417.004-.832.01-1.246.02-2.808.06-4.165 3.122-2.163 4.89l56.392 49.815c1.387 1.226 3.691 1.059 4.799-.383 3.934-5.119 5.987-10.701 5.934-16.407-.091-9.822-6.411-19.166-17.795-26.31z"/></g></g><g clip-path="url(#H)" style="display:block"><g style="display:block"><path fill="#E6A000" d="M782.848 588.817c-.244-26.263-33.683-47.244-74.689-46.864-41.006.38-74.05 21.978-73.806 48.241.244 26.263 33.682 47.244 74.688 46.864 41.006-.38 74.051-21.978 73.807-48.241zm-.135-14.503-148.495 1.377.135 14.503 148.495-1.377-.135-14.503z"/><path fill="#FFC700" d="M782.714 574.313c.244 26.262-32.801 47.861-73.807 48.241-41.006.38-74.445-20.601-74.689-46.863-.244-26.262 32.801-47.861 73.807-48.241 41.006-.38 74.445 20.601 74.689 46.863z"/><path fill="#FFE700" d="M723.146 614.037c10.919-1.583 21.009-4.855 29.482-9.603 1.808-1.013 2.069-3.292.552-4.632l-68.484-60.495c-.873-.771-2.148-1.039-3.317-.708-7.739 2.191-14.821 5.307-20.886 9.271a56.073 56.073 0 0 0-5.013 3.676c-1.395 1.151-1.428 3.118-.08 4.309l64.942 57.368c.739.653 1.78.962 2.804.814zm32.783-67.052c-12.714-7.977-29.702-12.278-47.835-12.11-.434.004-.866.01-1.298.02-2.924.064-4.338 3.253-2.253 5.095l58.742 51.89c1.445 1.277 3.845 1.103 4.999-.399 4.098-5.332 6.236-11.147 6.181-17.09-.095-10.232-6.678-19.965-18.536-27.406z"/></g></g></g></g></g></g><g clip-path="url(#T)" style="display:block" transform="matrix(.77 0 0 .77 121.12 121.12)"><path fill="#E3E3E3" d="M0-5.72c10.579 0 19.168 2.563 19.168 5.72 0 3.157-8.59 5.72-19.168 5.72-10.579 0-19.168-2.563-19.168-5.72 0-3.157 8.59-5.72 19.168-5.72z" transform="matrix(.7867 0 0 1.15691 784.668 813.108)" style="display:block"/><path stroke-linecap="round" stroke="#CC348C" stroke-width="34" d="M229.029 251.904s9.396 9.96 19.569 10.962" fill="none" transform="rotate(31 -320.353 1513.98)" style="display:block"/><path stroke-linecap="round" stroke="#0084C2" stroke-width="42" d="M226.946 123.324s35.754 18.24 27.757 40.01" fill="none" transform="rotate(29 -505.845 1482.48)" style="display:block"/><path stroke-linecap="round" stroke="#0084C2" stroke-width="42" d="M204.596 134.57s33.047 49.847 70.068 89.784" fill="none" transform="rotate(29 -540.713 1483.246)" style="display:block"/><path stroke-linecap="round" stroke="#CC348C" stroke-width="34" d="M238.868 254.825s-13.18-4.981-26.026-14.489" fill="none" transform="rotate(31 -451.054 1506.452)" style="display:block"/><path fill="#CC348D" d="M71.91 41.047c-5.664 13.194-20.952 19.299-34.146 13.635l-71.97-41.073C-47.4 7.945-53.504-7.343-47.84-20.537c5.664-13.194 20.952-19.299 34.146-13.635L58.275 6.901c13.194 5.664 19.299 20.952 13.635 34.146z" transform="rotate(-52.12 943.439 -595.372)" style="display:block"/><path fill="#0084C2" d="M96.635-.001c0 53.37-43.265 96.635-96.635 96.635-53.37 0-96.635-43.265-96.635-96.635 0-53.37 43.265-96.633 96.635-96.633 53.37 0 96.635 43.263 96.635 96.633z" transform="rotate(-9 4209.878 -4610.74)" style="display:block"/><path fill="#00448E" d="M-96.514 11.486C-93.977-39.62-51.736-80.278 0-80.278c51.737 0 93.978 40.658 96.514 91.765a96.772 96.772 0 0 1-2.09 15.777C75.006 59.056 39.981 80.278 0 80.278c-39.981 0-75.005-21.222-94.424-53.014a96.675 96.675 0 0 1-2.09-15.778z" transform="rotate(-9 4167.84 -4607.432)" style="display:block"/><path fill="#CC348D" d="m24.003 53.944.326-.139c-12.435 7.179-38.321 5.539-50.142-18.406l-.933-19.196C-17.835 3.22-13.474 10.895-1.039 3.716l1.182.923c12.435-7.179 28.335-2.918 35.514 9.517l-1.812 4.135c7.179 12.435 2.593 28.474-9.842 35.653z" transform="rotate(-124.12 574.132 30.34)" style="display:block"/><path fill="#CC348D" d="M-97.156 29.955c-.198-2.525.521-11.023.521-13.599 0-53.37 43.265-96.634 96.635-96.634 53.37 0 96.635 43.264 96.635 96.634 0 2.576.134 3.648-.064 6.172C77.597 56.12 41.33 80.278 0 80.278s-78.183-16.731-97.156-50.323z" transform="rotate(-9 4105.96 -4602.562)" style="display:block"/><g style="display:block"><path fill="#A71E6E" d="M807.57 609.033a3.818 3.818 0 0 1 4.347-3.206l7.738 1.168 1.99-7.568a3.82 3.82 0 0 1 4.665-2.723 3.82 3.82 0 0 1 2.72 4.665l-2.862 10.884a3.816 3.816 0 0 1-4.262 2.803l-11.13-1.678a3.819 3.819 0 0 1-3.205-4.345zM775.256 619.824a3.818 3.818 0 0 1 4.938-2.185l9.41 3.632 6.41-7.789a3.819 3.819 0 1 1 5.897 4.852l-8.162 9.919a3.818 3.818 0 0 1-4.323 1.136l-11.982-4.626a3.821 3.821 0 0 1-2.188-4.939zM814.064 581.021a3.818 3.818 0 0 1 3.938-3.695l10.082.317 3.474-9.47a3.819 3.819 0 1 1 7.17 2.63l-4.423 12.059a3.818 3.818 0 0 1-3.706 2.501l-12.837-.404a3.821 3.821 0 0 1-3.698-3.938zM784.874 594.313a3.818 3.818 0 0 1 4.592-2.842l9.82 2.31 5.282-8.593a3.819 3.819 0 1 1 6.506 3.999l-6.726 10.942a3.818 3.818 0 0 1-4.128 1.717l-12.502-2.941a3.821 3.821 0 0 1-2.844-4.592zM754.094 606.218a3.819 3.819 0 0 1 4.703-2.653l9.718 2.71 5.629-8.37a3.819 3.819 0 0 1 6.337 4.259l-7.168 10.66a3.817 3.817 0 0 1-4.194 1.547l-12.372-3.45a3.817 3.817 0 0 1-2.653-4.703z"/></g><g style="display:block"><path fill="#C6775C" d="M913.506 513.882c-1.724-7.332-7.203-12.797-13.992-15.741-7.524-3.263-16.658-3.428-24.077.396-14.113 7.275-19.817 17.323-9.065 40.077 4.817 10.193 17.842 20.088 31.956 12.813 15.54-8.01 19.211-20.392 15.178-37.545z"/><path stroke-linecap="round" stroke="#C6775C" stroke-width="17.825" d="m874.042 505.078 2.755 12.023" fill="none"/></g><g style="display:block"><path stroke-linecap="round" stroke="#CC348D" stroke-width="42" d="M703.94 561.82c-11.8 25.94-14.666 38.004-16.84 65.652-1.362 23.305 1.375 49.956.941 74.84" fill="none"/><path fill="#C6775C" d="M666.531 675.424c-.118 3.233-.142 25.226-.474 27.863-.53 4.201.693 20.78 22.058 20.288 21.191-.782 21.188-20.167 21.188-20.167s-.009-24.462.111-28.508c-2.812.099-39.212.444-42.883.524z"/></g><g style="display:block"><path fill="#0084C2" d="M827.351 430.452c6.13 49.92-30.807 90.407-81.737 96.66-50.93 6.254-96.564-24.094-102.693-74.015-6.13-49.921 30.187-95.459 81.117-101.712 50.93-6.253 97.184 29.146 103.313 79.067z"/><path fill="#006AAD" d="M778.919 361.367a93.552 93.552 0 0 1 8.35 4.89c4.091 11.194 8.623 24.705 7.635 38.268-1.364 18.73-10.362 38.107-19.973 49.403l-4.29-3.506c8.54-10.034 17.356-28.084 18.68-46.262 1.195-16.408-4.373-32.11-10.402-42.793z"/><path fill="#FFF" d="m-119.182 663.185.258 2.104-.14.017-.26-2.104.142-.017z"/></g><path fill="#3D3D3D" d="M37.203 50.836c27.144-5.774 47.511-29.875 47.511-58.741 0-33.173-26.893-60.065-60.065-60.065-18.008 0-34.153 7.934-45.162 20.486a75.698 75.698 0 0 0-3.974-.116c-33.263 0-60.227 21.453-60.227 54.939 0 33.486 26.964 60.631 60.227 60.631 4.762 0 9.388-.574 13.831-1.625l-.074.146 1.46-.477a59.264 59.264 0 0 0 6.493-2.12l39.98-13.058z" transform="matrix(1.00247 -.12309 .12065 .98262 771.815 535.461)" style="display:block"/><path fill="#C6775C" d="M-1.242 39.793c-25.682 0-41.072-8.297-49.251-13.11-2.56-1.507-5.43-5.101-5.43-8.072 0-.257.137-1.462.364-1.583C-21.937-.941 20.217-39.793 20.217-39.793s15.389 1.518 31.859 17.074c2.355 2.224 3.52 3.752 3.687 6.987.27 5.223.157 12.473-.033 18.579-.238 7.66-2.764 15.323-8.422 20.492-8.259 7.544-22.902 16.454-48.55 16.454z" transform="matrix(1.00247 -.12309 .12065 .98262 762.293 480.765)" style="display:block"/><g style="display:block"><path stroke-linecap="round" stroke-miterlimit="10" stroke="#3DB9B8" stroke-width="9" d="M53.277 19.099C17.413 8.225 2.477-1.607-22.18-22.771" fill="none" transform="matrix(.6792 1.02432 -.92 .61002 882.635 494.051)"/><path fill="#CC348D" d="M888.632 487.043c7.15.49 9.835-2.102 12.632-9.897.291.04 4.396-2.62 4.691-2.6 8.985.617 16.968-7.905 17.831-19.036.863-11.13-5.722-20.652-14.706-21.269-.253-.017-.502-.001-.754-.005-1.442-8.313-7.143-14.664-14.425-15.164-7.281-.5-13.903 5.006-16.611 13.034-.25-.03-.493-.081-.747-.098-8.984-.617-16.967 7.905-17.83 19.035-.864 11.13 5.721 20.652 14.706 21.27.295.02.587.005.88.005 1.566 8.095 7.182 14.234 14.333 14.725zm5.696-46.68c-7.918-2.094-15.83 2.41-17.664 10.048-1.834 7.639 3.086 15.527 11.016 17.61 7.918 2.095 15.82-2.41 17.665-10.047 1.834-7.64-3.097-15.529-11.017-17.611z"/><path fill="#FFF" d="M894.33 440.36c-7.92-2.087-15.828 2.415-17.667 10.055-1.838 7.64 3.092 15.524 11.013 17.611 7.92 2.087 15.829-2.415 17.667-10.054 1.838-7.64-3.092-15.524-11.012-17.612z"/></g><g style="display:block"><path fill="#C6775C" d="M880.965 499.336s6.552 14.226-1.36 18.2c-7.912 3.974-14.388-3.983-14.263-11.366.22-3.243 3.654-4.012 3.654-4.012l8.219-2.95 3.75.128zM911.977 519.924c7.77 27.16-20.191 32.474-20.191 32.474s-7.123-7.833-2.287-20.034c-5.42-1.37-7.508-7.525-5.106-13.376 2.401-5.85 4.464-6.713 12.53-7.419 8.067-.706 11.669-3.481 15.054 8.355z"/><path stroke-linecap="round" stroke="#9F543A" stroke-width="4.6" d="M898.191 512.39s-10.293-1.826-13.652 7.173c-2.455 6.58.42 10.745 3.41 13.857m5.83 13.763s-5.59-4.343-4.883-9.82c.708-5.475 5.901-12.788 13.021-9.442m-21.192-28.858c5.444 9.41 2.428 19.13-4.677 19.864-6.405.66-10.39-5.947-10.607-9.48" fill="none"/></g><g clip-path="url(#U)" style="display:block" transform="matrix(.98814 -.20826 .20756 .96815 -93.689 207.716)"><path fill="#C6775C" d="M10.877 0c0 6.007-4.87 10.876-10.878 10.876-6.006 0-10.876-4.869-10.876-10.876s4.87-10.876 10.876-10.876c6.008 0 10.878 4.869 10.878 10.876z" transform="translate(800.836 479.886)" style="display:block"/><path fill="#C6775C" d="M10.877 0c0 6.007-4.87 10.876-10.878 10.876-6.006 0-10.876-4.869-10.876-10.876s4.87-10.876 10.876-10.876c6.008 0 10.878 4.869 10.878 10.876z" transform="translate(798.78 473.204)" style="display:block"/><path fill="#FFF" d="M-18.514-4.878c0-10.225 8.289-18.514 18.514-18.514s18.514 8.289 18.514 18.514v9.756c0 10.225-8.289 18.514-18.514 18.514s-18.514-8.289-18.514-18.514v-9.756z" transform="translate(773.528 459.781)" style="display:block"/><path fill="#3D3D3D" d="M-1.525-12.102a6.743 6.743 0 0 1-6.522 5.045c-.059 0-.115-.008-.173-.009a9.093 9.093 0 0 0-.906 3.948v6.222c0 5.947 5.597 10.305 11.363 8.847a9.126 9.126 0 0 0 6.889-8.847v-6.222c0-5.702-5.146-9.928-10.651-8.984z" transform="translate(781.527 457.122)" style="display:block"/><path fill="#FFF" d="M-12.166.836c0-10.146 8.288-23.86 17.307-23.86 5.455 0 6.958 4.757 7.028 7.136v14.94c0 10.369-6.292 23.972-15.629 23.972-7.467 0-8.776-8.994-8.706-13.491V.836z" transform="translate(811.918 449.774)" style="display:block"/><path fill="#3D3D3D" d="M-6.73-1.101c2.89 0 5.231-2.942 5.231-6.572 0-1.176-.246-2.28-.677-3.235 1.585-1.21 3.405-1.942 5.28-1.942 3.293 0 4.199 2.872 4.241 4.308V.477c0 6.259-3.798 12.373-9.433 12.373-4.509 0-5.298-5.429-5.256-8.144v-5.25c0-.2.007-.399.016-.599.198.028.397.042.598.042z" transform="translate(810.167 449.712)" style="display:block"/><g style="display:block"><path fill="#C6775C" d="M776.5 484c-9.75.25-22.75 2.25-23.75-22.25-.5 12.25 1.25 15 6 19.75s24.75 4.5 30.5-5c7.091-11.716 5.25-5.5 5.25-5.5s-8 11-18 13zM812.75 477.5c-9.75.25-15.5-3.25-14.75-12.5 2.25 3.75 3.025 4.722 5 6.5 5 4.5 14 .5 17-4.25 7.313-11.579 5.25-6.5 5.25-6.5s.5 15.5-12.5 16.75zM773.5 434.25s-10.341-.141-16.5 7.25c-1.25 1.5-2.75 1.5-2.75 1.5s16.25-13.75 40.75-3.5c-1.25-1.25-5.5-2.75-8.25-4.25s-13.25-1-13.25-1zM807.25 428c-2.389 2.218-6 3.75-6.75 6-3.042 9.127-1 12.75-1 12.75-.303-19.688 20.75-23.25 25.25-17 0-4.25-2-2.5-4.5-3.25s-9.5-1.75-13 1.5z"/></g><g clip-path="url(#V)" style="display:block"><path fill="#262626" d="M-19.164-7.956c3.333-5.09 10.161-6.515 15.251-3.182.482.315 2.156 1.19 4.403 1.689 2.186.486 4.235.47 5.956-.107 5.768-1.933 12.014 1.177 13.946 6.946 1.932 5.77-1.178 12.014-6.946 13.946-12.723 4.262-24.764-.986-29.428-4.039-5.09-3.333-6.515-10.162-3.182-15.253z" transform="translate(789.728 507.177)" style="display:block"/><path fill="#FFF" d="M19.88 3.819c-1.949-5.74-8.175-8.831-13.929-6.903-1.721.577-3.77.593-5.956.107-2.247-.499-3.921-1.374-4.403-1.689-5.09-3.333-11.918-1.908-15.251 3.182-.081.123-.146.253-.221.378C-10 6.616 8.348 8.752 19.88 3.819z" transform="translate(790.223 500.705)" style="display:block"/></g><g opacity=".02"><path stroke-linecap="round" stroke="#262626" stroke-width="7" d="M234.25-38.5s2.5 16.25 22.5 6.25" fill="none" transform="translate(540 540)" opacity="1" style="display:block"/></g></g></g><g clip-path="url(#bo)" style="display:block" transform="matrix(.77 0 0 .77 124.2 124.2)"><g style="display:block"><path fill="#F48C03" d="m534.009 499.677-248.737-51.082a44.999 44.999 0 0 0-44.274 16.073L38.437 736.881a66.541 66.541 0 0 0-6.753 10.323l-26.602-5.463 23.673 59.194c7.561 19.426 24.302 35.311 47.483 40.072l352.395 72.369c27.05 5.555 53.481-11.869 59.036-38.919l69.692-339.359c3.333-16.23-7.122-32.088-23.352-35.421z"/><path fill="#FFB34A" d="m54.441 786.464 384.562 78.975c27.05 5.555 53.481-11.87 59.036-38.92l69.692-339.358c3.333-16.23-7.122-32.089-23.352-35.422l-248.737-51.082a44.999 44.999 0 0 0-44.274 16.073L16.641 682.337c-30.173 37.945-9.688 94.375 37.8 104.127z"/><path fill="#FFF" d="M440.086 849.286c18.904 3.882 37.444-8.34 41.326-27.244l73.89-344.889c1.664-8.102-6.512-16.65-14.614-18.314L291.95 407.757c-11.132-2.286-25.38 1.215-32.454 10.111L26.447 690.214c-10.9 13.708-13.84 31.719-7.863 48.181 5.976 16.461 19.785 28.393 36.94 31.916l384.562 78.975z"/></g><g mask="url(#bp)" style="display:block"><g clip-path="url(#bq)"><g clip-path="url(#br)" style="display:block"><g clip-path="url(#bs)" style="display:block"><g style="display:block"><path fill="#E6A000" d="M526.813 413.321c-.127-11.3-17.522-20.327-38.855-20.163-21.332.163-38.522 9.456-38.395 20.756.127 11.3 17.522 20.327 38.854 20.163 21.333-.163 38.523-9.456 38.396-20.756zm-.07-6.24-77.25.593.07 6.24 77.25-.593-.07-6.24z"/><path fill="#FFC700" d="M526.744 407.081c.127 11.3-17.064 20.592-38.397 20.756-21.332.163-38.728-8.864-38.855-20.163-.127-11.3 17.064-20.592 38.397-20.756 21.332-.163 38.728 8.864 38.855 20.163z"/><path fill="#FFE700" d="M495.755 424.172c5.68-.68 10.93-2.089 15.337-4.131.94-.436 1.077-1.417.287-1.993l-35.627-26.028c-.454-.332-1.117-.448-1.725-.305-4.026.943-7.71 2.283-10.866 3.989a29.58 29.58 0 0 0-2.608 1.581c-.725.496-.743 1.342-.041 1.854l33.784 24.683c.385.281.926.414 1.459.35zm17.054-28.849c-6.614-3.432-15.451-5.283-24.884-5.21-.226.001-.451.004-.676.008-1.52.028-2.256 1.4-1.172 2.192l30.56 22.326c.751.55 2 .475 2.6-.171 2.132-2.295 3.244-4.797 3.215-7.353-.049-4.403-3.474-8.59-9.643-11.792z"/></g></g><g clip-path="url(#bx)" style="display:block"><g style="display:block"><path fill="#7F7F7F" d="M297.01 841.288c-.299-32.089-41.293-57.724-91.565-57.26-50.272.464-90.782 26.854-90.483 58.943.299 32.089 41.293 57.724 91.564 57.26 50.272-.464 90.784-26.854 90.485-58.943zm-.165-17.72-182.049 1.682.166 17.72 182.049-1.682-.166-17.72z"/><path fill="#D8D8D8" d="M296.846 823.567c.3 32.088-40.212 58.478-90.484 58.942-50.272.465-91.267-25.17-91.566-57.259-.299-32.088 40.213-58.478 90.485-58.942 50.271-.465 91.266 25.17 91.565 57.259z"/><path fill="#D8D8D8" d="M223.818 872.103c13.387-1.934 25.757-5.932 36.144-11.733 2.217-1.238 2.537-4.023.677-5.66l-83.959-73.915c-1.07-.942-2.633-1.27-4.066-.865-9.488 2.677-18.17 6.484-25.606 11.328a68.731 68.731 0 0 0-6.145 4.491c-1.71 1.406-1.751 3.81-.098 5.265l79.616 70.094c.906.798 2.182 1.176 3.437.995zm40.19-81.927c-15.586-9.746-36.412-15.001-58.643-14.796-.532.005-1.061.012-1.591.024-3.585.078-5.318 3.975-2.762 6.226l72.015 63.4c1.772 1.56 4.714 1.348 6.129-.487 5.024-6.515 7.645-13.62 7.577-20.881-.116-12.502-8.187-24.394-22.724-33.486z"/></g></g><g clip-path="url(#by)" style="display:block"><g style="display:block"><path fill="#7F7F7F" d="M340.099 692.844c-.283-30.026-39.035-54.012-86.556-53.578-47.522.435-85.816 25.127-85.534 55.152.283 30.025 39.034 54.012 86.556 53.578 47.521-.435 85.817-25.127 85.534-55.152zm-.157-16.58-172.089 1.573.156 16.581 172.09-1.574-.157-16.58z"/><path fill="#D8D8D8" d="M339.944 676.262c.282 30.024-38.013 54.717-85.535 55.152-47.521.434-86.273-23.552-86.556-53.577-.283-30.024 38.013-54.717 85.534-55.151 47.522-.435 86.274 23.552 86.557 53.576z"/><path fill="#D8D8D8" d="M270.91 721.677c12.655-1.81 24.348-5.55 34.167-10.979 2.096-1.158 2.398-3.764.64-5.295l-79.365-69.162c-1.012-.881-2.49-1.188-3.845-.81-8.968 2.506-17.175 6.068-24.204 10.6a64.946 64.946 0 0 0-5.81 4.202c-1.616 1.316-1.655 3.565-.092 4.927l75.26 65.586c.857.747 2.063 1.1 3.25.93zm37.993-76.658c-14.734-9.12-34.422-14.037-55.436-13.845-.503.005-1.003.012-1.504.023-3.389.073-5.027 3.72-2.611 5.825l68.076 59.324c1.674 1.46 4.455 1.26 5.793-.457 4.749-6.095 7.227-12.743 7.163-19.538-.11-11.698-7.74-22.825-21.481-31.332z"/></g></g><g clip-path="url(#bz)" style="display:block"><g style="display:block"><path fill="#E6A000" d="M427.088 550.542c-.244-25.156-33.682-45.253-74.688-44.89-41.006.364-74.05 21.053-73.806 46.209.244 25.156 33.682 45.253 74.688 44.89 41.006-.364 74.05-21.053 73.806-46.209zm-.135-13.892L278.46 537.97l.135 13.892 148.494-1.319-.135-13.892z"/><path fill="#FFC700" d="M426.954 536.65c.244 25.155-32.8 45.844-73.806 46.208-41.006.364-74.445-19.733-74.689-44.889-.244-25.155 32.801-45.844 73.807-46.208 41.006-.364 74.444 19.733 74.688 44.888z"/><path fill="#FFE700" d="M367.387 574.7c10.919-1.517 21.009-4.651 29.482-9.199 1.808-.97 2.069-3.153.552-4.437l-68.484-57.946c-.873-.739-2.148-.995-3.317-.678-7.739 2.098-14.82 5.083-20.886 8.88a56.02 56.02 0 0 0-5.013 3.521c-1.395 1.103-1.428 2.987-.08 4.128l64.942 54.95c.739.626 1.78.922 2.804.78zm32.783-64.228c-12.714-7.64-29.702-11.76-47.835-11.6-.434.005-.866.01-1.298.02-2.924.061-4.338 3.116-2.253 4.88l58.741 49.704c1.445 1.223 3.845 1.056 5-.382 4.097-5.108 6.235-10.678 6.18-16.37-.095-9.801-6.678-19.124-18.535-26.252z"/></g></g><g clip-path="url(#bA)" style="display:block"><g style="display:block"><path fill="#E6A000" d="M496.589 448.846c-.158-14.863-21.75-26.736-48.227-26.521-26.477.215-47.814 12.438-47.656 27.3.157 14.863 21.748 26.737 48.226 26.522 26.477-.215 47.815-12.438 47.657-27.301zm-.087-8.208-95.884.78.088 8.207 95.883-.779-.087-8.208z"/><path fill="#FFC700" d="M496.503 440.638c.157 14.862-21.18 27.085-47.658 27.3-26.477.215-48.069-11.658-48.227-26.52-.157-14.862 21.18-27.086 47.658-27.3 26.477-.216 48.069 11.658 48.227 26.52z"/><path fill="#FFE700" d="M458.04 463.118c7.05-.895 13.565-2.747 19.036-5.434 1.167-.573 1.336-1.863.356-2.621l-44.22-34.236c-.564-.436-1.387-.588-2.142-.4-4.997 1.24-9.57 3.003-13.486 5.246a36.383 36.383 0 0 0-3.237 2.08c-.9.652-.922 1.765-.051 2.44l41.933 32.465c.477.37 1.15.544 1.81.46zm21.167-37.946c-8.21-4.514-19.178-6.948-30.887-6.853-.28.002-.559.006-.838.011-1.888.037-2.8 1.841-1.455 2.884l37.93 29.365c.933.723 2.483.625 3.228-.225 2.646-3.018 4.027-6.309 3.991-9.672-.061-5.79-4.312-11.299-11.969-15.51z"/></g></g><path stroke-miterlimit="10" stroke="#EBF3FF" stroke-width="30" d="M67.539 274.225c23.628-172.481 135.732-426.722 230.547-519.374m-547.479 480.441c71.334-158.806 231.894-422.343 470.786-474.584" fill="none" transform="translate(285.529 611.351)" style="display:block"/></g></g></g></g><g clip-path="url(#bL)" style="display:block"><g style="display:block"><path fill="#D8D8D8" d="M472 385.792c27.71 0 50.208 22.498 50.208 50.208 0 27.71-22.498 50.208-50.208 50.208-27.71 0-50.208-22.498-50.208-50.208 0-27.71 22.498-50.208 50.208-50.208zM588.275 300.61c6.274 0 11.368 5.043 11.368 11.255 0 6.212-5.094 11.256-11.368 11.256s-11.368-5.044-11.368-11.256c0-6.212 5.094-11.255 11.368-11.255z"/></g></g><g clip-path="url(#bM)" style="display:block"><g style="display:block"><path fill="#D8D8D8" d="M472 384.35c28.506 0 51.65 23.144 51.65 51.65s-23.144 51.65-51.65 51.65-51.65-23.144-51.65-51.65 23.144-51.65 51.65-51.65z"/><path fill="#D8D8D8" d="M544.704 303.709c28.615 0 51.849 27.833 51.849 62.114s-23.234 62.115-51.849 62.115c-28.615 0-51.849-27.834-51.849-62.115 0-34.28 23.234-62.114 51.85-62.114z"/><path fill="#D8D8D8" d="M567.565 321.658c28.615 0 51.849 23.233 51.849 51.848s-23.234 51.849-51.85 51.849c-28.614 0-51.848-23.234-51.848-51.849 0-28.615 23.234-51.848 51.849-51.848z"/><path fill="#D8D8D8" d="M505.287 345.711c28.615 0 51.849 23.234 51.849 51.849 0 28.615-23.234 51.849-51.849 51.849-28.615 0-51.849-23.234-51.849-51.849 0-28.615 23.234-51.849 51.849-51.849z"/><path fill="#D8D8D8" d="M472 384.151c32.335 0 58.589 23.234 58.589 51.849 0 28.615-26.254 51.849-58.589 51.849-32.335 0-58.589-23.234-58.589-51.849 0-28.615 26.254-51.849 58.589-51.849z"/><path fill="#D8D8D8" d="M472 384.151c32.335 0 58.589 23.234 58.589 51.849 0 28.615-26.254 51.849-58.589 51.849-32.335 0-58.589-23.234-58.589-51.849 0-28.615 26.254-51.849 58.589-51.849z"/></g></g><g clip-path="url(#cb)" style="display:block" transform="matrix(.77 0 0 .77 124.2 124.2)"><g style="display:block"><path fill="#744007" d="m253.5 358.058 63.67-27.378 117.504 33.198 23.889 42.455-26.818 2.719-136.065-31.63-42.18-19.364z"/><path fill="#744007" d="m298.964 379.006-7.946 48.531 116.222 25.43 20.044-56.484-128.32-17.477z"/></g><path fill="#FFF" d="M69.523 48.68C39.212 68.895-1.623 69.663-33.265 47.507c-31.642-22.156-44.886-60.792-36.258-96.188 30.31-20.214 71.145-20.982 102.787 1.174C64.906-25.351 78.151 13.284 69.523 48.68z" transform="matrix(.99417 -.17457 .1781 .97449 384.215 323.427)" style="display:block"/><g style="display:block"><path fill="#C86902" d="M315.32 358.498c-25.617 6.521-49.08 3.332-65.686-7.496-5.467-3.565-10.191-7.957-14.004-13.103a52.638 52.638 0 0 1-6.624-11.92c-1.363-3.428.858-7.087 4.49-8.012l17.945-4.568"/><path fill="#C86902" d="M315.32 358.498c-7.465 1.9-14.75 2.976-21.733 3.278-9.43.408-42.146-48.377-42.146-48.377l37.047-44.358 87.228 12.72-1.807 13.937c-26.683 15.183-49.442 45.547-53.045 61.356"/></g><g style="display:block"><path fill="#C86902" d="M371.567 261.543c-1.313 12.64-12.83 21.843-25.724 20.557l-71.783-7.16c-12.894-1.286-22.284-12.573-20.972-25.213 1.313-12.64 12.83-21.843 25.724-20.557l71.782 7.16c12.895 1.286 22.285 12.573 20.973 25.213z"/><path fill="#C86902" d="m296.132 268.275-.677 18.798 18.24-1.351 1.473-12.826-19.036-4.621z"/></g><path fill="#C86902" d="M0 58.955c-12.833 0-23.236-10.403-23.236-23.236v-71.438c0-12.833 10.403-23.236 23.236-23.236s23.236 10.403 23.236 23.236v71.438c0 12.833-10.403 23.236-23.236 23.236z" transform="matrix(1.00402 .10755 -.10972 .98414 272.284 287.192)" style="display:block"/><g style="display:block"><path fill="#C86902" d="M438.875 380.525c10.58 8.752 34.542 25.915 56.066 28.456 11.384 1.343 23.77.061 36.595-5.707 3.389-1.524 3.21-6.455.713-9.206l-11.104-16.513-22.287-33.144s-66.534 30.694-59.983 36.114z"/><path fill="#C86902" d="m434.469 286.332-6.215 12.758c-11.105 30.396-4.42 64.232 6.359 77.047 0 0 1.852 2.089 5.242 5.22 13.285 12.278 55.46-42.253 55.46-42.253l-9.517-14.162 2.363-20.146-26.832-14.28-26.86-4.184z"/></g><path fill="#C86902" d="M-42.557 40.8c8.881 9.264 23.589 9.573 32.853.692L41.864-7.946c9.264-8.881 9.574-23.59.693-32.854s-23.589-9.573-32.853-.692L-41.864 7.946c-9.264 8.881-9.574 23.59-.693 32.854z" transform="matrix(.9895 -.19844 .20245 .9699 492.92 329.271)" style="display:block"/><g style="display:block"><path fill="#C86902" d="M420.231 279.499c-2.875 12.388 5.04 24.715 17.679 27.533l70.356 15.686c12.638 2.818 25.213-4.94 28.088-17.328 2.875-12.388-5.04-24.716-17.678-27.534l-70.356-15.685c-12.638-2.818-25.214 4.94-28.089 17.328z"/><path fill="#C86902" d="m472.126 311.274-.09 8.414 10.058 4.062 1.668-14.338-11.636 1.862z"/></g><path fill="#FFCBA3" d="M-19.823-24.092c9.521-13.598 28.263-16.902 41.861-7.381C35.636-21.952 38.94-3.21 29.419 10.388l-9.596 13.704c-9.521 13.598-28.262 16.902-41.86 7.381-13.598-9.521-16.903-28.263-7.382-41.861l9.596-13.704z" transform="matrix(.99417 -.17457 .1781 .97449 397.64 293.555)" style="display:block"/><path fill="#3D3D3D" d="M-46.502-25.337c20.016-28.586 37.64-56.462 66.226-36.446l21.998 15.404c28.586 20.016 35.533 59.415 15.517 88.001C37.223 70.208-2.177 77.156-30.763 57.14l-21.998-15.404C-81.347 21.72-66.518 3.249-46.502-25.337z" transform="matrix(.89162 -.46506 .47446 .87397 394.188 204.097)" style="display:block"/><path fill="#FFCBA3" d="M-86.164-58.374c29.56-42.159 76.769-31.883 107.779-10.17l35.402 24.789c24.139 17.882 27.265 57.997 5.551 89.007-21.714 31.01-55.127 42.33-84.183 23.291l-35.402-24.788c-31.01-21.714-57.854-61.185-29.147-102.129z" transform="matrix(.89162 -.46506 .47446 .87397 401.461 245.446)" style="display:block"/><path fill="#FFCBA3" d="M11.043 7.732c-4.27 6.099-12.676 7.581-18.775 3.311-6.099-4.27-7.581-12.676-3.311-18.775 4.27-6.099 12.676-7.581 18.775-3.311 6.099 4.27 7.581 12.676 3.311 18.775z" transform="matrix(.89162 -.46506 .47446 .87397 474.581 271.848)" style="display:block"/><g style="display:block"><path fill="#FFCBA3" d="M311.869 234.891c-.914 7.316-7.705 12.52-15.17 11.625-7.463-.895-12.773-7.552-11.86-14.868.914-7.317 7.706-12.521 15.17-11.626 7.464.896 12.773 7.553 11.86 14.87z"/><path fill="#C86902" d="M305.036 248.575c-.503 4.027-4.24 6.892-8.35 6.398-4.108-.493-7.03-4.157-6.527-8.184.504-4.027 4.241-6.892 8.35-6.398 4.108.493 7.03 4.157 6.527 8.184z"/></g><g style="display:block"><path fill="#D6C5B9" d="M445.807 186.044c-2.364 4.298 5.112 9.77 4.47 14.91l7.977 18.003c8.576 27.14 5.937 32.532 15.687 42.825l3.104.373c.823-3.022 1.368-2.672 1.768-5.865 3.478-27.847-6.45-57.116-33.006-70.246zM302.952 212.184a67.488 67.488 0 0 0-2.94 9.053l22.693 8.955c21.129 8.213 45.047-1.919 53.424-22.628l6.368-15.743c1.947-4.812-16.904-17.598-16.879-22.48-26.915.655-52.116 16.763-62.666 42.843z"/></g><g style="display:block"><path fill="#3D3D3D" d="M381.432 201.566c.648-9.125 8.72-16.007 18.03-15.372l59.065-7.273c1.306.09 5.897 8.587 6.18 14.265.849 16.991-14.432 29.68-31.746 28.498l-36.563-2.494c-8.913-.608-15.636-8.183-15.016-16.92l.05-.704z"/><path fill="#3D3D3D" d="m463.746 197.258-2.148-10.767-4.416-7.386-46.356-8.605-24.403 13.878 77.323 12.88z"/></g><g style="display:block"><path fill="#3D3D3D" d="M331.307 133.699c3.545-13.644 16.814-37.466 44.79-35.551 23.078 1.569 38.247 21.512 38.008 44.727l-9.001 76.482-24.84-1.51c-32.443-1.969-53.188-28.764-52.853-61.396 0 0 1.372-15.765 3.896-22.752z"/><path fill="#515151" d="M328.77 142.209c3.934-25.664 23.673-46.834 46.956-44.109-15.345 13.219-44.74 47.659-28.833 106.008-8.92-6.012-19.208-26.395-19.03-43.675l.908-18.224z"/></g><g clip-path="url(#cc)" style="display:block" transform="matrix(.89162 -.46506 .47446 .87397 -139.965 239.08)"><path fill="#FFF" d="M-12.036-14.286c4.88-6.97 15.458-7.983 23.625-2.264 8.168 5.719 10.832 16.004 5.952 22.974l-5.505 7.862c-4.88 6.97-15.457 7.983-23.625 2.264-8.167-5.719-10.832-16.004-5.952-22.974l5.505-7.862z" transform="translate(441.457 268.011)" style="display:block"/><path fill="#3D3D3D" d="M-5.688-5.817c2.282 1.364 5.091.984 6.435-.936.716-1.023.88-2.288.564-3.5 1.557.107 3.194.668 4.67 1.702 3.615 2.531 4.902 6.93 2.875 9.825l-4.621 6.6c-2.027 2.895-6.601 3.189-10.216.658-3.615-2.531-4.902-6.93-2.875-9.825l3.168-4.524z" transform="translate(445.951 274.49)" style="display:block"/><path fill="#FFCBA3" d="M8.907 21.067S2.48 13.928-3.329 7.174c-4.597-5.345-11.465-17.567-11.465-17.567.021-.031 2.418-2.812 2.44-2.843l2.879-2.736c4.88-6.97 11.708-3.358 19.875 2.361 8.168 5.719 10.832 16.379 5.952 23.349l-5.504 7.486c-.022.031-1.919 3.812-1.941 3.843z" transform="translate(444.646 262.072)" style="display:block"/><path fill="#FFF" d="M-12.036-14.285c4.88-6.97 15.458-7.984 23.625-2.265C19.756-10.831 22.42-.546 17.54 6.424l-5.504 7.861c-4.88 6.97-15.457 7.984-23.624 2.265C-19.755 10.831-22.42.546-17.54-6.424l5.504-7.861z" transform="translate(478.303 293.811)" style="display:block"/><path fill="#3D3D3D" d="M-5.674-5.832c2.238 1.207 4.907.789 6.207-1.067.689-.984.866-2.191.598-3.36 1.611.074 3.317.639 4.85 1.713 3.615 2.531 4.902 6.93 2.875 9.825l-4.621 6.6c-2.027 2.895-6.601 3.189-10.216.658-3.615-2.531-4.902-6.929-2.875-9.824l3.182-4.545z" transform="translate(481.736 297.49)" style="display:block"/><path fill="#FFCBA3" d="M-15.046-8.91c7.331-.785 22.605 4.827 30.092 8.477l-3.928 9.417-21.891-6.577-4.273-11.317z" transform="matrix(.89564 -.45757 .4523 .88532 480.695 312.002)" style="display:block"/><path fill="#FFCBA3" d="M18.032 6.816c.022-.031 1.043-.561 1.065-.592l1.005-1.861c4.88-6.97-1.535-12.255-9.702-17.974-8.167-5.719-18.744-4.706-23.624 2.264l-5.505 7.862a5.102 5.102 0 0 0-.064.092S-10.729.88-4.954 4.924C.821 8.968 18.032 6.816 18.032 6.816z" transform="translate(481.492 287.872)" style="display:block"/><path stroke-linecap="round" stroke-miterlimit="10" stroke="#E99B5F" stroke-width="5" d="M-.507 45.058C-5.39 41.882-21.64 24.632-26.368 8.351" fill="none" transform="translate(454.14 235.868)" style="display:block"/><path stroke-linecap="round" stroke-miterlimit="10" stroke="#E99B5F" stroke-width="5" d="M-32.678 21.221c14.592 9.395 34.342 9.644 40.984 8.058" fill="none" transform="translate(494.836 264.135)" style="display:block"/><path fill="#E89665" d="M5.071 5.511A6.708 6.708 0 0 1-6.011-2.05C-3.923-5.11 4.818-9.326 6.358-8.275c1.54 1.051.801 10.726-1.287 13.786z" transform="rotate(-10 1928.009 -2416.822)" style="display:block"/><path stroke-linecap="round" stroke="#E99B5F" stroke-width="5" d="M-91-223.5c7.891 9.36 17.875 2.897 17.875 2.897" fill="none" transform="rotate(-17 1998.076 -1781.595)" style="display:block"/></g><path fill="#FFB100" d="M-25.766 20.528c-5.78-7.254-4.584-17.822 2.671-23.602L2.164-23.199c7.255-5.78 17.822-4.584 23.602 2.67 5.78 7.256 4.584 17.823-2.67 23.602l-25.26 20.125c-7.255 5.781-17.822 4.586-23.602-2.67z" transform="matrix(1.0069 .07754 -.0791 .98696 288.58 447.625)" style="display:block"/><path fill="#744007" d="M-36.806-15.813C-36.806-36.075-20.381-52.5-.12-52.5s36.686 16.425 36.686 36.687l.24 35.294C35.895 37.846 22.024 52.5 3.789 52.5c-18.235 0-29.218-15.008-33.018-33.019l-7.577-35.294z" transform="matrix(.97952 -.24136 .24624 .96013 277.26 398.235)" style="display:block"/><path fill="#FFB100" d="M-.274 32.942c9.276.077 16.857-7.378 16.934-16.654l.27-32.295c.077-9.276-7.379-16.858-16.655-16.935-9.276-.077-16.858 7.378-16.935 16.654l-.27 32.295c-.077 9.276 7.38 16.858 16.656 16.935z" transform="matrix(.98603 -.2144 .21874 .9665 384.546 468.465)" style="display:block"/><path fill="#744007" d="M4.535 37.593c-16.24 8.666-34.796 9.9-46.517-4.069-11.721-13.969-9.411-34.014 4.071-46.517l27.19-22.503c15.522-13.024 38.662-11 51.686 4.521 13.024 15.521 10.999 38.662-4.523 51.686L4.535 37.593z" transform="matrix(.99176 -.18728 .19106 .97212 413.673 425.57)" style="display:block"/><path fill="#FFCBA3" d="M-13.984-8.074a9.325 9.325 0 0 0 3.413 12.738l11.817 6.823a9.325 9.325 0 1 0 9.325-16.151l-11.817-6.823a9.325 9.325 0 0 0-12.738 3.413z" transform="matrix(.98603 -.2144 .21874 .9665 281.767 318.54)" style="display:block"/><path fill="#D52D2D" d="m-23.886-41.504-7.888 17.234L-43.071.412c-8.433 18.085-.608 39.583 17.477 48.016l3.042 1.418c18.085 8.433 39.583.609 48.016-17.476l8.387-18.325L44.648-9.546c13.761-29.511-54.772-61.471-68.534-31.958z" transform="matrix(.98603 -.2144 .21874 .9665 333.724 493.916)" style="display:block"/><g style="display:block"><path fill="#AFAFAF" d="M303.504 574.543c-.707 4.026-4.857 6.525-8.848 5.35-7.322-2.158-13.045-5.418-17.402-9.479-5.765-5.374-8.685-11.731-10.024-17.627-1.324-5.834-1.126-11.293-.638-15.21.246-1.98.574-3.621.846-4.794.137-.588.263-1.062.357-1.406.034-.119.062-.223.088-.31l38.56-170.602c1.549-6.847-3.05-14.603-8.846-18.105a46.922 46.922 0 0 0-7.429-3.642 35.958 35.958 0 0 0-2.179-.76 22.07 22.07 0 0 0-.52-.153l-.096-.026.007.002.009.002-.018-.004c-2.865-.741-5.04-3.164-5.193-6.064-.259-4.888 4.233-8.192 8.638-7.093l-1.71 6.581c1.71-6.581 1.712-6.581 1.715-6.58l.007.002.014.003.033.009.093.024a32.857 32.857 0 0 1 1.185.343c.753.232 1.795.577 3.055 1.06a61.06 61.06 0 0 1 9.662 4.734c7.442 4.498 18.874 15.924 15.104 32.604l-38.612 170.825-6.765-1.468 6.765 1.47-.062.275-.076.241-.003.008-.003.012c-.008.028-.026.087-.05.176-.05.178-.127.472-.22.866-.183.79-.42 1.967-.6 3.414-.365 2.935-.468 6.751.409 10.616.863 3.802 2.65 7.567 6.047 10.734 2.571 2.397 6.326 4.694 11.877 6.324 3.348.983 5.416 4.272 4.823 7.648z"/><path fill="#4B4B4B" d="m232.481 307.13 54.946 13.733c5.19 1.298 8.326 6.475 7.003 11.563-1.324 5.09-6.605 8.162-11.796 6.864l-54.946-13.732c-5.191-1.298-8.327-6.474-7.003-11.563 1.324-5.088 6.605-8.162 11.796-6.865z"/></g><path fill="#FFCBA3" d="m9.004-7.241-13.181-3.532A9.325 9.325 0 0 0-9.004 7.241l13.181 3.532a9.325 9.325 0 0 0 11.421-6.594 9.324 9.324 0 0 0-6.594-11.42z" transform="matrix(.98603 -.2144 .21874 .9665 440.458 354.777)" style="display:block"/><g style="display:block"><path fill="#AFAFAF" d="M310.043 575.722c.918-3.305 4.21-5.43 7.668-4.935 5.734.82 10.127.293 13.491-.815 4.444-1.464 7.685-4.137 10.106-7.226 2.46-3.14 4.011-6.641 4.945-9.453.46-1.386.754-2.551.927-3.345.087-.395.143-.693.174-.874l.031-.181.002-.013c.001-.006 0-.008.001-.007l.035-.249.062-.276 6.765 1.469c-6.766-1.469-6.765-1.47-6.765-1.47l38.612-170.825c3.77-16.68 19.057-22.305 27.74-23.301 4.353-.5 8.106-.459 10.798-.29 1.35.085 2.443.2 3.227.302.392.051.707.098.938.134.116.018.21.034.283.047l.094.017.034.006.015.003h.006c.003.002.005.002-1.282 6.676l1.287-6.675c4.466.828 7.115 5.683 4.774 10.007-1.39 2.564-4.404 3.86-7.32 3.345l-.018-.003.008.002.007.001-.097-.016a23.185 23.185 0 0 0-.538-.076 35.668 35.668 0 0 0-2.302-.214 47.53 47.53 0 0 0-8.303.225c-6.763.776-14.273 5.9-15.821 12.747l-38.561 170.604-.055.317c-.06.35-.153.832-.282 1.422a47.158 47.158 0 0 1-1.298 4.695c-1.246 3.752-3.419 8.783-7.133 13.523-3.753 4.79-9.14 9.344-16.682 11.829-5.7 1.877-12.29 2.461-19.857 1.385-4.125-.587-6.81-4.57-5.716-8.512z"/><path fill="#4B4B4B" d="M496.826 374.036c-.992 5.16-6.065 8.554-11.33 7.582l-55.721-10.3c-5.265-.974-8.728-5.947-7.735-11.107.992-5.16 6.066-8.555 11.33-7.582l55.721 10.3c5.265.973 8.727 5.947 7.735 11.107z"/></g><path fill="#FFCBA3" d="M-21.059 10.635 1.969 23.51c6.578 3.678 14.892 1.326 18.57-5.252l5.772-10.323c3.678-6.578 1.326-14.892-5.252-18.57L-1.969-23.51c-6.578-3.678-14.893-1.325-18.571 5.253l-5.771 10.322c-3.678 6.578-1.326 14.892 5.252 18.57z" transform="matrix(.98603 -.2144 .21874 .9665 462.774 365.021)" style="display:block"/><g style="display:block"><path fill="#4B4B4B" d="m337.85 475.1-2.408-.428c-14.308-2.534-3.354-27.571-32.114 18.871-28.761 46.442-38.721 122.513-37.166 140.464 1.556 17.95 5.393 25.512 19.701 28.047l2.407.426c14.309 2.534 28.687-5.913 32.115-18.87l37.166-140.464c3.428-12.955-5.393-25.512-19.701-28.047z"/><path fill="#2B2B2B" d="M357.497 504.244c9.199 26.127-22.354 122.545-39.395 144.68-6.475-23.737 11.998-119.478 39.395-144.68z"/><path fill="#AFAFAF" d="M347.507 537.942c-5.686-.6-26.944 81.398-20.999 82.216 4.667.641 25.224-81.77 21-82.216z"/></g><path fill="#AFAFAF" d="M-56.822 89.51c2.423-.91 4.536-2.239 6.386-3.789 3.065-2.569 5.33-5.689 6.848-8.262a34.229 34.229 0 0 0 1.628-3.099c.17-.371.289-.653.359-.825l.07-.172.004-.012.003-.007.088-.238.121-.259 6.217 2.899c-6.218-2.899-6.217-2.899-6.217-2.9L33.377-87.33c7.293-15.64 23.299-17.909 31.91-17.03 4.317.441 1.948 13.992-1.394 13.65-6.707-.685-15.087 2.758-18.081 9.178L-28.782 78.436l-.122.301c-.136.333-.33.788-.584 1.342a48.396 48.396 0 0 1-2.282 4.352c-2.025 3.432-5.226 7.928-9.853 11.806-4.676 3.919-10.878 7.254-18.712 8.087-.942.1-2.218-.056-3.692-.404 3.305-6.418 6.144-12.509 7.205-14.41z" transform="matrix(.98603 -.2144 .21874 .9665 372.289 469.083)" style="display:block"/><path fill="#FFCBA3" d="m23.936 13.501 3.458-11.309c2.204-7.207-1.854-14.836-9.061-17.04l-25.229-7.714c-7.207-2.204-14.837 1.854-17.04 9.061l-3.458 11.31c-2.203 7.207 1.854 14.836 9.061 17.039l25.229 7.714c7.207 2.203 14.836-1.854 17.04-9.061z" transform="matrix(.98603 -.2144 .21874 .9665 257.223 320.691)" style="display:block"/><g style="display:block"><path fill="#FF4B4B" d="m295.155 429.956-4.648 18.935-6.657 27.115c-5.038 19.9 7.522 40.013 28.055 44.925l3.454.826c20.533 4.911 41.264-7.239 46.303-27.138l4.942-20.133 6.362-25.917c8.222-32.472-69.587-51.086-77.81-18.613zM349.977 338.526c-17.559 1.2-49.068 10.53-49.601 55.145 67.811 3.998 97.01-.945 97.01-.945s-1.826-52.194-47.41-54.2z"/><path fill="#FF4B4B" d="M351.073 357.863c26.81 1.581 47.664 17.752 46.539 36.089-1.126 18.336-23.807 31.94-50.617 30.36-26.81-1.581-47.663-17.752-46.538-36.089 1.125-18.336 23.806-31.94 50.616-30.36z"/><path fill="#DDF4FF" d="M379.687 397.953c-3.648 13.312-21.955 20.133-40.888 15.234-18.934-4.899-31.325-19.663-27.677-32.975 3.648-13.312 21.955-20.13 40.888-15.232 18.933 4.899 31.324 19.662 27.677 32.973z"/></g></g></g></g></svg>